<?xml version="1.0" encoding="UTF-8"?>
<svg width="69px" height="69px" viewBox="0 0 69 69" version="1.1" xmlns="http://www.w3.org/2000/svg" xmlns:xlink="http://www.w3.org/1999/xlink">
    <title>spotrix</title>
    <g id="Page-3" stroke="none" stroke-width="1" fill="none" fill-rule="evenodd">
        <g id="guinsoo-ecosystem-spotrix" transform="translate(-81.000000, -89.000000)" fill="#007CAC" fill-rule="nonzero">
            <g id="spotrix" transform="translate(82.000000, 90.000000)">
                <rect id="Rectangle" stroke="#007CAC" fill-opacity="0.2" x="0" y="0" width="67" height="67" rx="8"></rect>
                <path d="M54,14 L30.0405711,14 C27.391449,14.6101866 25.5119409,15.1431923 24.402047,15.599017 C21.8177504,16.6603673 19.722751,18.1413463 18.4011578,19.468497 C17.09483,20.7803182 14.8670186,23.2155557 13.5890706,25.9974623 C13.0238527,27.2278595 12.4941624,29.267517 12,32.1164348 L12,55 L34.0410999,55 C35.5593735,54.9233442 36.624415,54.833885 37.236224,54.7316224 C37.9887858,54.6058332 38.8902085,54.2633312 39.3013597,54.1519352 C40.5658892,53.8093275 41.4012892,53.1595122 42.0895117,52.8508594 C44.8305061,51.6215834 46.5892617,49.64515 47.8710897,48.4250974 C49.2784672,47.085546 50.6968774,45.2319384 51.6925388,42.6211494 C52.1074872,41.5330859 52.5771649,39.6120741 53.1015719,36.8581138 L53.1015719,29.6643851 L36.2484737,29.6643851 L26.7954622,39.0291925 L42.5142528,39.0291925 C42.1386206,39.9328897 41.8318125,40.5670927 41.5938281,40.9318012 C40.8464422,42.0771622 39.9622071,42.8621783 39.3013597,43.3806394 C38.3248695,44.1467349 36.5714496,44.9120947 34.0410999,45.6767188 L21.3766283,45.6767188 L21.3766283,32.1164348 C22.1302254,30.3337289 22.7232891,29.1119233 23.1558192,28.4510178 C23.6302368,27.7261086 24.373536,26.9840096 24.8038442,26.5664448 C25.3807228,26.0066503 26.019094,25.2596686 27.0620396,24.7230576 C27.5946537,24.4490198 28.5874975,24.1110246 30.0405711,23.7090723 L45.0012499,23.7090723 L54,14 Z" id="Path-7" transform="translate(33.000000, 34.500000) rotate(180.000000) translate(-33.000000, -34.500000) "></path>
            </g>
        </g>
    </g>
</svg>