<?xml version="1.0" encoding="UTF-8"?>
<svg width="1189px" height="1189px" viewBox="0 0 1189 1189" version="1.1" xmlns="http://www.w3.org/2000/svg" xmlns:xlink="http://www.w3.org/1999/xlink">
    <title>abstraction-visual-explorer-c2088255b4382f862123199feb50d998</title>
    <g id="Page-2" stroke="none" stroke-width="1" fill="none" fill-rule="evenodd">
        <g id="abstraction-visual-explorer-c2088255b4382f862123199feb50d998" transform="translate(0.398000, 0.654000)">
            <rect id="Rectangle" fill="#FFFFFF" fill-rule="nonzero" x="0" y="0" width="1188" height="1188"></rect>
            <polygon id="Path" fill="#E4E7ED" points="278.554 322 278.554 916.59 459.389 916.592 459.389 920.608 210.285 920.608 210.285 868.402 138 868.402 138 864.387 214.301 864.387 214.301 916.592 274.538 916.59 274.538 322"></polygon>
            <polygon id="Path" fill="#E4E7ED" points="903.467 503 903.467 722.562 975.752 722.562 975.752 726.578 903.467 726.578 903.467 778.784 874 778.784 874 774.768 899.451 774.768 899.451 503"></polygon>
            <polygon id="Path" fill="#83DBFF" fill-rule="nonzero" points="412 892.175 767.167 684.156 819.142 723.923 464.522 931.942"></polygon>
            <rect id="Rectangle" fill="#37B067" fill-rule="nonzero" transform="translate(848.362755, 970.178404) rotate(-42.614824) translate(-848.362755, -970.178404) " x="644.95231" y="942.778454" width="406.820891" height="54.7999007"></rect>
            <rect id="Rectangle" fill="#379FC9" fill-rule="nonzero" transform="translate(633.150593, 840.630573) rotate(-42.746935) translate(-633.150593, -840.630573) " x="445.269106" y="832.395727" width="375.762975" height="16.469691"></rect>
            <rect id="Rectangle" fill="#379FC9" fill-rule="nonzero" transform="translate(1007.606646, 915.204682) rotate(-42.614824) translate(-1007.606646, -915.204682) " x="970.947306" y="906.436732" width="73.3186804" height="17.5359002"></rect>
            <rect id="Rectangle" fill="#6CE397" fill-rule="nonzero" transform="translate(826.939518, 953.161960) rotate(-42.614824) translate(-826.939518, -953.161960) " x="623.469573" y="918.090059" width="406.939891" height="70.1438009"></rect>
            <rect id="Rectangle" fill="#6CE397" fill-rule="nonzero" transform="translate(575.880147, 954.425592) rotate(-132.614824) translate(-575.880147, -954.425592) " x="409.288645" y="917.766252" width="333.183004" height="73.3186804"></rect>
            <polygon id="Path" fill="#83DBFF" fill-rule="nonzero" points="969.454 928.902 707.969 722.415 767.163 684.156 1032 890.639"></polygon>
            <polygon id="Path" fill="#695BBD" fill-rule="nonzero" points="786.898 788.515 826.361 764.433 826.361 860.043 786.898 881.469"></polygon>
            <polygon id="Path" fill="#8B7CCE" fill-rule="nonzero" points="786.898 788.513 826.361 764.43 786.899 741.657 747.436 763.083"></polygon>
            <polygon id="Path" fill="#8B7CCE" fill-rule="nonzero" points="786.898 788.576 747.435 763.081 747.435 855.975 786.898 881.47"></polygon>
            <polygon id="Path" fill="#EC625F" fill-rule="nonzero" points="727.703 796.927 767.166 772.417 767.166 901.201 727.703 925.181"></polygon>
            <polygon id="Path" fill="#FF988F" fill-rule="nonzero" points="727.703 796.926 767.166 772.416 727.703 743.35 688.24 767.33"></polygon>
            <polygon id="Path" fill="#FF988F" fill-rule="nonzero" points="727.703 796.928 688.24 767.33 688.24 895.587 727.703 925.185"></polygon>
            <polygon id="Path" fill="#FFC066" fill-rule="nonzero" points="668.51 861.736 707.973 836.41 707.973 935.608 668.51 960.387"></polygon>
            <polygon id="Path" fill="#FFC066" fill-rule="nonzero" points="668.509 861.735 707.972 836.409 668.509 807.364 629.046 832.142"></polygon>
            <polygon id="Path" fill="#FFD087" fill-rule="nonzero" points="668.51 861.739 629.048 832.142 629.048 930.795 668.51 960.393"></polygon>
            <g id="Group" transform="translate(144.000000, 409.000000)">
                <rect id="Rectangle" fill="#FFFFFF" fill-rule="nonzero" transform="translate(214.578500, 166.500000) scale(-1, 1) translate(-214.578500, -166.500000) " x="-2.84217094e-14" y="0" width="429.157" height="333"></rect>
                <rect id="Rectangle" fill="#F7F7F9" fill-rule="nonzero" x="40" y="40" width="70" height="30"></rect>
                <rect id="Rectangle" fill="#757782" fill-rule="nonzero" x="49" y="53" width="51" height="4"></rect>
                <rect id="Rectangle" fill="#FFFFFF" fill-rule="nonzero" x="40" y="71.828" width="70" height="30"></rect>
                <rect id="Rectangle" fill="#FFFFFF" fill-rule="nonzero" x="40" y="103.657" width="70" height="30"></rect>
                <rect id="Rectangle" fill="#FFFFFF" fill-rule="nonzero" x="40" y="135.485" width="70" height="30"></rect>
                <rect id="Rectangle" fill="#FFFFFF" fill-rule="nonzero" x="40" y="167.314" width="70" height="30"></rect>
                <rect id="Rectangle" fill="#F7F7F9" fill-rule="nonzero" x="40" y="199.142" width="70" height="30"></rect>
                <rect id="Rectangle" fill="#757782" fill-rule="nonzero" x="49" y="212.142" width="51" height="4"></rect>
                <rect id="Rectangle" fill="#FFFFFF" fill-rule="nonzero" x="40" y="230.971" width="70" height="30"></rect>
                <rect id="Rectangle" fill="#FFFFFF" fill-rule="nonzero" x="40" y="262.799" width="70" height="30"></rect>
                <rect id="Rectangle" fill="#E4E7ED" fill-rule="nonzero" x="110" y="40" width="2" height="253"></rect>
                <rect id="Rectangle" fill="#F7F7F9" fill-rule="nonzero" x="112" y="40" width="91.0524" height="30"></rect>
                <rect id="Rectangle" fill="#757782" fill-rule="nonzero" x="121" y="53.172" width="74.0524" height="3.65691"></rect>
                <rect id="Rectangle" fill="#FFFFFF" fill-rule="nonzero" x="112" y="71.828" width="91.0524" height="30"></rect>
                <rect id="Rectangle" fill="#E4E7ED" fill-rule="nonzero" x="121" y="85" width="74.0524" height="3.65691"></rect>
                <rect id="Rectangle" fill="#FFFFFF" fill-rule="nonzero" x="112" y="103.657" width="91.0524" height="30"></rect>
                <rect id="Rectangle" fill="#E4E7ED" fill-rule="nonzero" x="121" y="116.828" width="74.0524" height="3.65691"></rect>
                <rect id="Rectangle" fill="#FFFFFF" fill-rule="nonzero" x="112" y="135.485" width="91.0524" height="30"></rect>
                <rect id="Rectangle" fill="#E4E7ED" fill-rule="nonzero" x="121" y="148.657" width="74.0524" height="3.65691"></rect>
                <rect id="Rectangle" fill="#FFFFFF" fill-rule="nonzero" x="112" y="167.314" width="91.0524" height="30"></rect>
                <rect id="Rectangle" fill="#E4E7ED" fill-rule="nonzero" x="121" y="180.485" width="74.0524" height="3.65691"></rect>
                <rect id="Rectangle" fill="#F7F7F9" fill-rule="nonzero" x="112" y="199.142" width="91.0524" height="30"></rect>
                <rect id="Rectangle" fill="#757782" fill-rule="nonzero" x="121" y="212.314" width="74.0524" height="3.65691"></rect>
                <rect id="Rectangle" fill="#FFFFFF" fill-rule="nonzero" x="112" y="230.971" width="91.0524" height="30"></rect>
                <rect id="Rectangle" fill="#E4E7ED" fill-rule="nonzero" x="121" y="244.142" width="74.0524" height="3.65691"></rect>
                <rect id="Rectangle" fill="#FFFFFF" fill-rule="nonzero" x="112" y="262.799" width="91.0524" height="30"></rect>
                <rect id="Rectangle" fill="#E4E7ED" fill-rule="nonzero" x="121" y="275.971" width="74.0524" height="3.65691"></rect>
                <rect id="Rectangle" fill="#E4E7ED" fill-rule="nonzero" x="203.052" y="40" width="2" height="253"></rect>
                <rect id="Rectangle" fill="#F7F7F9" fill-rule="nonzero" x="205.052" y="40" width="91.0524" height="30"></rect>
                <rect id="Rectangle" fill="#757782" fill-rule="nonzero" x="214.052" y="53.172" width="74.0524" height="3.65691"></rect>
                <rect id="Rectangle" fill="#FFFFFF" fill-rule="nonzero" x="205.052" y="71.828" width="91.0524" height="30"></rect>
                <rect id="Rectangle" fill="#E4E7ED" fill-rule="nonzero" x="214.052" y="85" width="74.0524" height="3.65691"></rect>
                <rect id="Rectangle" fill="#FFFFFF" fill-rule="nonzero" x="205.052" y="103.657" width="91.0524" height="30"></rect>
                <rect id="Rectangle" fill="#E4E7ED" fill-rule="nonzero" x="214.052" y="116.828" width="74.0524" height="3.65691"></rect>
                <rect id="Rectangle" fill="#FFFFFF" fill-rule="nonzero" x="205.052" y="135.485" width="91.0524" height="30"></rect>
                <rect id="Rectangle" fill="#E4E7ED" fill-rule="nonzero" x="214.052" y="148.657" width="74.0524" height="3.65691"></rect>
                <rect id="Rectangle" fill="#FFFFFF" fill-rule="nonzero" x="205.052" y="167.314" width="91.0524" height="30"></rect>
                <rect id="Rectangle" fill="#E4E7ED" fill-rule="nonzero" x="214.052" y="180.485" width="74.0524" height="3.65691"></rect>
                <rect id="Rectangle" fill="#F7F7F9" fill-rule="nonzero" x="205.052" y="199.142" width="91.0524" height="30"></rect>
                <rect id="Rectangle" fill="#757782" fill-rule="nonzero" x="214.052" y="212.314" width="74.0524" height="3.65691"></rect>
                <rect id="Rectangle" fill="#FFFFFF" fill-rule="nonzero" x="205.052" y="230.971" width="91.0524" height="30"></rect>
                <rect id="Rectangle" fill="#E4E7ED" fill-rule="nonzero" x="214.052" y="244.142" width="74.0524" height="3.65691"></rect>
                <rect id="Rectangle" fill="#FFFFFF" fill-rule="nonzero" x="205.052" y="262.799" width="91.0524" height="30"></rect>
                <rect id="Rectangle" fill="#E4E7ED" fill-rule="nonzero" x="214.052" y="275.971" width="74.0524" height="3.65691"></rect>
                <rect id="Rectangle" fill="#E4E7ED" fill-rule="nonzero" x="296.105" y="40" width="2" height="253"></rect>
                <rect id="Rectangle" fill="#F7F7F9" fill-rule="nonzero" x="298.105" y="40" width="91.0524" height="30"></rect>
                <rect id="Rectangle" fill="#757782" fill-rule="nonzero" x="307.105" y="53.172" width="74.0524" height="3.65691"></rect>
                <rect id="Rectangle" fill="#FFFFFF" fill-rule="nonzero" x="298.105" y="71.828" width="91.0524" height="30"></rect>
                <rect id="Rectangle" fill="#E4E7ED" fill-rule="nonzero" x="307.105" y="85" width="74.0524" height="3.65691"></rect>
                <rect id="Rectangle" fill="#FFFFFF" fill-rule="nonzero" x="298.105" y="103.657" width="91.0524" height="30"></rect>
                <rect id="Rectangle" fill="#E4E7ED" fill-rule="nonzero" x="307.105" y="116.828" width="74.0524" height="3.65691"></rect>
                <rect id="Rectangle" fill="#FFFFFF" fill-rule="nonzero" x="298.105" y="135.485" width="91.0524" height="30"></rect>
                <rect id="Rectangle" fill="#E4E7ED" fill-rule="nonzero" x="307.105" y="148.657" width="74.0524" height="3.65691"></rect>
                <rect id="Rectangle" fill="#FFFFFF" fill-rule="nonzero" x="298.105" y="167.314" width="91.0524" height="30"></rect>
                <rect id="Rectangle" fill="#E4E7ED" fill-rule="nonzero" x="307.105" y="180.485" width="74.0524" height="3.65691"></rect>
                <rect id="Rectangle" fill="#F7F7F9" fill-rule="nonzero" x="298.105" y="199.142" width="91.0524" height="30"></rect>
                <rect id="Rectangle" fill="#757782" fill-rule="nonzero" x="307.105" y="212.314" width="74.0524" height="3.65691"></rect>
                <rect id="Rectangle" fill="#FFFFFF" fill-rule="nonzero" x="298.105" y="230.971" width="91.0524" height="30"></rect>
                <rect id="Rectangle" fill="#E4E7ED" fill-rule="nonzero" x="307.105" y="244.142" width="74.0524" height="3.65691"></rect>
                <rect id="Rectangle" fill="#FFFFFF" fill-rule="nonzero" x="298.105" y="262.799" width="91.0524" height="30"></rect>
                <rect id="Rectangle" fill="#E4E7ED" fill-rule="nonzero" x="307.105" y="275.971" width="74.0524" height="3.65691"></rect>
                <rect id="Rectangle" stroke="#E4E7ED" stroke-width="2" x="39" y="39" width="351.157" height="255"></rect>
            </g>
            <g id="Group" transform="translate(218.000000, 158.000000)" fill-rule="nonzero">
                <rect id="Rectangle" fill="#FFFFFF" transform="translate(104.000000, 94.500000) scale(-1, 1) translate(-104.000000, -94.500000) " x="0" y="0" width="208" height="189"></rect>
                <rect id="Rectangle" fill="#E4E7ED" x="59" y="61" width="15" height="90"></rect>
                <rect id="Rectangle" fill="#E4E7ED" x="77" y="24" width="16" height="127"></rect>
                <rect id="Rectangle" fill="#E4E7ED" x="96" y="85" width="16" height="66"></rect>
                <rect id="Rectangle" fill="#E4E7ED" x="115" y="65" width="15" height="86"></rect>
                <rect id="Rectangle" fill="#E4E7ED" x="134" y="70" width="15" height="81"></rect>
                <rect id="Rectangle" fill="#E4E7ED" x="152.258" y="66.662" width="15.5911" height="84.1858"></rect>
                <rect id="Rectangle" fill="#F1F2F5" x="40" y="94.742" width="15.5911" height="56.1281"></rect>
                <rect id="Rectangle" fill="#F1F2F5" x="58.711" y="76.033" width="15.5911" height="74.8374"></rect>
                <rect id="Rectangle" fill="#F1F2F5" x="77.418" y="82.27" width="15.5911" height="68.601"></rect>
                <rect id="Rectangle" fill="#F1F2F5" x="96.129" y="79.15" width="15.5911" height="71.7192"></rect>
                <rect id="Rectangle" fill="#F1F2F5" x="114.838" y="97.859" width="15.5911" height="53.0099"></rect>
                <rect id="Rectangle" fill="#F1F2F5" x="133.547" y="88.506" width="15.5911" height="62.3645"></rect>
                <rect id="Rectangle" fill="#F1F2F5" x="152.258" y="100.979" width="15.5911" height="49.8916"></rect>
            </g>
            <g id="Group" transform="translate(563.000000, 168.000000)">
                <rect id="Rectangle" fill="#FFFFFF" fill-rule="nonzero" transform="translate(266.500000, 167.500000) scale(-1, 1) translate(-266.500000, -167.500000) " x="0" y="0" width="533" height="335"></rect>
                <rect id="Rectangle" fill="#F7F7F9" fill-rule="nonzero" x="54" y="239.323" width="428.906" height="3.45709"></rect>
                <rect id="Rectangle" fill="#F7F7F9" fill-rule="nonzero" x="54" y="118.318" width="428.906" height="3.45709"></rect>
                <rect id="Rectangle" fill="#F7F7F9" fill-rule="nonzero" x="54" y="63" width="428.906" height="3.45709"></rect>
                <rect id="Rectangle" fill="#F7F7F9" fill-rule="nonzero" x="54" y="177.097" width="428.906" height="3.45709"></rect>
                <polygon id="Path" fill="#A3E0FF" points="54 273.28 86.65 240.547 120.785 182.52 159.371 240.547 194.99 212.278 232.092 181.033 266.227 120.03 303.329 153.505 340.432 242.035 376.05 179.545 414.637 153.505 448.77 93.249 482.91 66.467 482.91 301.549 54 301.549"></polygon>
                <polygon id="Path" fill="#68C3EC" points="54 277.185 86.65 256.968 120.785 221.128 159.371 256.968 194.99 239.507 232.092 220.209 266.227 182.531 303.329 203.206 340.432 257.887 376.05 219.29 414.637 203.206 448.77 165.989 482.91 149.448 482.91 294.646 54 294.646"></polygon>
                <polygon id="Path" fill="#FF89AB" points="54 295.854 86.65 285.264 120.785 266.491 159.371 285.264 194.99 276.118 232.092 266.009 266.227 246.273 303.329 257.103 340.432 285.745 376.05 265.528 414.637 257.103 448.77 237.609 482.91 228.944 482.91 305 54 305"></polygon>
                <line x1="161" y1="183" x2="161" y2="307" id="Path" stroke="#FFFFFF" stroke-width="6" stroke-dasharray="12"></line>
                <g transform="translate(169.000000, 157.000000)" id="Path">
                    <path d="M202.957,0 L1.043,0 C0.467,0 0,0.812 0,1.813 L0,79.787 C0,80.788 0.467,81.6 1.043,81.6 L202.957,81.6 C203.533,81.6 204,80.788 204,79.787 L204,1.813 C204,0.812 203.533,0 202.957,0 Z" fill="#FFFFFF" fill-rule="nonzero"></path>
                    <path d="M1.043,0.416 L202.957,0.416 C203.032,0.416 203.181,0.473 203.334,0.739 C203.48,0.993 203.584,1.372 203.584,1.813 L203.584,79.787 C203.584,80.228 203.48,80.607 203.334,80.861 C203.181,81.127 203.032,81.184 202.957,81.184 L1.043,81.184 C0.968,81.184 0.819,81.127 0.666,80.861 C0.52,80.607 0.416,80.228 0.416,79.787 L0.416,1.813 C0.416,1.372 0.52,0.993 0.666,0.739 C0.819,0.473 0.968,0.416 1.043,0.416 Z" stroke="#FFFFFF" stroke-width="0.832653"></path>
                </g>
                <rect id="Rectangle" fill="#C9CAD1" fill-rule="nonzero" x="189.4" y="176.984" width="30.8082" height="13.3224" rx="1.66531"></rect>
                <rect id="Rectangle" fill="#F1F2F5" fill-rule="nonzero" x="229.367" y="176.984" width="62.449" height="13.3224" rx="1.66531"></rect>
                <rect id="Rectangle" fill="#C9CAD1" fill-rule="nonzero" x="189.4" y="205.294" width="30.8082" height="13.3224" rx="1.66531"></rect>
                <rect id="Rectangle" fill="#F1F2F5" fill-rule="nonzero" x="228.951" y="205.294" width="124.065" height="13.3224" rx="1.66531"></rect>
                <g transform="translate(69.000000, 68.000000)">
                    <rect id="Rectangle" fill="#FFFFFF" fill-rule="nonzero" x="0" y="0" width="105" height="105" rx="2"></rect>
                    <path d="M70.474,34.956 L70.474,62.665 L70.47,62.669 L70.462,62.675 C70.462,62.675 57.044,62.655 48.446,62.655 C48.446,62.655 47.796,62.637 47.381,62.655 C46.878,62.676 46.635,62.619 46.1,62.774 L34.267,66.724 L34.267,37.206 C34.296,37.183 34.233,37.218 34.267,37.206 L70.474,37.206 L70.474,34.956 Z M70.464,66.724 C72.955,66.724 75,64.906 75,62.674 L75,37.206 C75,35 72.947,33 70.474,33 L34.267,33 C31.996,33 29.741,34.804 29.741,37.206 L29.741,72.956 L47.54,66.724 L70.464,66.724 Z" id="Shape" fill="#63656E"></path>
                </g>
                <path d="M183.221,277.135 L169,243 L203.135,257.221 L189.785,261.755 C189.912,261.823 190.032,261.911 190.139,262.018 L202.187,274.066 C202.773,274.652 202.773,275.601 202.187,276.187 C201.601,276.773 200.651,276.773 200.066,276.187 L188.018,264.14 C187.911,264.032 187.823,263.913 187.755,263.785 L183.221,277.135 Z" id="Path" fill="#000000"></path>
                <path d="M169,243 L169.577,241.615 C169.016,241.382 168.369,241.51 167.939,241.939 C167.51,242.369 167.382,243.016 167.615,243.577 L169,243 Z M183.221,277.135 L181.836,277.711 C182.076,278.287 182.648,278.655 183.272,278.634 C183.895,278.613 184.441,278.208 184.641,277.617 L183.221,277.135 Z M203.135,257.221 L203.617,258.641 C204.208,258.441 204.613,257.895 204.634,257.272 C204.655,256.648 204.287,256.076 203.711,255.836 L203.135,257.221 Z M189.785,261.755 L189.303,260.335 C188.737,260.527 188.339,261.037 188.29,261.633 C188.241,262.229 188.551,262.797 189.078,263.078 L189.785,261.755 Z M190.139,262.018 L189.079,263.079 L190.139,262.018 Z M202.187,274.066 L203.248,273.005 L202.187,274.066 Z M202.187,276.187 L203.248,277.248 L203.248,277.248 L202.187,276.187 Z M200.066,276.187 L199.005,277.248 L199.005,277.248 L200.066,276.187 Z M188.018,264.14 L189.079,263.079 L188.018,264.14 Z M187.755,263.785 L189.078,263.079 C188.796,262.551 188.229,262.242 187.633,262.29 C187.037,262.339 186.527,262.737 186.335,263.303 L187.755,263.785 Z M167.615,243.577 L181.836,277.711 L184.606,276.558 L170.385,242.423 L167.615,243.577 Z M203.711,255.836 L169.577,241.615 L168.423,244.385 L202.558,258.606 L203.711,255.836 Z M190.267,263.176 L203.617,258.641 L202.652,255.801 L189.303,260.335 L190.267,263.176 Z M189.078,263.078 L189.079,263.079 L191.2,260.958 C190.987,260.745 190.748,260.569 190.492,260.432 L189.078,263.078 Z M189.079,263.079 L201.126,275.126 L203.248,273.005 L191.2,260.958 L189.079,263.079 Z M201.126,275.126 L201.126,275.126 L203.248,277.248 C204.419,276.076 204.419,274.177 203.248,273.005 L201.126,275.126 Z M201.126,275.126 L201.126,275.126 L199.005,277.248 C200.176,278.419 202.076,278.419 203.248,277.248 L201.126,275.126 Z M201.126,275.126 L189.079,263.079 L186.957,265.2 L199.005,277.248 L201.126,275.126 Z M189.079,263.079 L189.078,263.079 L186.432,264.492 C186.569,264.748 186.745,264.987 186.957,265.2 L189.079,263.079 Z M184.641,277.617 L189.175,264.268 L186.335,263.303 L181.801,276.652 L184.641,277.617 Z" id="Shape" fill="#000000" fill-rule="nonzero"></path>
            </g>
            <g id="Group" transform="translate(518.000000, 118.000000)" fill-rule="nonzero">
                <rect id="Rectangle" fill="#FFFFFF" x="0" y="0" width="105" height="105" rx="2"></rect>
                <rect id="Rectangle" fill="#FFFFFF" x="29" y="28" width="47" height="43"></rect>
                <path d="M28.5,31 C28.5,29.895 29.395,29 30.5,29 L40.5,29 C41.605,29 42.5,29.895 42.5,31 L42.5,68 C42.5,69.105 41.605,70 40.5,70 L30.5,70 C29.395,70 28.5,69.105 28.5,68 L28.5,31 Z" id="Path" fill="#4CAED9"></path>
                <rect id="Rectangle" fill="#EDA94E" x="45.5" y="29" width="14" height="41" rx="2"></rect>
                <path d="M62.5,31 C62.5,29.895 63.395,29 64.5,29 L74.5,29 C75.605,29 76.5,29.895 76.5,31 L76.5,68 C76.5,69.105 75.605,70 74.5,70 L64.5,70 C63.395,70 62.5,69.105 62.5,68 L62.5,31 Z" id="Path" fill="#EC625F"></path>
            </g>
            <g id="Group" transform="translate(70.000000, 344.000000)">
                <rect id="Rectangle" fill="#FFFFFF" fill-rule="nonzero" x="0" y="0" width="105" height="105" rx="2"></rect>
                <path d="M29,32.193 C29,31.862 29.2686,31.593 29.6,31.593 L73.191,31.593 C73.522,31.593 73.791,31.862 73.791,32.193 L73.791,41.814 C73.791,42.145 73.522,42.414 73.191,42.414 L67.451,42.414 C67.12,42.414 66.851,42.145 66.851,41.814 L66.851,37.728 L55.976,37.728 L55.976,65.601 L64.581,65.601 C64.912,65.601 65.181,65.87 65.181,66.201 L65.181,70.947 C65.181,71.278 64.912,71.547 64.581,71.547 L55.976,71.547 L55.976,71.549 L47.537,71.549 L47.537,71.547 L38.93,71.547 C38.599,71.547 38.33,71.278 38.33,70.947 L38.33,66.201 C38.33,65.87 38.599,65.601 38.93,65.601 L47.537,65.601 L47.537,37.728 L35.939,37.728 L35.939,41.814 C35.939,42.145 35.671,42.414 35.339,42.414 L29.6,42.414 C29.2686,42.414 29,42.145 29,41.814 L29,32.193 Z" id="Path" fill="#63656E"></path>
            </g>
            <g id="Group" transform="translate(146.000000, 94.000000)">
                <rect id="Rectangle" fill="#FFFFFF" fill-rule="nonzero" x="0" y="0" width="105" height="105" rx="2"></rect>
                <path d="M52.219,48 C56.637,48 60.219,44.418 60.219,40 C60.219,35.582 56.637,32 52.219,32 C47.801,32 44.219,35.582 44.219,40 C44.219,44.418 47.801,48 52.219,48 Z M38,73.931 C42.418,73.931 46,70.349 46,65.931 C46,61.513 42.418,57.931 38,57.931 C33.582,57.931 30,61.513 30,65.931 C30,70.349 33.582,73.931 38,73.931 Z M74.438,65.931 C74.438,70.349 70.856,73.931 66.438,73.931 C62.02,73.931 58.438,70.349 58.438,65.931 C58.438,61.513 62.02,57.931 66.438,57.931 C70.856,57.931 74.438,61.513 74.438,65.931 Z" id="Shape" fill="#63656E"></path>
            </g>
            <path d="M992,750 C1004.7,750 1015,739.703 1015,727 C1015,714.297 1004.7,704 992,704 C979.297,704 969,714.297 969,727 C969,739.703 979.297,750 992,750 Z" id="Path" fill="#FFA5BC" fill-rule="nonzero"></path>
            <path d="M500.071,295.142 C510.052,295.142 518.142,287.052 518.142,277.071 C518.142,267.091 510.052,259 500.071,259 C490.091,259 482,267.091 482,277.071 C482,287.052 490.091,295.142 500.071,295.142 Z" id="Path" fill="#6CE397" fill-rule="nonzero"></path>
            <path d="M136.055,881.111 C143.818,881.111 150.111,874.818 150.111,867.055 C150.111,859.293 143.818,853 136.055,853 C128.293,853 122,859.293 122,867.055 C122,874.818 128.293,881.111 136.055,881.111 Z" id="Path" fill="#FF988F" fill-rule="nonzero"></path>
            <path d="M777.067,624.135 C786.493,624.135 794.135,616.493 794.135,607.067 C794.135,597.641 786.493,590 777.067,590 C767.641,590 760,597.641 760,607.067 C760,616.493 767.641,624.135 777.067,624.135 Z" id="Path" fill="#A3E0FF"></path>
        </g>
    </g>
</svg>