<?xml version="1.0" encoding="UTF-8"?>
<svg width="1189px" height="1189px" viewBox="0 0 1189 1189" version="1.1" xmlns="http://www.w3.org/2000/svg" xmlns:xlink="http://www.w3.org/1999/xlink">
    <title>abstraction-quick-calcs-fe94bae8d86c3736ccbe7ac7d19ddb52</title>
    <g id="Page-2" stroke="none" stroke-width="1" fill="none" fill-rule="evenodd">
        <g id="abstraction-quick-calcs-fe94bae8d86c3736ccbe7ac7d19ddb52" transform="translate(0.398000, 0.654000)">
            <rect id="Rectangle" fill="#FFFFFF" fill-rule="nonzero" x="0" y="0" width="1188" height="1188"></rect>
            <circle id="Oval" fill="#FFA5BC" fill-rule="nonzero" cx="665" cy="528" r="380"></circle>
            <polygon id="Path" stroke="#53535C" fill="#000000" fill-rule="nonzero" points="87.5 361.122 87.5 316.5 929.598 316.5 929.598 361.122"></polygon>
            <polygon id="Path" fill="#F1F2F5" fill-rule="nonzero" points="930.098 361.624 87 361.624 87 890.841 930.098 890.841"></polygon>
            <path d="M871.974,378 L145.026,378 C136.727,378 130,384.94 130,393.5 C130,402.06 136.727,409 145.026,409 L871.974,409 C880.273,409 887,402.06 887,393.5 C887,384.94 880.273,378 871.974,378 Z" id="Path" fill="#FFFFFF" fill-rule="nonzero"></path>
            <polygon id="Path" fill="#FFFFFF" fill-rule="nonzero" points="930 423.328 87 423.328 87 891.328 930 891.328"></polygon>
            <polygon id="Path" fill="#757782" fill-rule="nonzero" points="134.411 332.425 121.272 332.425 121.272 345.931 134.411 345.931"></polygon>
            <polygon id="Path" fill="#757782" fill-rule="nonzero" points="169.962 332.425 156.823 332.425 156.823 345.931 169.962 345.931"></polygon>
            <polygon id="Path" fill="#757782" fill-rule="nonzero" points="204.998 332.425 191.859 332.425 191.859 345.931 204.998 345.931"></polygon>
            <rect id="Rectangle" fill="#E4E7ED" fill-rule="nonzero" x="228" y="463.328" width="3" height="380"></rect>
            <rect id="Rectangle" fill="#E4E7ED" fill-rule="nonzero" transform="translate(445.000000, 591.828010) rotate(90.000000) translate(-445.000000, -591.828010) " x="443.49999" y="280.82801" width="3.00002" height="622"></rect>
            <rect id="Rectangle" fill="#E4E7ED" fill-rule="nonzero" transform="translate(445.000000, 722.828010) rotate(90.000000) translate(-445.000000, -722.828010) " x="443.49999" y="411.82801" width="3.00002" height="622"></rect>
            <polyline id="Path" stroke="#DCEFF6" stroke-width="3" points="261 675.328 295 693.328 337 675.328 370 684.328 430 658.328 451 675.328 523 658.328 565 684.328 613 622.328 668 668.328 698 644.328 733 668.328 761 622.328"></polyline>
            <polyline id="Path" stroke="#83DBFF" stroke-width="3" points="261 675.328 295 681.328 337 685.328 370 664.328 427 678.328 451 675.328 523 648.328 565 674.328 613 622.328 668 678.328 698 644.328 733 678.328 761 622.328"></polyline>
            <rect id="Rectangle" fill="#FAEFD9" fill-rule="nonzero" x="421" y="743.328" width="16" height="96"></rect>
            <rect id="Rectangle" fill="#FAEFD9" fill-rule="nonzero" x="613" y="743.328" width="16" height="96"></rect>
            <rect id="Rectangle" fill="#FAEFD9" fill-rule="nonzero" x="397" y="743.328" width="16" height="96"></rect>
            <rect id="Rectangle" fill="#FAEFD9" fill-rule="nonzero" x="589" y="743.328" width="16" height="96"></rect>
            <rect id="Rectangle" fill="#FAEFD9" fill-rule="nonzero" x="373" y="743.328" width="16" height="96"></rect>
            <rect id="Rectangle" fill="#FAEFD9" fill-rule="nonzero" x="565" y="743.328" width="16" height="96"></rect>
            <rect id="Rectangle" fill="#FAEFD9" fill-rule="nonzero" x="349" y="743.328" width="16" height="96"></rect>
            <rect id="Rectangle" fill="#FAEFD9" fill-rule="nonzero" x="541" y="743.328" width="16" height="96"></rect>
            <rect id="Rectangle" fill="#FAEFD9" fill-rule="nonzero" x="733" y="743.328" width="16" height="96"></rect>
            <rect id="Rectangle" fill="#FAEFD9" fill-rule="nonzero" x="325" y="743.328" width="16" height="96"></rect>
            <rect id="Rectangle" fill="#FAEFD9" fill-rule="nonzero" x="517" y="743.328" width="16" height="96"></rect>
            <rect id="Rectangle" fill="#FAEFD9" fill-rule="nonzero" x="709" y="743.328" width="16" height="96"></rect>
            <rect id="Rectangle" fill="#FAEFD9" fill-rule="nonzero" x="301" y="743.328" width="16" height="96"></rect>
            <rect id="Rectangle" fill="#FAEFD9" fill-rule="nonzero" x="493" y="743.328" width="16" height="96"></rect>
            <rect id="Rectangle" fill="#FAEFD9" fill-rule="nonzero" x="685" y="743.328" width="16" height="96"></rect>
            <rect id="Rectangle" fill="#FAEFD9" fill-rule="nonzero" x="277" y="743.328" width="16" height="96"></rect>
            <rect id="Rectangle" fill="#FAEFD9" fill-rule="nonzero" x="469" y="743.328" width="16" height="96"></rect>
            <rect id="Rectangle" fill="#FAEFD9" fill-rule="nonzero" x="661" y="743.328" width="16" height="96"></rect>
            <rect id="Rectangle" fill="#FAEFD9" fill-rule="nonzero" x="253" y="743.328" width="16" height="96"></rect>
            <rect id="Rectangle" fill="#FAEFD9" fill-rule="nonzero" x="445" y="743.328" width="16" height="96"></rect>
            <rect id="Rectangle" fill="#FAEFD9" fill-rule="nonzero" x="637" y="743.328" width="16" height="96"></rect>
            <rect id="Rectangle" fill="#FFD087" fill-rule="nonzero" x="421" y="774.328" width="16" height="65"></rect>
            <rect id="Rectangle" fill="#FFD087" fill-rule="nonzero" x="613" y="757.328" width="16" height="82"></rect>
            <rect id="Rectangle" fill="#FFD087" fill-rule="nonzero" x="397" y="811.328" width="16" height="28"></rect>
            <rect id="Rectangle" fill="#FFD087" fill-rule="nonzero" x="589" y="774.328" width="16" height="65"></rect>
            <rect id="Rectangle" fill="#FFD087" fill-rule="nonzero" x="373" y="774.328" width="16" height="65"></rect>
            <rect id="Rectangle" fill="#FFD087" fill-rule="nonzero" x="565" y="761.328" width="16" height="78"></rect>
            <rect id="Rectangle" fill="#FFD087" fill-rule="nonzero" x="349" y="774.328" width="16" height="65"></rect>
            <rect id="Rectangle" fill="#FFD087" fill-rule="nonzero" x="541" y="774.328" width="16" height="65"></rect>
            <rect id="Rectangle" fill="#FFA5BC" fill-rule="nonzero" x="733" y="799.328" width="16" height="40"></rect>
            <rect id="Rectangle" fill="#FFD087" fill-rule="nonzero" x="325" y="802.328" width="16" height="37"></rect>
            <rect id="Rectangle" fill="#FFA5BC" fill-rule="nonzero" x="517" y="802.328" width="16" height="37"></rect>
            <rect id="Rectangle" fill="#FFD087" fill-rule="nonzero" x="709" y="774.328" width="16" height="65"></rect>
            <rect id="Rectangle" fill="#FFD087" fill-rule="nonzero" x="301" y="757.328" width="16" height="82"></rect>
            <rect id="Rectangle" fill="#FFD087" fill-rule="nonzero" x="493" y="774.328" width="16" height="65"></rect>
            <rect id="Rectangle" fill="#FFD087" fill-rule="nonzero" x="685" y="774.328" width="16" height="65"></rect>
            <rect id="Rectangle" fill="#FFD087" fill-rule="nonzero" x="277" y="774.328" width="16" height="65"></rect>
            <rect id="Rectangle" fill="#FFA5BC" fill-rule="nonzero" x="469" y="799.328" width="16" height="40"></rect>
            <rect id="Rectangle" fill="#FFA5BC" fill-rule="nonzero" x="661" y="799.328" width="16" height="40"></rect>
            <rect id="Rectangle" fill="#FFD087" fill-rule="nonzero" x="253" y="787.328" width="16" height="52"></rect>
            <rect id="Rectangle" fill="#FFD087" fill-rule="nonzero" x="445" y="757.328" width="16" height="82"></rect>
            <rect id="Rectangle" fill="#FFD087" fill-rule="nonzero" x="637" y="774.328" width="16" height="65"></rect>
            <rect id="Rectangle" fill="#FFA5BC" fill-rule="nonzero" x="253" y="520.328" width="16" height="56"></rect>
            <rect id="Rectangle" fill="#FFA5BC" fill-rule="nonzero" x="373" y="542.328" width="16" height="34"></rect>
            <rect id="Rectangle" fill="#FFA5BC" fill-rule="nonzero" x="493" y="493.328" width="16" height="83"></rect>
            <rect id="Rectangle" fill="#FFA5BC" fill-rule="nonzero" x="613" y="542.328" width="16" height="34"></rect>
            <rect id="Rectangle" fill="#FFA5BC" fill-rule="nonzero" x="277" y="533.328" width="16" height="43"></rect>
            <rect id="Rectangle" fill="#FFA5BC" fill-rule="nonzero" x="397" y="520.328" width="16" height="56"></rect>
            <rect id="Rectangle" fill="#FFA5BC" fill-rule="nonzero" x="517" y="533.328" width="16" height="43"></rect>
            <rect id="Rectangle" fill="#FFA5BC" fill-rule="nonzero" x="637" y="520.328" width="16" height="56"></rect>
            <rect id="Rectangle" fill="#FFA5BC" fill-rule="nonzero" x="301" y="542.328" width="16" height="34"></rect>
            <rect id="Rectangle" fill="#FFA5BC" fill-rule="nonzero" x="421" y="480.328" width="16" height="96"></rect>
            <rect id="Rectangle" fill="#FFA5BC" fill-rule="nonzero" x="541" y="520.328" width="16" height="56"></rect>
            <rect id="Rectangle" fill="#FFA5BC" fill-rule="nonzero" x="661" y="505.328" width="16" height="71"></rect>
            <rect id="Rectangle" fill="#FFA5BC" fill-rule="nonzero" x="325" y="520.328" width="16" height="56"></rect>
            <rect id="Rectangle" fill="#FFA5BC" fill-rule="nonzero" x="445" y="542.328" width="16" height="34"></rect>
            <rect id="Rectangle" fill="#FFA5BC" fill-rule="nonzero" x="565" y="520.328" width="16" height="56"></rect>
            <rect id="Rectangle" fill="#FFA5BC" fill-rule="nonzero" x="685" y="520.328" width="16" height="56"></rect>
            <rect id="Rectangle" fill="#FFA5BC" fill-rule="nonzero" x="349" y="542.328" width="16" height="34"></rect>
            <rect id="Rectangle" fill="#FFA5BC" fill-rule="nonzero" x="469" y="520.328" width="16" height="56"></rect>
            <rect id="Rectangle" fill="#FFA5BC" fill-rule="nonzero" x="589" y="549.328" width="16" height="27"></rect>
            <rect id="Rectangle" fill="#FFA5BC" fill-rule="nonzero" x="709" y="533.328" width="16" height="43"></rect>
            <rect id="Rectangle" fill="#FFA5BC" fill-rule="nonzero" x="733" y="505.328" width="16" height="71"></rect>
            <rect id="Rectangle" fill-opacity="0.5" fill="#FFFFFF" fill-rule="nonzero" x="121" y="441" width="667" height="408"></rect>
            <path d="M811.03,577.595 L813.655,577.595 L814.831,573.878 L820.564,573.878 L821.761,577.595 L824.659,577.595 L819.703,562.58 L816.049,562.58 L811.03,577.595 Z M817.708,564.869 L819.913,571.841 L815.482,571.841 L817.708,564.869 Z M829.996,577.595 L839.194,577.595 L839.194,575.369 L832.789,575.369 L832.789,562.58 L829.996,562.58 L829.996,577.595 Z M844.607,577.595 L853.805,577.595 L853.805,575.369 L847.4,575.369 L847.4,562.58 L844.607,562.58 L844.607,577.595 Z M867.267,577.595 L876.465,577.595 L876.465,575.369 L870.06,575.369 L870.06,562.58 L867.267,562.58 L867.267,577.595 Z M880.826,577.595 L883.451,577.595 L884.627,573.878 L890.36,573.878 L891.557,577.595 L894.455,577.595 L889.499,562.58 L885.845,562.58 L880.826,577.595 Z M887.504,564.869 L889.709,571.841 L885.278,571.841 L887.504,564.869 Z M901.825,577.595 L904.639,577.595 L904.639,571.106 L909.343,562.58 L906.613,562.58 L903.316,568.796 L899.935,562.58 L896.848,562.58 L901.825,571.085 L901.825,577.595 Z M914.465,577.595 L924.209,577.595 L924.209,575.39 L917.258,575.39 L917.258,571.001 L922.55,571.001 L922.55,568.901 L917.258,568.901 L917.258,564.785 L923.852,564.785 L923.852,562.58 L914.465,562.58 L914.465,577.595 Z M929.774,577.595 L932.567,577.595 L932.567,571.526 L934.352,571.526 L938.279,577.595 L941.303,577.595 L937.082,571.106 C938.951,570.623 940.421,569.426 940.421,567.074 L940.421,566.99 C940.421,563.924 938.111,562.58 934.814,562.58 L929.774,562.58 L929.774,577.595 Z M932.567,569.531 L932.567,564.743 L934.814,564.743 C936.599,564.743 937.67,565.331 937.67,567.053 L937.67,567.137 C937.67,568.733 936.683,569.531 934.814,569.531 L932.567,569.531 Z M951.477,577.805 C954.795,577.805 957,575.768 957,573.164 C957,570.161 955.173,569.153 951.645,568.67 C949.041,568.292 948.537,567.683 948.537,566.465 C948.537,565.31 949.419,564.491 951.12,564.491 C952.842,564.491 953.745,565.163 954.018,566.738 L956.58,566.738 C956.286,563.861 954.354,562.391 951.12,562.391 C947.991,562.391 945.891,564.239 945.891,566.696 C945.891,569.51 947.592,570.602 951.183,571.085 C953.619,571.484 954.312,572.009 954.312,573.395 C954.312,574.781 953.136,575.705 951.477,575.705 C948.936,575.705 948.327,574.445 948.138,572.933 L945.45,572.933 C945.66,575.768 947.382,577.805 951.477,577.805 Z" id="Shape" fill="#B1B2BA" fill-rule="nonzero"></path>
            <path d="M1000.01,769.831 L847.084,769.831 C845.331,769.831 843.91,771.562 843.91,773.697 L843.91,799.411 C843.91,801.546 845.331,803.277 847.084,803.277 L1000.01,803.277 C1001.76,803.277 1003.18,801.546 1003.18,799.411 L1003.18,773.697 C1003.18,771.562 1001.76,769.831 1000.01,769.831 Z" id="Path" fill="#DCEFF6" fill-rule="nonzero"></path>
            <polygon id="Path" fill="#E4E7ED" fill-rule="nonzero" points="1003.18 642.415 810.463 642.415 810.463 647.193 1003.18 647.193"></polygon>
            <polygon id="Path" fill="#C9CAD1" fill-rule="nonzero" points="1003.18 717.272 810.463 717.272 810.463 722.05 1003.18 722.05"></polygon>
            <rect id="Rectangle" fill="#EDA94E" fill-rule="nonzero" x="820.815" y="779.387" width="4.77808" height="12.7415"></rect>
            <path d="M827.187,779.387 L831.065,779.387 C831.562,779.387 831.965,779.79 831.965,780.287 L831.965,791.229 C831.965,791.726 831.562,792.129 831.065,792.129 L827.187,792.129 L827.187,779.387 Z" id="Path" fill="#EC625F" fill-rule="nonzero"></path>
            <path d="M814.445,780.287 C814.445,779.79 814.848,779.387 815.345,779.387 L819.223,779.387 L819.223,792.129 L815.345,792.129 C814.848,792.129 814.445,791.726 814.445,791.229 L814.445,780.287 Z" id="Path" fill="#4CAED9" fill-rule="nonzero"></path>
            <g id="Group" transform="translate(810.463000, 515.000000)">
                <polygon id="Path" fill="#FFFFFF" fill-rule="nonzero" points="291.467 0 0 0 0 511.25 291.467 511.25"></polygon>
                <polygon id="Path" stroke="#F1F2F5" stroke-width="1.5" points="291.467 0 0 0 0 511.25 291.467 511.25"></polygon>
            </g>
            <rect id="Rectangle" fill="#F1F2F5" fill-rule="nonzero" x="810.463" y="817.612" width="291.463" height="50.9662"></rect>
            <rect id="Rectangle" fill="#E4E7ED" fill-rule="nonzero" x="810.463" y="591.449" width="291.463" height="1.59269"></rect>
            <polygon id="Path" fill="#D6D9DE" fill-rule="nonzero" points="917.788 548.446 835.946 548.446 835.946 554.742 917.788 554.742"></polygon>
            <polygon id="Path" fill="#D6D9DE" fill-rule="nonzero" points="917.788 677.455 835.946 677.455 835.946 683.75 917.788 683.75"></polygon>
            <polygon id="Path" fill="#D6D9DE" fill-rule="nonzero" points="917.788 785.758 835.946 785.758 835.946 792.053 917.788 792.053"></polygon>
            <polygon id="Path" fill="#D6D9DE" fill-rule="nonzero" points="917.788 894.061 835.946 894.061 835.946 900.356 917.788 900.356"></polygon>
            <polygon id="Path" fill="#D6D9DE" fill-rule="nonzero" points="1070.07 623.303 835.946 623.303 835.946 629.674 1070.07 629.674"></polygon>
            <polygon id="Path" fill="#D6D9DE" fill-rule="nonzero" points="1070.07 731.606 835.946 731.606 835.946 737.977 1070.07 737.977"></polygon>
            <polygon id="Path" fill="#B1B2BA" fill-rule="nonzero" points="1070.07 839.909 835.946 839.909 835.946 846.28 1070.07 846.28"></polygon>
            <polygon id="Path" fill="#D6D9DE" fill-rule="nonzero" points="1070.07 948.213 835.946 948.213 835.946 954.583 1070.07 954.583"></polygon>
            <g id="Group" transform="translate(447.000000, 797.908000)">
                <polygon id="Path" fill="#FFFFFF" fill-rule="nonzero" points="363 -1.13686838e-13 0 -1.13686838e-13 0 243.002 363 243.002"></polygon>
                <polygon id="Path" stroke="#F1F2F5" stroke-width="1.5" points="363 -1.13686838e-13 0 -1.13686838e-13 0 243.002 363 243.002"></polygon>
            </g>
            <rect id="Rectangle" fill="#E4E7ED" fill-rule="nonzero" x="447" y="973.408" width="363" height="1.5"></rect>
            <polygon id="Path" fill="#C9CAD1" fill-rule="nonzero" points="607.306 889.283 521.301 889.283 521.301 895.654 607.306 895.654"></polygon>
            <polygon id="Path" fill="#C9CAD1" fill-rule="nonzero" points="690.126 938.657 521.301 938.657 521.301 945.027 690.126 945.027"></polygon>
            <polygon id="Path" fill="#C9CAD1" fill-rule="nonzero" points="607.306 1003.96 521.301 1003.96 521.301 1010.33 607.306 1010.33"></polygon>
            <path d="M477.793,947.755 L485.854,932.262 C485.746,932.305 485.627,932.327 485.497,932.327 C485.367,932.327 485.247,932.327 485.139,932.327 C484.836,932.327 484.565,932.305 484.326,932.262 C484.11,932.219 483.882,932.143 483.644,932.034 C483.666,932.208 483.676,932.381 483.676,932.555 C483.676,932.728 483.676,932.902 483.676,933.076 C483.676,935.18 483.178,936.84 482.181,938.056 C481.184,939.271 479.819,939.878 478.086,939.878 C477.262,939.878 476.504,939.726 475.81,939.423 C475.139,939.097 474.564,938.641 474.088,938.056 C473.611,937.47 473.243,936.764 472.983,935.94 C472.723,935.115 472.593,934.193 472.593,933.173 C472.593,931.025 473.102,929.343 474.12,928.128 C475.139,926.913 476.526,926.306 478.281,926.306 C479.256,926.306 480.003,926.436 480.523,926.696 L480.491,926.696 C481.076,926.978 481.78,927.51 482.604,928.291 C483.536,929.202 484.402,929.658 485.204,929.658 C486.461,929.658 487.566,928.79 488.519,927.054 C488.953,926.295 489.56,925.915 490.34,925.915 C491.271,925.915 491.737,926.219 491.737,926.826 C491.737,926.891 491.727,926.957 491.705,927.022 C491.705,927.043 491.694,927.065 491.672,927.087 C491.672,927.108 491.672,927.13 491.672,927.152 L491.672,927.25 L491.315,927.9 L491.315,927.868 L480.654,948.341 C480.437,948.796 480.209,949.144 479.971,949.382 C479.668,949.664 479.245,949.805 478.703,949.805 C477.815,949.805 477.371,949.48 477.371,948.829 C477.371,948.59 477.457,948.33 477.631,948.048 L477.793,947.755 Z M485.269,942.873 C485.269,940.681 485.778,938.956 486.797,937.698 C487.837,936.439 489.245,935.81 491.022,935.81 C492.734,935.81 494.067,936.396 495.02,937.567 C495.995,938.717 496.483,940.366 496.483,942.515 C496.483,944.489 495.974,946.138 494.955,947.462 L494.988,947.429 C493.969,948.731 492.626,949.382 490.957,949.382 C489.159,949.382 487.761,948.807 486.764,947.657 C485.767,946.507 485.269,944.912 485.269,942.873 Z M480.523,933.141 C480.523,930.342 479.765,928.942 478.248,928.942 C476.58,928.942 475.745,930.363 475.745,933.206 C475.745,934.508 475.962,935.506 476.395,936.2 C476.829,936.895 477.425,937.242 478.183,937.242 C479.743,937.242 480.523,935.875 480.523,933.141 Z M493.33,942.58 C493.33,939.824 492.572,938.446 491.055,938.446 C490.231,938.446 489.581,938.826 489.105,939.585 C488.649,940.345 488.422,941.408 488.422,942.775 C488.422,944.012 488.639,944.988 489.072,945.704 C489.527,946.399 490.134,946.746 490.892,946.746 C491.651,946.746 492.247,946.377 492.68,945.639 C493.113,944.902 493.33,943.882 493.33,942.58 Z" id="Shape" fill="#B1B2BA" fill-rule="nonzero"></path>
            <path d="M471,902.025 C477.826,902.025 478.235,892.98 479.601,888.202 C480.554,884.864 482.263,881.32 485.334,881.32 C488.406,881.32 490.746,884.789 491.477,888.202 C492.58,893.348 492.843,902.025 499.668,902.025" id="Path" stroke="#B1B2BA" stroke-width="3"></path>
            <g id="Group" transform="translate(425.000000, 811.000000)" fill-rule="nonzero">
                <rect id="Rectangle" fill="#FFFFFF" x="0" y="0" width="411" height="65"></rect>
                <path d="M93.296,42 L97.02,42 L97.02,34.384 L99.82,34.384 C104.104,34.384 107.156,32.508 107.156,28.28 L107.156,28.168 C107.156,23.968 104.216,21.98 99.736,21.98 L93.296,21.98 L93.296,42 Z M97.02,31.696 L97.02,24.864 L99.736,24.864 C102.116,24.864 103.516,25.788 103.516,28.168 L103.516,28.28 C103.516,30.492 102.2,31.696 99.736,31.696 L97.02,31.696 Z M118.908,42.28 C122.66,42.28 125.152,40.6 125.628,37.52 L122.352,37.52 C122.1,38.948 121.036,39.76 118.992,39.76 C116.472,39.76 115.072,38.192 114.96,35.42 L125.684,35.42 L125.684,34.44 C125.684,29.204 122.408,27.048 118.768,27.048 C114.596,27.048 111.488,30.072 111.488,34.608 L111.488,34.832 C111.488,39.452 114.596,42.28 118.908,42.28 Z M115.016,33.152 C115.352,30.884 116.724,29.512 118.768,29.512 C120.868,29.512 122.156,30.632 122.324,33.152 L115.016,33.152 Z M131.511,42 L134.899,42 L134.899,34.384 C134.899,31.276 136.691,30.324 139.659,30.296 L139.659,27.132 C137.195,27.16 135.823,28.252 134.899,30.1 L134.899,27.356 L131.511,27.356 L131.511,42 Z M151.578,42.28 C155.554,42.28 158.102,39.9 158.354,36.54 L155.246,36.54 C155.05,38.612 153.51,39.676 151.718,39.676 C149.226,39.676 147.658,37.996 147.658,34.804 L147.658,34.58 C147.658,31.556 149.31,29.764 151.634,29.764 C153.426,29.764 154.714,30.576 154.994,32.536 L158.27,32.536 C157.878,28.504 154.826,27.048 151.578,27.048 C147.49,27.048 144.186,29.988 144.186,34.636 L144.186,34.86 C144.186,39.536 147.378,42.28 151.578,42.28 Z M170.511,42.28 C174.263,42.28 176.755,40.6 177.231,37.52 L173.955,37.52 C173.703,38.948 172.639,39.76 170.595,39.76 C168.075,39.76 166.675,38.192 166.563,35.42 L177.287,35.42 L177.287,34.44 C177.287,29.204 174.011,27.048 170.371,27.048 C166.199,27.048 163.091,30.072 163.091,34.608 L163.091,34.832 C163.091,39.452 166.199,42.28 170.511,42.28 Z M166.619,33.152 C166.955,30.884 168.327,29.512 170.371,29.512 C172.471,29.512 173.759,30.632 173.927,33.152 L166.619,33.152 Z M183.114,42 L186.502,42 L186.502,33.376 C186.502,31.052 188.042,29.876 189.946,29.876 C191.962,29.876 192.858,30.884 192.858,33.096 L192.858,42 L196.246,42 L196.246,32.788 C196.246,28.756 194.174,27.048 191.234,27.048 C188.826,27.048 187.202,28.252 186.502,29.68 L186.502,27.356 L183.114,27.356 L183.114,42 Z M207.933,42.252 C208.969,42.252 209.697,42.084 210.229,41.888 L210.229,39.2 C209.753,39.396 209.249,39.48 208.577,39.48 C207.513,39.48 206.897,38.892 206.897,37.604 L206.897,29.904 L210.117,29.904 L210.117,27.356 L206.897,27.356 L206.897,24.136 L203.509,24.136 L203.509,27.356 L201.549,27.356 L201.549,29.904 L203.509,29.904 L203.509,37.912 C203.509,40.684 205.021,42.252 207.933,42.252 Z M229.561,39.06 L229.561,24.92 L231.717,24.92 C236.421,24.92 238.381,27.524 238.381,31.836 L238.381,32.06 C238.381,36.484 236.225,39.06 231.745,39.06 L229.561,39.06 Z M225.837,42 L231.857,42 C238.885,42 242.273,37.856 242.273,32.032 L242.273,31.78 C242.273,25.956 238.885,21.98 231.913,21.98 L225.837,21.98 L225.837,42 Z M248.429,42 L251.817,42 L251.817,27.356 L248.429,27.356 L248.429,42 Z M250.081,24.948 C251.201,24.948 252.097,24.108 252.097,23.016 C252.097,21.896 251.201,21.056 250.081,21.056 C248.961,21.056 248.065,21.896 248.065,23.016 C248.065,24.108 248.961,24.948 250.081,24.948 Z M259.334,42 L262.722,42 L262.722,29.904 L266.054,29.904 L266.054,27.356 L262.722,27.356 L262.722,25.256 C262.722,23.996 263.282,23.1 264.654,23.1 C265.27,23.1 265.802,23.212 266.194,23.352 L266.194,20.72 C265.578,20.524 265.074,20.44 264.262,20.44 C261.126,20.44 259.334,22.176 259.334,25.396 L259.334,27.356 L257.346,27.356 L257.346,29.904 L259.334,29.904 L259.334,42 Z M272.279,42 L275.667,42 L275.667,29.904 L278.999,29.904 L278.999,27.356 L275.667,27.356 L275.667,25.256 C275.667,23.996 276.227,23.1 277.599,23.1 C278.215,23.1 278.747,23.212 279.139,23.352 L279.139,20.72 C278.523,20.524 278.019,20.44 277.207,20.44 C274.071,20.44 272.279,22.176 272.279,25.396 L272.279,27.356 L270.291,27.356 L270.291,29.904 L272.279,29.904 L272.279,42 Z M290.529,42.28 C294.281,42.28 296.773,40.6 297.249,37.52 L293.973,37.52 C293.721,38.948 292.657,39.76 290.613,39.76 C288.093,39.76 286.693,38.192 286.581,35.42 L297.305,35.42 L297.305,34.44 C297.305,29.204 294.029,27.048 290.389,27.048 C286.217,27.048 283.109,30.072 283.109,34.608 L283.109,34.832 C283.109,39.452 286.217,42.28 290.529,42.28 Z M286.637,33.152 C286.973,30.884 288.345,29.512 290.389,29.512 C292.489,29.512 293.777,30.632 293.945,33.152 L286.637,33.152 Z M303.131,42 L306.519,42 L306.519,34.384 C306.519,31.276 308.311,30.324 311.279,30.296 L311.279,27.132 C308.815,27.16 307.443,28.252 306.519,30.1 L306.519,27.356 L303.131,27.356 L303.131,42 Z M323.226,42.28 C326.978,42.28 329.47,40.6 329.946,37.52 L326.67,37.52 C326.418,38.948 325.354,39.76 323.31,39.76 C320.79,39.76 319.39,38.192 319.278,35.42 L330.002,35.42 L330.002,34.44 C330.002,29.204 326.726,27.048 323.086,27.048 C318.914,27.048 315.806,30.072 315.806,34.608 L315.806,34.832 C315.806,39.452 318.914,42.28 323.226,42.28 Z M319.334,33.152 C319.67,30.884 321.042,29.512 323.086,29.512 C325.186,29.512 326.474,30.632 326.642,33.152 L319.334,33.152 Z M335.829,42 L339.217,42 L339.217,33.376 C339.217,31.052 340.757,29.876 342.661,29.876 C344.677,29.876 345.573,30.884 345.573,33.096 L345.573,42 L348.961,42 L348.961,32.788 C348.961,28.756 346.889,27.048 343.949,27.048 C341.541,27.048 339.917,28.252 339.217,29.68 L339.217,27.356 L335.829,27.356 L335.829,42 Z M362.076,42.28 C366.052,42.28 368.6,39.9 368.852,36.54 L365.744,36.54 C365.548,38.612 364.008,39.676 362.216,39.676 C359.724,39.676 358.156,37.996 358.156,34.804 L358.156,34.58 C358.156,31.556 359.808,29.764 362.132,29.764 C363.924,29.764 365.212,30.576 365.492,32.536 L368.768,32.536 C368.376,28.504 365.324,27.048 362.076,27.048 C357.988,27.048 354.684,29.988 354.684,34.636 L354.684,34.86 C354.684,39.536 357.876,42.28 362.076,42.28 Z M381.009,42.28 C384.761,42.28 387.253,40.6 387.729,37.52 L384.453,37.52 C384.201,38.948 383.137,39.76 381.093,39.76 C378.573,39.76 377.173,38.192 377.061,35.42 L387.785,35.42 L387.785,34.44 C387.785,29.204 384.509,27.048 380.869,27.048 C376.697,27.048 373.589,30.072 373.589,34.608 L373.589,34.832 C373.589,39.452 376.697,42.28 381.009,42.28 Z M377.117,33.152 C377.453,30.884 378.825,29.512 380.869,29.512 C382.969,29.512 384.257,30.632 384.425,33.152 L377.117,33.152 Z" id="Shape" fill="#18A0FB"></path>
                <path d="M52.793,41.84 L60.854,26.347 C60.746,26.39 60.627,26.412 60.497,26.412 C60.367,26.412 60.247,26.412 60.139,26.412 C59.836,26.412 59.565,26.39 59.326,26.347 C59.11,26.304 58.882,26.228 58.644,26.119 C58.666,26.293 58.676,26.466 58.676,26.64 C58.676,26.813 58.676,26.987 58.676,27.161 C58.676,29.265 58.178,30.925 57.181,32.14 C56.184,33.356 54.819,33.963 53.086,33.963 C52.262,33.963 51.504,33.811 50.81,33.508 C50.139,33.182 49.564,32.726 49.088,32.14 C48.611,31.555 48.243,30.849 47.983,30.025 C47.723,29.2 47.593,28.278 47.593,27.258 C47.593,25.11 48.102,23.428 49.12,22.213 C50.139,20.998 51.526,20.391 53.281,20.391 C54.256,20.391 55.003,20.521 55.523,20.781 L55.491,20.781 C56.076,21.063 56.78,21.595 57.604,22.376 C58.536,23.287 59.402,23.743 60.204,23.743 C61.461,23.743 62.566,22.875 63.519,21.139 C63.953,20.38 64.56,20 65.34,20 C66.271,20 66.737,20.304 66.737,20.911 C66.737,20.976 66.727,21.042 66.705,21.107 C66.705,21.128 66.694,21.15 66.672,21.172 C66.672,21.193 66.672,21.215 66.672,21.237 L66.672,21.334 L66.315,21.985 L66.315,21.953 L55.654,42.426 C55.437,42.881 55.209,43.229 54.971,43.467 C54.668,43.749 54.245,43.89 53.703,43.89 C52.815,43.89 52.371,43.565 52.371,42.914 C52.371,42.675 52.457,42.415 52.631,42.133 L52.793,41.84 Z M60.269,36.958 C60.269,34.766 60.778,33.041 61.797,31.782 C62.837,30.524 64.245,29.895 66.022,29.895 C67.734,29.895 69.067,30.481 70.02,31.652 C70.995,32.802 71.483,34.451 71.483,36.6 C71.483,38.574 70.974,40.223 69.955,41.547 L69.988,41.514 C68.969,42.816 67.626,43.467 65.957,43.467 C64.159,43.467 62.761,42.892 61.764,41.742 C60.767,40.592 60.269,38.997 60.269,36.958 Z M55.523,27.226 C55.523,24.427 54.765,23.027 53.248,23.027 C51.58,23.027 50.745,24.448 50.745,27.291 C50.745,28.593 50.962,29.591 51.395,30.285 C51.829,30.98 52.425,31.327 53.183,31.327 C54.743,31.327 55.523,29.96 55.523,27.226 Z M68.33,36.665 C68.33,33.909 67.572,32.531 66.055,32.531 C65.231,32.531 64.581,32.911 64.105,33.67 C63.649,34.43 63.422,35.493 63.422,36.86 C63.422,38.097 63.639,39.073 64.072,39.789 C64.527,40.484 65.134,40.831 65.892,40.831 C66.651,40.831 67.247,40.462 67.68,39.724 C68.113,38.986 68.33,37.967 68.33,36.665 Z" id="Shape" fill="#18A0FB"></path>
            </g>
            <polygon id="Path" stroke="#000000" stroke-width="4.5" fill="#000000" stroke-linecap="round" stroke-linejoin="round" points="694.5 857.908 718.434 915.317 726.931 890.317 751.948 881.826"></polygon>
            <line x1="729.465" y1="892.858" x2="749.447" y2="912.826" id="Path" stroke="#000000" stroke-width="6" stroke-linecap="round" stroke-linejoin="round"></line>
        </g>
    </g>
</svg>