<?xml version="1.0" standalone="no"?><!DOCTYPE svg PUBLIC "-//W3C//DTD SVG 1.1//EN"
        "http://www.w3.org/Graphics/SVG/1.1/DTD/svg11.dtd">
<svg class="icon" width="200px" height="200.00px" viewBox="0 0 1024 1024" version="1.1"
     xmlns="http://www.w3.org/2000/svg">
    <path fill="#007cac"
          d="M362.666667 554.666667a106.666667 106.666667 0 0 1 106.666666 106.666666v170.666667a106.666667 106.666667 0 0 1-106.666666 106.666667H192a106.666667 106.666667 0 0 1-106.666667-106.666667v-170.666667a106.666667 106.666667 0 0 1 106.666667-106.666666z m469.333333 0a106.666667 106.666667 0 0 1 106.666667 106.666666v170.666667a106.666667 106.666667 0 0 1-106.666667 106.666667h-170.666667a106.666667 106.666667 0 0 1-106.666666-106.666667v-170.666667a106.666667 106.666667 0 0 1 106.666666-106.666666z m-469.333333 64H192a42.666667 42.666667 0 0 0-42.666667 42.666666v170.666667a42.666667 42.666667 0 0 0 42.666667 42.666667h170.666667a42.666667 42.666667 0 0 0 42.666666-42.666667v-170.666667a42.666667 42.666667 0 0 0-42.666666-42.666666z m469.333333 0h-170.666667a42.666667 42.666667 0 0 0-42.666666 42.666666v170.666667a42.666667 42.666667 0 0 0 42.666666 42.666667h170.666667a42.666667 42.666667 0 0 0 42.666667-42.666667v-170.666667a42.666667 42.666667 0 0 0-42.666667-42.666666zM362.666667 85.333333a106.666667 106.666667 0 0 1 106.666666 106.666667v170.666667a106.666667 106.666667 0 0 1-106.666666 106.666666H192a106.666667 106.666667 0 0 1-106.666667-106.666666V192a106.666667 106.666667 0 0 1 106.666667-106.666667z m469.333333 0a106.666667 106.666667 0 0 1 106.666667 106.666667v170.666667a106.666667 106.666667 0 0 1-106.666667 106.666666h-170.666667a106.666667 106.666667 0 0 1-106.666666-106.666666V192a106.666667 106.666667 0 0 1 106.666666-106.666667zM362.666667 149.333333H192a42.666667 42.666667 0 0 0-42.666667 42.666667v170.666667a42.666667 42.666667 0 0 0 42.666667 42.666666h170.666667a42.666667 42.666667 0 0 0 42.666666-42.666666V192a42.666667 42.666667 0 0 0-42.666666-42.666667z m469.333333 0h-170.666667a42.666667 42.666667 0 0 0-42.666666 42.666667v170.666667a42.666667 42.666667 0 0 0 42.666666 42.666666h170.666667a42.666667 42.666667 0 0 0 42.666667-42.666666V192a42.666667 42.666667 0 0 0-42.666667-42.666667z"/>
</svg>