<?xml version="1.0" encoding="UTF-8"?>
<svg width="14911px" height="6810px" viewBox="0 0 14911 6810" version="1.1" xmlns="http://www.w3.org/2000/svg" xmlns:xlink="http://www.w3.org/1999/xlink">
    <title>architecture</title>
    <g id="architecture" stroke="none" stroke-width="1" fill="none" fill-rule="evenodd">
        <g id="Group-3" transform="translate(6109.000000, 285.000000)">
            <rect id="Rectangle" stroke="#979797" stroke-width="4" fill="#FFFFFF" x="2" y="2" width="2689" height="1342" rx="8"></rect>
            <g id="Group-2" transform="translate(1140.000000, 0.000000)">
                <text id="S" font-family="LucidaGrande, Lucida Grande" font-size="600" font-weight="normal" fill="#3F3F3F">
                    <tspan x="145.927734" y="672">S </tspan>
                </text>
                <g id="Group" fill="#007CAC" fill-rule="nonzero">
                    <path d="M505.58126,891 C497.429808,891 491.542649,889.507601 490.636932,888.761402 L58.6099743,828.319262 L65.8557094,828.319262 C45.4770794,828.319262 28.7213169,817.126273 16.4941388,795.486495 C-2.97877435,759.668931 0.191234776,709.67358 0.191234776,707.434982 L0.191234776,101.521185 C0.191234776,70.180816 6.53125302,45.5562405 18.3055726,27.6474583 C38.2313442,-2.20051199 66.7614263,0.0380857844 69.9314355,0.0380857844 L508.75127,55.2568309 C527.318466,56.7492294 563.547142,84.358602 563.547142,179.872107 L563.547142,318.665169 L534.111343,318.665169 L534.111343,178.379708 C534.111343,103.013583 507.392694,100.028786 506.486977,100.028786 L68.5728601,44.8100413 C68.5728601,44.8100413 49.5528054,43.3176428 38.6842027,59.7340264 C32.7970429,68.6884175 30.0798922,82.1200042 30.0798922,99.2825871 L30.0798922,712.658377 C30.0798922,714.896975 28.2684584,747.729742 39.1370611,767.130923 C45.4770794,778.323912 55.4399652,784.293506 68.5728601,784.293506 L496.524092,845.481845 C503.316968,847.720443 517.808439,849.959041 525.959891,838.019853 C531.84705,830.55786 534.564201,816.380074 534.564201,796.232694 L534.564201,657.439632 L564,657.439632 L564,792.501698 C564,827.573063 557.207123,853.690037 544.074228,870.106421 C531.394192,888.015203 516.449863,891 505.58126,891 Z" id="Path"></path>
                </g>
            </g>
            <text id="Project" font-family="PingFangSC-Regular, PingFang SC" font-size="240" font-weight="normal" fill="#1890FF">
                <tspan x="725" y="1264">Project</tspan>
                <tspan x="1521.08" y="1264" font-size="200">  </tspan>
            </text>
        </g>
        <rect id="Rectangle" stroke="#979797" stroke-width="4" fill="#FFFFFF" x="1855" y="2835" width="1818" height="1265" rx="8"></rect>
        <text id="Models" font-family="PingFangSC-Regular, PingFang SC" font-size="240" font-weight="normal" fill="#1890FF">
            <tspan x="2362" y="4020">Models</tspan>
        </text>
        <g id="model" transform="translate(2364.000000, 2833.000000)" fill="#0D87FF" fill-rule="nonzero">
            <path d="M451.077559,380.383397 L581.386296,453.136821 C601.218922,464.19849 613.463009,484.66039 613.463009,506.827449 L613.463009,652.246853 C613.463009,674.413912 601.218922,694.875812 581.33974,705.937481 L451.124114,778.690905 C431.366563,789.769698 406.728239,789.769698 386.970688,778.690905 L256.661951,705.937481 C236.650575,694.592039 224.467088,674.199082 224.584386,652.246853 L224.584386,506.827449 C224.584386,484.66039 236.829324,464.19849 256.708506,453.136821 L386.877577,380.383397 C406.635128,369.304604 431.273452,369.304604 451.031003,380.383397 L451.077559,380.383397 Z M482.083496,480.331911 L369.139946,480.331911 C358.284713,480.148411 347.895101,484.467208 340.741114,492.136854 C334.194383,498.831729 330.2132,507.386535 329.428137,516.446291 L329.19536,521.255712 L329.19536,621.07306 C329.19536,635.676211 332.919797,646.606714 340.461782,653.777123 C347.538212,660.554035 356.290639,664.445294 366.765618,665.407178 L372.166051,665.625788 L481.94383,665.625788 L481.94383,638.867918 L377.659596,638.867918 C373.05976,639.013054 368.593034,637.404494 365.275843,634.408273 C362.371193,631.452317 360.672729,627.627193 360.48063,623.608937 L360.247853,619.892566 L360.247853,522.829704 C360.247853,518.719836 361.784183,515.222075 364.763733,512.336422 C367.766475,509.484986 371.734461,507.706787 375.983599,507.308391 L379.568369,507.089781 L481.94383,507.089781 L482.083496,480.331911 L482.083496,480.331911 Z M226.494012,8.30909518 L356.849304,81.0625192 C376.681931,92.1241876 388.926017,112.586088 388.926017,134.753147 L388.926017,280.172551 C388.926017,302.33961 376.681931,322.80151 356.802749,333.863179 L226.587123,406.616603 C206.829572,417.695396 182.191247,417.695396 162.433697,406.616603 L32.078404,333.863179 C12.0670282,322.517737 -0.116458486,302.12478 0.000839382537,280.172551 L0.000839382537,134.753147 C0.000839382537,112.586088 12.2457773,92.1241876 32.078404,81.0625192 L162.387141,8.30909518 C182.144692,-2.76969839 206.783016,-2.76969839 226.540567,8.30909518 L226.494012,8.30909518 Z M675.61455,8.30909518 L805.923287,81.0625192 C825.755914,92.1241876 838,112.586088 838,134.753147 L838,280.172551 C838,302.33961 825.755914,322.80151 805.923287,333.863179 L675.61455,406.616603 C655.856999,417.695396 631.218675,417.695396 611.461124,406.616603 L481.152387,333.863179 C461.141011,322.517737 448.957524,302.12478 449.074822,280.172551 L449.074822,134.753147 C449.074822,112.586088 461.31976,92.1241876 481.198942,81.0625192 L611.461124,8.30909518 C631.218675,-2.76969839 655.856999,-2.76969839 675.61455,8.30909518 Z M677.709546,123.383756 L614.673451,123.383756 C603.64595,123.287543 593.071701,127.500559 585.483176,135.015479 C578.522282,141.408384 574.256444,149.948757 573.471867,159.062584 L573.192534,164.003171 L573.192534,267.187114 C573.192534,279.429277 577.196304,289.529061 585.110733,297.442745 C592.094052,304.438266 601.312033,308.373247 612.578455,309.247687 L617.559889,309.422575 L682.597869,309.422575 C691.908961,309.422575 700.3355,306.099703 707.784374,299.366513 C714.479973,293.406115 718.620178,285.349715 719.423239,276.718512 L719.702572,272.127701 L719.702572,234.963993 C719.702572,229.061522 716.629912,222.240888 710.577702,214.414649 C713.371029,210.173614 715.41947,206.632131 716.676467,203.702756 C718.399019,199.636609 719.376684,192.509922 719.656017,182.366416 L719.656017,158.800252 C719.765575,149.878315 715.758957,141.348312 708.668928,135.408977 C701.606869,128.883129 692.436084,124.745989 682.597869,123.647757 L677.709546,123.383756 L677.709546,123.383756 Z M197.164071,107.426891 C184.388428,106.994561 172.172394,112.364688 164.34247,121.855154 C159.035052,128.373065 154.913465,135.67133 152.144939,143.453827 L149.817166,150.27446 L105.868811,293.944984 L136.129861,294.07615 L155.822821,237.150094 L240.414095,237.150094 L258.850058,294.07615 L290.042217,294.07615 L242.090091,141.661225 C239.579814,133.150211 235.042796,125.286259 228.821785,118.663447 C221.372911,111.143262 210.851377,107.383169 197.164071,107.383169 L197.164071,107.426891 Z M671.191781,226.613089 C676.405993,226.613089 680.549429,228.14336 683.7152,231.2039 C685.966125,233.1717 687.566184,235.706517 688.324191,238.505476 L688.650079,241.128796 L688.650079,267.449446 C688.72706,271.190391 687.220099,274.807127 684.460088,277.505508 C680.875317,280.959547 675.800772,282.664706 669.189896,282.664706 L618.909998,282.664706 C610.297237,282.664706 605.408914,277.986451 604.477805,268.586218 L604.291583,264.869848 L604.291583,226.613089 L671.191781,226.613089 Z M197.862403,136.108529 C201.815795,136.0531 205.569861,137.735031 208.011493,140.655618 C209.873893,142.737296 211.453383,145.028425 212.713595,147.476252 L214.110259,150.974013 L232.546222,210.435946 L162.387141,210.435946 L181.195548,150.974013 C182.198058,147.623246 183.943215,144.509255 186.316648,141.836113 C188.962351,138.301957 193.262389,136.18509 197.862403,136.152251 L197.815847,136.152251 L197.862403,136.108529 Z M673.14711,150.187016 C678.407878,150.187016 682.411647,151.761009 685.15842,154.952715 C686.954211,157.067065 688.083187,159.611699 688.417302,162.298013 L688.650079,165.358554 L688.650079,185.820454 C688.790817,189.67026 687.20288,193.39849 684.273866,196.095127 C681.220029,198.678329 677.206346,200.029032 673.100555,199.855219 L604.291583,199.855219 L604.291583,163.128731 C604.291583,159.19375 606.153801,155.827156 609.785127,153.072669 C611.708899,151.658116 613.983575,150.725394 616.396003,150.361904 L618.816887,150.143294 L673.100555,150.143294 L673.100555,150.187016 L673.14711,150.187016 Z" id="Shape"></path>
        </g>
        <rect id="Rectangle" stroke="#979797" stroke-width="4" fill="#FFFFFF" x="11297" y="5306" width="1818" height="1265" rx="8"></rect>
        <text id="Insights" font-family="PingFangSC-Regular, PingFang SC" font-size="240" font-weight="normal" fill="#1890FF">
            <tspan x="11804" y="6491">Insights</tspan>
        </text>
        <rect id="Rectangle" stroke="#979797" stroke-width="4" fill="#FFFFFF" x="6547" y="2835" width="1818" height="1265" rx="8"></rect>
        <text id="Views" font-family="PingFangSC-Regular, PingFang SC" font-size="240" font-weight="normal" fill="#1890FF">
            <tspan x="7150" y="4020">Views</tspan>
        </text>
        <rect id="Rectangle" stroke="#979797" stroke-width="4" fill="#FFFFFF" x="11278" y="2835" width="1818" height="1265" rx="8"></rect>
        <rect id="Rectangle" stroke="#979797" stroke-width="4" fill="#FFFFFF" x="11278" y="2835" width="1818" height="1265" rx="8"></rect>
        <rect id="Rectangle" stroke="#979797" stroke-width="4" fill="#FFFFFF" x="11278" y="2835" width="1818" height="1265" rx="8"></rect>
        <text id="Dashboards" font-family="PingFangSC-Regular, PingFang SC" font-size="240" font-weight="normal" fill="#1890FF">
            <tspan x="11544" y="4020">Dashboards</tspan>
        </text>
        <rect id="Rectangle" stroke="#979797" stroke-width="4" fill="#FFFFFF" x="1855" y="5224" width="1818" height="1265" rx="8"></rect>
        <text id="Explores" font-family="PingFangSC-Regular, PingFang SC" font-size="240" font-weight="normal" fill="#1890FF">
            <tspan x="2362" y="6409">Explores</tspan>
        </text>
        <g id="model" transform="translate(2364.000000, 5222.000000)" fill="#0D87FF" fill-rule="nonzero">
            <path d="M451.077559,380.383397 L581.386296,453.136821 C601.218922,464.19849 613.463009,484.66039 613.463009,506.827449 L613.463009,652.246853 C613.463009,674.413912 601.218922,694.875812 581.33974,705.937481 L451.124114,778.690905 C431.366563,789.769698 406.728239,789.769698 386.970688,778.690905 L256.661951,705.937481 C236.650575,694.592039 224.467088,674.199082 224.584386,652.246853 L224.584386,506.827449 C224.584386,484.66039 236.829324,464.19849 256.708506,453.136821 L386.877577,380.383397 C406.635128,369.304604 431.273452,369.304604 451.031003,380.383397 L451.077559,380.383397 Z M482.083496,480.331911 L369.139946,480.331911 C358.284713,480.148411 347.895101,484.467208 340.741114,492.136854 C334.194383,498.831729 330.2132,507.386535 329.428137,516.446291 L329.19536,521.255712 L329.19536,621.07306 C329.19536,635.676211 332.919797,646.606714 340.461782,653.777123 C347.538212,660.554035 356.290639,664.445294 366.765618,665.407178 L372.166051,665.625788 L481.94383,665.625788 L481.94383,638.867918 L377.659596,638.867918 C373.05976,639.013054 368.593034,637.404494 365.275843,634.408273 C362.371193,631.452317 360.672729,627.627193 360.48063,623.608937 L360.247853,619.892566 L360.247853,522.829704 C360.247853,518.719836 361.784183,515.222075 364.763733,512.336422 C367.766475,509.484986 371.734461,507.706787 375.983599,507.308391 L379.568369,507.089781 L481.94383,507.089781 L482.083496,480.331911 L482.083496,480.331911 Z M226.494012,8.30909518 L356.849304,81.0625192 C376.681931,92.1241876 388.926017,112.586088 388.926017,134.753147 L388.926017,280.172551 C388.926017,302.33961 376.681931,322.80151 356.802749,333.863179 L226.587123,406.616603 C206.829572,417.695396 182.191247,417.695396 162.433697,406.616603 L32.078404,333.863179 C12.0670282,322.517737 -0.116458486,302.12478 0.000839382537,280.172551 L0.000839382537,134.753147 C0.000839382537,112.586088 12.2457773,92.1241876 32.078404,81.0625192 L162.387141,8.30909518 C182.144692,-2.76969839 206.783016,-2.76969839 226.540567,8.30909518 L226.494012,8.30909518 Z M675.61455,8.30909518 L805.923287,81.0625192 C825.755914,92.1241876 838,112.586088 838,134.753147 L838,280.172551 C838,302.33961 825.755914,322.80151 805.923287,333.863179 L675.61455,406.616603 C655.856999,417.695396 631.218675,417.695396 611.461124,406.616603 L481.152387,333.863179 C461.141011,322.517737 448.957524,302.12478 449.074822,280.172551 L449.074822,134.753147 C449.074822,112.586088 461.31976,92.1241876 481.198942,81.0625192 L611.461124,8.30909518 C631.218675,-2.76969839 655.856999,-2.76969839 675.61455,8.30909518 Z M677.709546,123.383756 L614.673451,123.383756 C603.64595,123.287543 593.071701,127.500559 585.483176,135.015479 C578.522282,141.408384 574.256444,149.948757 573.471867,159.062584 L573.192534,164.003171 L573.192534,267.187114 C573.192534,279.429277 577.196304,289.529061 585.110733,297.442745 C592.094052,304.438266 601.312033,308.373247 612.578455,309.247687 L617.559889,309.422575 L682.597869,309.422575 C691.908961,309.422575 700.3355,306.099703 707.784374,299.366513 C714.479973,293.406115 718.620178,285.349715 719.423239,276.718512 L719.702572,272.127701 L719.702572,234.963993 C719.702572,229.061522 716.629912,222.240888 710.577702,214.414649 C713.371029,210.173614 715.41947,206.632131 716.676467,203.702756 C718.399019,199.636609 719.376684,192.509922 719.656017,182.366416 L719.656017,158.800252 C719.765575,149.878315 715.758957,141.348312 708.668928,135.408977 C701.606869,128.883129 692.436084,124.745989 682.597869,123.647757 L677.709546,123.383756 L677.709546,123.383756 Z M197.164071,107.426891 C184.388428,106.994561 172.172394,112.364688 164.34247,121.855154 C159.035052,128.373065 154.913465,135.67133 152.144939,143.453827 L149.817166,150.27446 L105.868811,293.944984 L136.129861,294.07615 L155.822821,237.150094 L240.414095,237.150094 L258.850058,294.07615 L290.042217,294.07615 L242.090091,141.661225 C239.579814,133.150211 235.042796,125.286259 228.821785,118.663447 C221.372911,111.143262 210.851377,107.383169 197.164071,107.383169 L197.164071,107.426891 Z M671.191781,226.613089 C676.405993,226.613089 680.549429,228.14336 683.7152,231.2039 C685.966125,233.1717 687.566184,235.706517 688.324191,238.505476 L688.650079,241.128796 L688.650079,267.449446 C688.72706,271.190391 687.220099,274.807127 684.460088,277.505508 C680.875317,280.959547 675.800772,282.664706 669.189896,282.664706 L618.909998,282.664706 C610.297237,282.664706 605.408914,277.986451 604.477805,268.586218 L604.291583,264.869848 L604.291583,226.613089 L671.191781,226.613089 Z M197.862403,136.108529 C201.815795,136.0531 205.569861,137.735031 208.011493,140.655618 C209.873893,142.737296 211.453383,145.028425 212.713595,147.476252 L214.110259,150.974013 L232.546222,210.435946 L162.387141,210.435946 L181.195548,150.974013 C182.198058,147.623246 183.943215,144.509255 186.316648,141.836113 C188.962351,138.301957 193.262389,136.18509 197.862403,136.152251 L197.815847,136.152251 L197.862403,136.108529 Z M673.14711,150.187016 C678.407878,150.187016 682.411647,151.761009 685.15842,154.952715 C686.954211,157.067065 688.083187,159.611699 688.417302,162.298013 L688.650079,165.358554 L688.650079,185.820454 C688.790817,189.67026 687.20288,193.39849 684.273866,196.095127 C681.220029,198.678329 677.206346,200.029032 673.100555,199.855219 L604.291583,199.855219 L604.291583,163.128731 C604.291583,159.19375 606.153801,155.827156 609.785127,153.072669 C611.708899,151.658116 613.983575,150.725394 616.396003,150.361904 L618.816887,150.143294 L673.100555,150.143294 L673.100555,150.187016 L673.14711,150.187016 Z" id="Shape"></path>
        </g>
        <rect id="Rectangle" stroke="#979797" stroke-width="4" fill="#FFFFFF" x="5870" y="5224" width="3365" height="1265" rx="8"></rect>
        <text id="Governance" font-family="PingFangSC-Regular, PingFang SC" font-size="240" font-weight="normal" fill="#1890FF">
            <tspan x="6847" y="6405">Governance</tspan>
        </text>
        <g id="Group" transform="translate(7777.000000, 1183.000000)" fill-rule="nonzero">
            <path d="M213.191409,7.09189223 L212.435361,6.63285146 L212.580136,6.60119348 C191.322308,-6.19654649 163.565682,0.170665509 150.24234,20.8829014 L127.894677,55.7660424 L124.637234,60.5859704 L8.98194299,241.16311 L8.46718665,241.986218 C8.00068873,242.73018 7.71113829,243.549331 7.63070762,244.419925 L0.0219656072,330.090387 C-0.0906373401,331.352749 0.231085366,332.58741 0.954961456,333.628167 C2.6721564,336.109361 6.1065463,336.738563 8.62804801,335.064648 L83.6497616,291.432031 C84.4862407,290.957162 85.1578368,290.264643 85.6404209,289.441536 L86.0425743,288.824205 L201.617435,108.25498 L218.922095,81.2428049 L227.045593,68.5716968 C240.260354,47.8001022 234.095342,20.4238607 213.191409,7.09189223 Z M131.140055,70.9302166 L155.623153,86.1260489 L54.0472511,244.637574 C49.9050713,235.033333 40.1448087,228.966872 29.548067,229.425913 L131.140055,70.9302166 L131.140055,70.9302166 Z M12.0302656,320.672137 L13.5865992,302.820991 L15.4807417,303.169229 C19.7433737,304.227422 23.551543,306.596688 26.3509476,309.932166 C26.753101,310.422864 27.1552544,310.929392 27.521214,311.463621 L12.0302656,320.672137 L12.0302656,320.672137 Z M77.0021662,282.789402 L37.0924645,305.963046 C32.7326024,299.31764 25.9638724,294.556076 18.1631047,292.646906 C16.9606661,292.346156 15.754206,292.12455 14.5356812,291.96626 L18.5652581,246.517267 C20.6684457,243.358248 23.9583603,241.14833 27.7142476,240.371661 C35.5481955,238.761061 43.2373682,243.687834 44.8942401,251.412382 C45.6985469,255.092623 45.0229292,258.915325 43.0161838,262.124653 C42.8714086,262.314601 42.7427195,262.520378 42.6462027,262.726154 C41.315075,265.239007 42.2923077,268.349404 44.8620678,269.66321 C44.9746708,269.726526 45.1033599,269.805671 45.2159628,269.868987 C47.8178952,271.242152 51.0431653,270.280541 52.4386376,267.73603 C54.4704317,264.605272 57.6810616,262.395181 61.3664427,261.590424 C64.9616939,260.798975 68.7178065,261.400476 71.8988398,263.232682 C78.7837057,267.245332 81.0800015,276.014593 77.0021662,282.789402 L77.0021662,282.789402 Z M88.0010613,265.587245 C83.810623,255.919688 73.9538436,249.869056 63.2927574,250.42307 L164.868659,91.9234172 L189.576963,107.087591 L88.0010613,265.587245 L88.0010613,265.587245 Z M201.906986,87.5625299 L195.227218,97.9582203 L136.902913,61.7494013 L149.313366,42.3984587 L207.718102,78.7497386 L201.906986,87.5625299 L201.906986,87.5625299 Z M217.719657,62.7782858 L213.513132,69.3987617 L155.188827,33.2374296 L159.314921,26.7277567 C169.477337,10.9145938 190.702992,6.12632372 206.853472,16.0154864 C222.9195,26.0154521 227.785556,46.9018069 217.719657,62.7782858 L217.719657,62.7782858 Z" id="Shape" fill="#000000"></path>
            <path d="M28,311.714697 L12,321 L13.6074766,303 L15.5638629,303.351142 C19.9665703,304.418159 23.8998808,306.807181 26.7912773,310.170472 C27.2024922,310.665263 27.6178609,311.172024 28,311.714697 Z" id="Path" fill="#B4B6BC"></path>
            <path d="M76.9276861,283.007317 L36.6288688,306 C32.2765004,299.324648 25.4891058,294.522519 17.6473365,292.570435 C16.4369551,292.265398 15.2265737,292.035629 14,291.873207 L18.2990803,246.394916 C20.4325437,243.241329 23.7580688,241.045604 27.5449365,240.290208 C35.4387279,238.717483 43.154403,243.693157 44.7776904,251.433974 C45.5670695,255.122153 44.8667486,258.945023 42.8305552,262.145934 C42.6848236,262.336087 42.5552845,262.538125 42.4540821,262.744124 C41.0979692,265.251768 42.0695127,268.373449 44.6481513,269.696598 C44.761498,269.759982 44.8910372,269.839213 45.0043839,269.902597 C47.6154072,271.293092 50.8700782,270.342326 52.2869125,267.806951 C54.3464791,264.681515 57.5910566,262.485391 61.3060752,261.702243 C64.9291231,260.929746 68.7100468,261.551705 71.8999482,263.401737 C78.8060036,267.454375 81.0688905,276.241035 76.9276861,283.007317 L76.9276861,283.007317 Z" id="Path" fill="#FFEA8F"></path>
            <path d="M190,107.193529 L88.6526973,266 C84.4716897,256.313729 74.6370932,250.251384 64,250.806471 L165.347303,92 L190,107.193529 Z" id="Path" fill="#ED8D22"></path>
            <path d="M156,86.2250495 L54.4845933,245 C50.3448804,235.379798 40.5904306,229.303255 30,229.763059 L131.531483,71 L156,86.2250495 L156,86.2250495 Z" id="Path" fill="#FFEA8F"></path>
            <polygon id="Path" fill="#80D8FF" points="208 79.6393162 202.173718 88.5219373 195.476518 99 137 62.5042735 149.442842 43"></polygon>
            <path d="M217.740443,63.3263339 L213.519818,70 L155,33.5481406 L159.139925,26.9861676 C169.336407,11.0459586 190.633215,6.21921859 206.837834,16.1878328 C222.957717,26.2681402 227.840085,47.3223002 217.740443,63.3263339 L217.740443,63.3263339 Z" id="Path" fill="#FD5E7A"></path>
        </g>
        <g id="Group" transform="translate(11741.000000, 2833.000000)" fill="#0D87FF" fill-rule="nonzero">
            <path d="M893.494311,496.269135 C785.640045,495.85962 677.780916,496.067097 569.925678,496.067097 L552.832631,496.067097 C554.386898,513.593866 556.371068,530.380089 557.244493,547.205166 C558.367883,568.873707 571.0977,584.106571 594.803676,594.152507 C604.417178,598.225897 613.587159,602.979999 622.832033,607.58335 C625.606954,608.962646 628.538468,610.547864 630.396197,612.614865 C635.596864,618.401691 632.198485,623.703626 623.202606,623.837282 C609.270615,624.04165 595.330843,623.919651 581.394962,623.918097 C491.718229,623.914211 402.038577,623.912657 312.358926,623.871473 C307.091147,623.869141 300.444175,625.184718 298.666203,619.449179 C296.946588,613.906352 301.743612,610.522998 307.241905,607.892623 C319.188752,602.179619 331.165751,596.506246 343.05035,590.713204 C361.400038,581.772259 371.45706,568.718294 373.075521,551.568403 C374.782491,533.483699 376.470009,515.398218 378.281051,496.071759 L366.532621,496.071759 C255.95012,496.070982 145.364702,496.074868 34.7812287,496.067874 C10.6171422,496.06632 0,487.535667 0,468.123731 C0,331.379965 0,163.586116 0,26.84235 C0.010582798,9.3513262 11.2318461,0.212229335 32.7766327,0.210675199 C319.688685,0.195133839 606.600738,0.277503048 893.510846,4.47604662e-05 C911.346984,-0.0162286599 923.911453,4.40218004 931,17.6317629 L931,478.639793 C923.877411,491.837516 911.333367,496.33674 893.494311,496.269912 L893.494311,496.269135 Z M886.717006,51.1746806 L44.1330919,51.1746806 L44.1330919,441.515369 L886.717006,441.515369 L886.717006,51.1746806 Z M101.829663,327.298027 C101.829663,318.606522 101.940543,309.913462 101.793675,301.224287 C101.683768,294.703132 105.282509,291.230416 113.638396,291.228861 C126.027791,291.227307 138.421077,291.278594 150.810472,291.202667 C159.198457,291.151932 163.007286,294.682929 163.031602,301.047116 C163.099686,318.911909 163.086069,336.775149 162.984916,354.639942 C162.947956,361.060078 158.953353,364.427114 150.621782,364.363394 C138.534875,364.267815 126.442133,364.43877 114.356199,364.306668 C105.368101,364.206426 101.938598,361.370905 101.831608,354.093663 C101.698357,345.163598 101.798539,336.22887 101.798539,327.29725 L101.829663,327.29725 L101.829663,327.298027 Z M278.261342,314.950417 C278.266205,302.382896 278.186449,289.812266 278.295384,277.247077 C278.364441,269.468626 281.617897,266.919843 291.404527,266.853792 C303.202561,266.773754 315.004486,266.743448 326.801548,266.863894 C335.919007,266.957142 339.488569,269.617823 339.530392,276.944797 C339.678232,302.804066 339.605285,328.665667 339.511912,354.525713 C339.490514,360.919429 335.510501,364.383598 327.188656,364.347853 C315.086188,364.295012 302.983719,364.434884 290.884168,364.304337 C281.867864,364.204872 278.355687,361.351479 278.29052,354.102988 C278.167969,341.052908 278.255506,328.000497 278.261342,314.950417 L278.261342,314.950417 Z M251.063614,303.299836 C251.065559,319.981932 251.131698,336.664805 251.038325,353.347678 C250.992612,361.755554 247.956052,364.22663 237.681161,364.314439 C226.181724,364.413127 214.678398,364.401471 203.177016,364.312885 C193.725944,364.241395 190.240029,361.813057 190.205014,354.487637 C190.045502,320.397663 190.027022,286.304581 190.161245,252.214608 C190.190424,244.88064 193.692875,242.413449 203.126439,242.330303 C214.929632,242.226028 226.733914,242.227064 238.537077,242.333411 C247.614658,242.413449 250.977049,245.1192 251.025681,252.525435 C251.136561,269.449976 251.059723,286.372963 251.064586,303.299059 L251.063614,303.299836 Z M795.469471,170.153118 C757.273213,193.012904 719.51853,215.606157 680.698814,238.839713 L680.698814,121.082827 C715.45098,118.398834 775.151174,143.672194 795.469471,170.153118 L795.469471,170.153118 Z M366.636693,291.728516 C366.636693,271.16652 366.613349,250.606077 366.647392,230.046412 C366.663926,220.049432 369.564317,217.795157 382.268845,217.773399 C392.868596,217.753196 403.467374,217.712788 414.064208,217.793603 C423.877099,217.87131 427.467086,220.515672 427.484593,228.068774 C427.57213,270.159439 427.587692,312.250105 427.509882,354.337663 C427.497238,361.548854 423.92573,364.242949 414.710036,364.331534 C402.90422,364.44654 391.091596,364.441878 379.283835,364.328426 C370.213063,364.242949 366.793286,361.562841 366.743682,354.137179 C366.603623,333.334291 366.695051,312.530627 366.695051,291.728516 L366.636693,291.728516 L366.636693,291.728516 Z M308.191195,214.718745 L394.430644,136.456341 C381.292322,136.456341 370.549594,136.322685 359.812702,136.504519 C352.558807,136.624964 346.987567,135.060726 346.302834,128.572209 C345.745515,123.315343 351.077488,120.310421 360.304854,120.296434 C378.172116,120.272345 396.041324,120.257581 413.910532,120.330625 C424.396485,120.372587 427.460278,122.776835 427.515718,131.082138 C427.614131,145.83866 427.445688,160.596735 427.614131,175.354811 C427.67912,181.080248 424.899336,185.217358 417.551096,185.230568 C410.275803,185.245333 407.183804,181.185152 407.280095,175.45039 C407.415291,167.541392 407.315109,159.627732 407.315109,149.820356 C402.907138,153.641977 399.910457,156.144913 397.047026,158.74032 C371.418155,181.970768 345.843751,205.24007 320.18181,228.445652 C312.097287,235.757862 308.630824,235.973886 298.887963,229.782209 C273.065538,213.372086 247.323841,196.884257 220.989811,180.069283 C218.505707,181.811469 216.03522,183.441758 213.704792,185.192492 C184.140649,207.401873 154.599849,229.63068 125.046405,251.846278 C122.842419,253.501432 120.732779,255.282472 118.291471,256.682749 C113.428308,259.470092 107.684912,259.596754 104.781603,255.535796 C102.880106,252.880555 103.804107,248.53286 104.713519,245.158053 C105.192054,243.384784 108.328794,242.051335 110.311993,240.557811 C143.377613,215.674539 176.444207,190.79049 209.52539,165.921982 C218.324798,159.308357 220.986893,159.215885 230.443801,165.245933 C253.635255,180.031983 276.791694,194.852224 299.972448,209.647599 C302.553815,211.296538 305.203267,212.878648 308.191195,214.718745 L308.191195,214.718745 Z M764.089423,349.182594 L687.643412,254.528716 C727.610834,230.621442 767.011211,207.0553 806.438822,183.469732 C846.452931,231.392293 834.05381,310.131041 764.089423,349.182594 L764.089423,349.182594 Z M660.051767,130.072727 C660.051767,153.614002 660.055658,176.560043 660.049822,199.504531 C660.04885,214.018607 659.781376,228.536568 660.202526,243.040543 C660.308543,246.65624 661.661475,250.720306 664.070686,253.750094 C686.624092,282.108414 709.529592,310.283346 732.328102,338.516558 C735.092324,341.937211 737.817641,345.378069 740.550739,348.801053 C700.064904,369.339738 634.311043,371.685706 583.377188,342.289223 C531.621457,312.420283 509.65163,259.766932 528.839728,211.629123 C547.403395,165.063322 602.27155,130.659413 660.051767,130.072727 Z" id="Shape"></path>
        </g>
        <g id="sharevariant" transform="translate(12702.000000, 3468.000000)" fill="#FA6400" fill-rule="nonzero">
            <path d="M276.624997,215.629247 C262.636437,215.629247 250.003169,220.190142 240.419311,227.463465 L109.004286,163.811842 C109.996554,160.376101 110.6742,156.8399 110.6742,153.142962 C110.6742,149.446025 109.996554,145.909823 109.004286,142.453991 L239.015615,79.4854973 C248.914095,87.1204772 262.055597,91.9023858 276.624997,91.9023858 C299.018262,91.9105077 319.211074,80.7158238 327.782862,63.5409995 C336.354651,46.3661752 331.616305,26.5955896 315.77841,13.4528305 C299.940516,0.310071366 276.124002,-3.61501929 255.440008,3.50873433 C234.756014,10.632488 221.280417,27.401317 221.299998,45.9920456 C221.299998,49.6688913 221.977645,53.2251846 222.969913,56.6408334 L92.9343823,119.629419 C82.7517661,111.678554 69.3037968,107.245838 55.3249995,107.232622 C24.769846,107.232622 0,127.796377 0,153.163055 C0,178.529732 24.769846,199.093487 55.3249995,199.093487 C69.8943999,199.093487 83.0359024,194.311578 92.9343823,186.676599 L224.276802,250.288037 C223.405543,253.502766 222.824703,256.838046 222.824703,260.334064 C222.824705,278.401049 235.935346,294.688665 256.04211,301.600723 C276.148873,308.51278 299.291237,304.68778 314.676108,291.909618 C330.060979,279.131456 334.657928,259.917106 326.323039,243.227722 C317.988149,226.538337 298.363183,215.661303 276.600796,215.669431 L276.624997,215.629247 Z" id="Path" transform="translate(166.000000, 152.500000) scale(1, -1) translate(-166.000000, -152.500000) "></path>
        </g>
        <g id="insights" transform="translate(11830.000000, 5304.000000)" fill-rule="nonzero">
            <path d="M684.909091,171 C635.543182,171 607.966364,220.32 619.201364,256.967501 L498.34,378.8975 C488.126364,375.815 473.146364,375.815 462.932727,378.8975 L376.116818,291.56 C387.692273,254.912501 360.115455,205.25 310.409091,205.25 C261.043182,205.25 233.12591,254.57 244.701364,291.56 L89.4540907,447.3975 C53.0254546,436.095 4,463.8375 4,513.5 C4,551.175 34.6409091,582 72.0909089,582 C121.456818,582 149.033636,532.68 137.798636,496.0325 L292.705454,339.8525 C302.919091,342.935 317.899091,342.935 328.112727,339.8525 L414.928636,427.19 C403.353182,463.8375 430.93,513.5 480.636364,513.5 C530.002273,513.5 557.919545,464.18 546.344091,427.19 L667.545909,305.6025 C703.974545,316.905 753,289.1625 753,239.5 C753,201.825001 722.359091,171 684.909091,171 Z" id="Path" fill="#0D87FF"></path>
            <path d="M478.470588,204 L510.596471,133.62 L581,102 L510.596471,70.3800001 L478.470588,1.70530257e-13 L447.028235,70.3800001 L375.941176,102 L447.028235,133.62 L478.470588,204 Z M85.441176,272 L102.529412,204 L170.882353,187 L102.529412,170 L85.441176,102 L68.3529409,170 L0,187 L68.3529409,204 L85.441176,272 Z" id="Shape" fill="#F7B500"></path>
        </g>
        <g id="datatable" transform="translate(7057.000000, 2833.000000)" fill="#0D87FF" fill-rule="nonzero">
            <path d="M825.840034,0 L12.1599665,0 C8.93494295,0 5.84200788,1.33092878 3.56157178,3.69999785 C1.28113568,6.06906692 0,9.28221421 0,12.6325839 L0,569.367416 C0,572.717786 1.28113568,575.930933 3.56157178,578.300002 C5.84200788,580.669071 8.93494295,582 12.1599665,582 L825.840034,582 C832.555798,582 838,576.3442 838,569.367416 L838,12.6325839 C838,5.65580048 832.555798,0 825.840034,0 Z M295.552026,417.55744 L295.552026,303.636795 L542.464188,303.636795 L542.464188,417.55744 L295.552026,417.55744 Z M542.456081,164.450982 L542.456081,278.371627 L295.552026,278.371627 L295.552026,164.450982 L542.456081,164.450982 L542.456081,164.450982 Z M271.232094,164.450982 L271.232094,278.371627 L24.3199321,278.371627 L24.3199321,164.450982 L271.232094,164.450982 L271.232094,164.450982 Z M271.232094,303.636795 L271.232094,417.55744 L24.3199321,417.55744 L24.3199321,303.636795 L271.232094,303.636795 L271.232094,303.636795 Z M295.552026,442.822609 L542.464188,442.822609 L542.464188,556.734831 L295.552026,556.734831 L295.552026,442.822609 Z M566.776013,417.55744 L566.776013,303.636795 L813.680068,303.636795 L813.680068,417.55744 L566.776013,417.55744 L566.776013,417.55744 Z M566.776013,278.371627 L566.776013,164.450982 L813.680068,164.450982 L813.680068,278.371627 L566.776013,278.371627 L566.776013,278.371627 Z M24.3199321,442.822609 L271.232094,442.822609 L271.232094,556.734831 L24.3199321,556.734831 L24.3199321,442.822609 Z M566.776013,556.743254 L566.776013,442.822609 L813.680068,442.822609 L813.680068,556.734831 L566.776013,556.734831 L566.776013,556.743254 Z" id="Shape"></path>
        </g>
        <g id="branch" transform="translate(7999.000000, 3489.000000)" fill="#6DD400" fill-rule="nonzero">
            <path d="M260.661157,52.5 C222.247934,52.5 192.066116,75.6 192.066116,105 C192.066116,128.1 211.272727,149.1 238.710744,155.4 C233.22314,182.7 211.272727,195.3 164.628099,199.5 C159.140496,199.5 159.140496,199.5 148.165289,201.6 C120.727273,203.7 104.264463,207.9 90.5454545,212.1 L90.5454545,102.9 C117.983471,96.6 139.933884,75.6 139.933884,52.5 C137.190083,23.1 107.008264,0 68.5950413,0 C30.1818182,0 0,23.1 0,52.5 C0,75.6 19.2066116,96.6 49.3884298,102.9 L49.3884298,233.1 C21.9504132,239.4 0,260.4 0,283.5 C0,312.9 30.1818182,336 68.5950413,336 C107.008264,336 137.190083,312.9 137.190083,283.5 C137.190083,266.7 126.214876,249.9 109.752066,241.5 C117.983471,237.3 131.702479,235.2 153.652893,233.1 C167.371901,231 167.371901,231 172.859504,231 C238.710744,222.6 274.380165,201.6 282.61157,155.4 C310.049587,149.1 332,128.1 332,105 C329.256198,75.6 299.07438,52.5 260.661157,52.5 Z M32.9256198,52.5 C32.9256198,37.8 49.3884298,25.2 68.5950413,25.2 C87.8016529,25.2 104.264463,37.8 104.264463,52.5 C104.264463,67.2 87.8016529,79.8 68.5950413,79.8 C49.3884298,79.8 32.9256198,67.2 32.9256198,52.5 L32.9256198,52.5 Z M68.5950413,310.8 C49.3884298,310.8 32.9256198,298.2 32.9256198,283.5 C32.9256198,268.8 49.3884298,256.2 68.5950413,256.2 C87.8016529,256.2 104.264463,268.8 104.264463,283.5 C104.264463,298.2 87.8016529,310.8 68.5950413,310.8 L68.5950413,310.8 Z M260.661157,132.3 C241.454545,132.3 224.991736,119.7 224.991736,105 C224.991736,90.3 241.454545,77.7 260.661157,77.7 C279.867769,77.7 296.330579,90.3 296.330579,105 C296.330579,119.7 279.867769,132.3 260.661157,132.3 Z" id="Shape"></path>
        </g>
        <path d="M12957.7005,6218.21945 L12957.7005,6235.64189 L12957.7005,6218.21945 Z M12957.7005,6152.52056 L12957.7005,6183.33167 L12957.7005,6152.52056 Z M12957.7005,6151.14736 L12957.7005,6153.29298 L12957.7005,6151.14736 Z M12923.1792,6274.82092 C12924.613,6277.56567 12924.6117,6280.97732 12923.1755,6283.72058 C12921.7394,6286.46385 12919.097,6288.10244 12916.2825,6287.99503 L12823.7644,6287.99503 C12819.5159,6287.99502 12816.0719,6284.09488 12816.0719,6279.28381 C12816.0719,6274.47273 12819.5159,6270.57259 12823.7644,6270.57259 L12839.1683,6270.57259 L12839.1683,6235.6848 L12761.8836,6235.6848 C12744.8554,6235.70852 12731.0314,6220.10179 12731,6200.81847 L12731,6043.84489 C12731.0314,6024.58181 12744.8353,6008.98814 12761.8457,6009.00001 L12970.5466,6009.00001 C12987.561,6009.00001 13001.3544,6024.59867 13001.3733,6043.84489 L13001.3733,6047.49244 L12956.9048,6038.07317 L12866.073,6057.64123 L12857.9826,6059.03588 L12857.9826,6089.28913 L12794.0555,6089.28913 L12802.828,6064.27119 C12803.1325,6063.42497 12802.8905,6062.45264 12802.2406,6061.91101 C12801.5911,6061.40077 12800.7302,6061.40077 12800.0807,6061.91101 L12756.5026,6099.7383 C12756.058,6100.10589 12755.795,6100.69187 12755.795,6101.31533 C12755.795,6101.93879 12756.058,6102.52476 12756.5026,6102.89236 L12800.0807,6140.71965 C12800.7302,6141.22989 12801.5911,6141.22989 12802.2406,6140.71965 C12802.8717,6140.18218 12803.1049,6139.23143 12802.809,6138.40238 L12794.0555,6113.38444 L12857.9826,6113.38444 L12857.9826,6183.33167 L12746.4039,6183.33167 L12746.4039,6200.79701 C12746.4039,6205.42145 12748.0274,6209.85617 12750.9167,6213.12413 C12753.8061,6216.39209 12757.7242,6218.22515 12761.8078,6218.21945 L12868.4792,6218.21945 C12870.1276,6220.92293 12871.8897,6223.5835 12873.8412,6226.22262 C12879.5841,6234.01945 12885.9732,6241.17557 12892.9208,6247.59299 L12895.4029,6249.73861 L12900.8786,6254.52335 L12900.8786,6270.46531 L12916.2825,6270.46531 C12919.1204,6270.33906 12921.7826,6272.02032 12923.1792,6274.82092 L12923.1792,6274.82092 Z M13029.5664,6080.06296 L12999.346,6073.6261 L12996.7692,6073.08969 L12956.9806,6064.67886 L12885.5505,6080.06296 L12881.4769,6080.74956 L12879.1843,6081.15723 L12879.1843,6181.14313 C12879.3109,6187.07645 12880.6743,6192.89185 12883.1631,6198.11499 C12885.4747,6203.26448 12888.2788,6208.07067 12891.5377,6212.49065 L12893.6598,6215.30141 C12893.6598,6215.43015 12893.8492,6215.53743 12893.944,6215.66616 C12898.3762,6221.23557 12903.2188,6226.36781 12908.4195,6231.00735 C12909.0258,6231.60812 12909.3858,6231.88705 12909.8784,6232.29472 C12914.8046,6236.62887 12919.9582,6240.59827 12925.3012,6244.20291 C12930.6443,6247.85047 12936.1957,6251.0689 12941.9177,6253.85821 C12946.4271,6256.11111 12951.1259,6257.89197 12955.9385,6259.13643 L12956.7911,6259.32954 L12957.6437,6259.50119 L12959.5384,6259.13643 L12960.4857,6258.90041 C12965.6677,6257.195 12970.744,6255.102 12975.6812,6252.6352 C12980.3801,6250.14628 12984.9463,6247.33552 12989.342,6244.22437 C12995.0261,6240.23352 13000.5018,6235.81354 13005.6932,6231.02881 C13010.8847,6226.28698 13015.6783,6221.03021 13020.0361,6215.32286 C13023.8634,6210.32357 13027.1412,6204.83078 13029.8506,6198.97324 L13030.2106,6198.1579 C13032.6737,6192.66511 13033.9621,6186.59301 13034,6180.43508 L13034,6081.15723 L13029.5664,6080.06296 L13029.5664,6080.06296 Z M13018.5772,6182.38759 C13018.5581,6187.08819 13017.5652,6191.71812 13015.6783,6195.905 C13013.632,6200.58245 13011.0173,6204.91661 13007.929,6208.77872 C13004.546,6213.05165 13000.8019,6216.93944 12996.7503,6220.38653 C12988.4617,6227.45277 12979.4228,6233.31319 12969.8455,6237.83042 C12965.6772,6239.82585 12961.3384,6241.43506 12956.9427,6242.61516 L12956.9427,6246.47727 L12956.9427,6153.529 L12894.7966,6153.529 L12894.7966,6090.87689 L12955.9953,6078.90432 L12956.8858,6079.11889 L12956.8858,6153.529 L13018.5203,6153.529 L13018.5772,6182.38759 L13018.5772,6182.38759 Z M12957.7005,6151.14736 L12957.7005,6246.47727 L12957.7005,6151.14736 L12957.7005,6151.14736 Z M12957.7005,6151.14736 L12957.7005,6153.29298 L12957.7005,6151.14736 Z M12957.7005,6151.14736 L12957.7005,6153.29298 L12957.7005,6151.14736 Z M12957.7384,6242.5937 L12957.7384,6246.45582 L12957.7384,6242.5937 Z M12957.7384,6151.14736 L12957.7384,6153.50754 L12957.7384,6151.14736 Z" id="Shape" fill="#B620E0" fill-rule="nonzero"></path>
        <g id="fields" transform="translate(6382.000000, 5439.000000)" fill="#0D87FF" fill-rule="nonzero">
            <path d="M11.8571429,0 C5.30862368,0 0,4.57309148 0,10.2142857 L0,418.785714 C0,424.426909 5.30862368,429 11.8571429,429 L486.142857,429 C492.691376,429 498,424.426909 498,418.785714 L498,10.2142857 C498,4.57309148 492.691376,0 486.142857,0 L11.8571429,0 Z M23.7142857,20.4285714 L474.285714,20.4285714 L474.285714,408.571429 L23.7142857,408.571429 L23.7142857,20.4285714 Z M189.714286,71.5 L189.714286,153.214286 L426.857143,153.214286 L426.857143,71.5 L189.714286,71.5 Z M213.428571,91.9285714 L403.142857,91.9285714 L403.142857,132.785714 L213.428571,132.785714 L213.428571,91.9285714 Z M71.1428571,102.142857 L71.1428571,122.571429 L166,122.571429 L166,102.142857 L71.1428571,102.142857 Z M189.714286,194.071429 L189.714286,275.785714 L426.857143,275.785714 L426.857143,194.071429 L189.714286,194.071429 L189.714286,194.071429 Z M213.428571,214.5 L403.142857,214.5 L403.142857,255.357143 L213.428571,255.357143 L213.428571,214.5 L213.428571,214.5 Z M71.1428571,224.714286 L71.1428571,245.142857 L166,245.142857 L166,224.714286 L71.1428571,224.714286 Z M189.714286,316.642857 L189.714286,377.928571 L260.857143,377.928571 L260.857143,316.642857 L189.714286,316.642857 Z M213.428571,337.071429 L237.142857,337.071429 L237.142857,357.5 L213.428571,357.5 L213.428571,337.071429 Z M284.571429,337.071429 L284.571429,357.5 L426.857143,357.5 L426.857143,337.071429 L284.571429,337.071429 Z" id="Shape"></path>
        </g>
        <g id="Group" transform="translate(7260.000000, 5439.000000)" fill="#3885F6" fill-rule="nonzero">
            <path d="M185.892882,408 C184.556359,408 183.161727,407.852051 181.825205,407.506836 C141.787631,398.087406 104.829872,380.037609 74.9033842,355.231467 C71.7654611,352.617698 70.1383898,348.968286 70.3708286,345.269557 C70.6032675,341.570828 72.7533258,338.069364 76.2399066,335.80081 C95.3579932,323.175816 100.645974,300.342329 88.5591598,282.637746 C76.4142354,264.883847 50.4973162,257.387757 28.125087,264.98248 C24.0574091,266.412655 19.4086341,266.264706 15.5152857,264.538633 C11.6219366,262.861875 8.71645228,259.80426 7.67047811,256.204164 C2.55682604,239.091378 0,221.534745 0,203.978111 C0,186.470794 2.55682604,168.914161 7.67047811,151.752059 C8.77456231,148.151963 11.6219366,145.094347 15.5152857,143.368273 C19.4086348,141.6422 23.9992998,141.494251 28.125087,142.924426 C50.4392061,150.617782 76.3561254,143.072375 88.5010497,125.318476 C100.587864,107.66321 95.2998831,84.7804063 76.1817966,72.1554117 C72.6952158,69.8375413 70.6032668,66.3853943 70.3127186,62.6866656 C70.0802797,58.9879369 71.707351,55.3385242 74.8452742,52.7247554 C104.771762,27.9186136 141.787631,9.81949948 181.767095,0.449386188 C186.067211,-0.487625304 190.541657,0.1041716 194.202567,2.12614354 C197.863477,4.19743161 200.304084,7.45231295 200.885181,11.1510422 C204.139324,31.4200767 224.826371,46.7081563 248.941891,46.7081563 C266.200467,46.7081563 290.780864,24.9103134 297.172929,15.3429351 C296.708051,13.3702798 296.824271,11.2496751 297.521587,9.17838698 C299.962194,2.37272585 308.446208,-1.42463625 316.407235,0.498702869 C316.407235,0.498702869 316.407235,0.498702869 316.465344,0.498702869 L316.465344,0.498702869 L316.465344,0.498702869 C358.188098,11.0524094 394.041774,28.6583594 423.038506,52.6754393 C426.17643,55.2892076 427.86161,58.9386202 427.629171,62.6373495 C427.396733,66.3360782 425.246674,69.7882252 421.760093,72.1060956 C402.700117,84.7310902 397.354026,107.564577 409.44084,125.26916 C421.585765,143.023059 447.560794,150.617782 469.874913,142.87511 C473.942591,141.444935 478.533256,141.592884 482.484714,143.318957 C486.436173,144.995714 489.283548,148.05333 490.329522,151.702743 C495.443174,168.864845 498,186.421479 498,203.879479 C498,221.33748 495.385064,238.894113 490.329522,256.105532 C489.225438,259.705628 486.378063,262.763244 482.484714,264.440001 C478.533256,266.166074 474.0007,266.314023 469.874913,264.883848 C447.560794,257.239808 421.585765,264.785215 409.44084,282.539114 C397.354026,300.19438 402.642007,323.077184 421.760093,335.702178 C425.246674,337.970732 427.338623,341.422879 427.629171,345.170924 C427.91972,348.91897 426.234539,352.519066 423.038506,355.132834 C393.170128,379.88966 356.212369,397.988774 316.116686,407.408204 C311.874679,408.394531 307.342124,407.802735 303.739323,405.731446 C300.078413,403.660158 297.637806,400.35596 296.9986,396.706548 C293.744457,376.437513 273.115519,361.149434 248.94189,361.149434 C224.826371,361.149434 204.139323,376.437513 200.88518,396.706548 C200.304083,400.405276 197.863477,403.660158 194.202566,405.731446 C191.761961,407.30957 188.856477,408 185.892882,408 Z M107.677246,345.664088 C127.725088,360.015156 150.678413,371.259293 175.25881,378.706067 C186.648308,353.258812 215.81937,335.455596 249.05811,335.455596 C282.29685,335.455596 311.467912,353.258811 322.85741,378.706067 C347.495916,371.259293 370.391133,360.015156 390.438974,345.664088 C370.158694,324.458042 366.555893,294.128465 383.233373,269.716854 C399.852743,245.354559 432.626605,232.976147 464.238274,237.069407 C466.562661,226.121169 467.666745,215.024982 467.666745,204.027428 C467.666745,193.029874 466.504552,181.983003 464.238274,170.985449 C432.742825,175.325291 399.910853,162.700297 383.233373,138.338002 C366.555893,113.975708 370.158694,83.6461303 390.438974,62.4400844 C370.85601,48.4342308 348.077013,37.3873602 322.508752,29.447422 C309.550292,47.4972194 278.229172,72.5992597 249.05811,72.5992597 C215.87748,72.5992597 186.706418,54.7960446 175.25881,29.3487891 C150.678413,36.7462472 127.725088,47.9903829 107.677246,62.4400838 C127.957526,83.6461297 131.560327,113.975707 114.882847,138.338002 C98.2053674,162.700296 65.6639442,175.226658 33.9360563,170.985449 C31.6116691,181.933687 30.4494755,192.980557 30.4494755,204.027427 C30.4494755,215.074298 31.6116691,226.121168 33.9360563,237.069406 C65.4896154,232.828197 98.2634775,245.354559 114.940957,269.76617 C131.502217,294.079148 127.957526,324.458042 107.677246,345.664088 Z" id="Shape"></path>
            <path d="M249,271 C205.459897,271 170,240.937477 170,203.975359 C170,167.013241 205.459897,137 249,137 C292.540103,137 328,167.062523 328,203.975359 C328,240.888194 292.540103,271 249,271 Z M249,162.8242 C222.201619,162.8242 200.402502,181.305259 200.402502,204.024641 C200.402502,226.744023 222.201619,245.225083 249,245.225083 C275.798381,245.225083 297.539367,226.744023 297.539367,204.024641 C297.539367,181.305259 275.798381,162.8242 249,162.8242 Z" id="Shape"></path>
        </g>
        <g id="FieldSettings" transform="translate(8138.000000, 5428.000000)" fill="#0D87FF" fill-rule="nonzero">
            <path d="M404.556506,176.15154 C404.556506,163.482304 394.02547,153.159223 381.153483,153.159223 L303.376851,153.159223 C290.504863,153.159223 279.973827,163.571682 279.973827,176.15154 L279.973827,199.238821 L0,199.238821 L0,229.811453 L280.142427,229.811453 L280.142427,252.803771 C280.142427,265.473007 290.673464,275.796088 303.545451,275.796088 L381.328568,275.796088 C394.200555,275.796088 404.731591,265.38363 404.731591,252.803771 L404.731591,229.811453 L498,229.811453 L498,199.238821 L404.556506,199.238821 L404.556506,176.15154 L404.556506,176.15154 Z M311.288097,245.167596 L311.288097,183.832404 L373.579437,183.832404 L373.579437,245.167596 L311.288097,245.167596 Z M217.851088,45.984635 L217.851088,22.9923175 C217.851088,10.3230813 207.320052,0 194.448064,0 L116.671432,0 C103.799445,0 93.2684089,10.3174952 93.2684089,22.9923175 L93.2684089,45.984635 L0,45.984635 L0,76.6522305 L93.4370093,76.6522305 L93.4370093,99.644548 C93.4370093,112.313784 103.968046,122.636866 116.840033,122.636866 L194.623149,122.636866 C207.495137,122.636866 218.026173,112.31937 218.026173,99.644548 L218.026173,76.6522305 L498,76.6522305 L498,45.984635 L217.851088,45.984635 Z M124.582679,91.9189953 L124.582679,30.6731816 L186.874019,30.6731816 L186.874019,91.9189953 L124.582679,91.9189953 Z M217.851088,352.347769 L217.851088,329.355452 C217.851088,316.686216 207.320052,306.363134 194.448064,306.363134 L116.671432,306.363134 C103.799445,306.363134 93.2684089,316.775593 93.2684089,329.355452 L93.2684089,352.347769 L0,352.347769 L0,383.015365 L93.4370093,383.015365 L93.4370093,406.007682 C93.4370093,418.676919 103.968046,429 116.840033,429 L194.623149,429 C207.495137,429 218.026173,418.587541 218.026173,406.007682 L218.026173,383.015365 L498,383.015365 L498,352.347769 L217.851088,352.347769 Z M124.582679,398.326818 L124.582679,337.081005 L186.874019,337.081005 L186.874019,398.326818 L124.582679,398.326818 L124.582679,398.326818 Z" id="Shape"></path>
        </g>
        <line x1="7503.5" y1="1631.5" x2="7503.5" y2="2833.5" id="Line" stroke="#979797" stroke-width="10" stroke-linecap="square"></line>
        <line x1="7504.5" y1="4102.5" x2="7513.5" y2="5222.5" id="Line" stroke="#979797" stroke-width="10" stroke-linecap="square"></line>
        <line x1="12262.5" y1="4102" x2="12262.5" y2="5304" id="Line" stroke="#979797" stroke-width="10" stroke-linecap="square"></line>
        <line x1="2764.5" y1="4102.5" x2="2764.5" y2="5222.5" id="Line" stroke="#979797" stroke-width="10" stroke-linecap="square"></line>
        <polyline id="Line-2" stroke="#979797" stroke-width="10" stroke-linecap="square" points="2769.63944 2833 2764 2232 12263 2232 12263 2833"></polyline>
    </g>
</svg>