<?xml version="1.0" encoding="UTF-8"?>
<svg width="4826px" height="2005px" viewBox="0 0 4826 2005" version="1.1" xmlns="http://www.w3.org/2000/svg" xmlns:xlink="http://www.w3.org/1999/xlink">
    <title>bg-main</title>
    <defs>
        <linearGradient x1="11.6740604%" y1="48.9126092%" x2="116.379353%" y2="51.8843704%" id="linearGradient-1">
            <stop stop-color="#007AFF" offset="0%"></stop>
            <stop stop-color="#32C5FF" offset="100%"></stop>
            <stop stop-color="#C0F7FF" offset="100%"></stop>
            <stop stop-color="#CBFFFF" offset="100%"></stop>
        </linearGradient>
    </defs>
    <g id="bg-main" stroke="none" stroke-width="1" fill="none" fill-rule="evenodd">
        <rect id="Rectangle-1" fill="url(#linearGradient-1)" x="0" y="0" width="4826" height="2005"></rect>
        <g id="Group" transform="translate(4346.000000, 372.000000)" fill="#E6E6E6" fill-rule="nonzero">
            <path d="M194.177976,113.233054 L200.088891,108.466264 L206,113.233054 L200.088891,118 L194.177976,113.233054 Z M0,52.6862816 L7.99747464,45 L17.5286183,51.4496286 L9.53114368,59.1357535 L0,52.6862816 Z" id="Shape"></path>
            <path d="M230,20.5 C229.999716,21.7503558 230.857349,22.9058269 232.24977,23.5310687 C233.642192,24.1563104 235.357808,24.1563104 236.75023,23.5310687 C238.142651,22.9058269 239.000284,21.7503558 239,20.5 C239.000284,19.2496442 238.142651,18.0941731 236.75023,17.4689313 C235.357808,16.8436896 233.642192,16.8436896 232.24977,17.4689313 C230.857349,18.0941731 229.999716,19.2496442 230,20.5 L230,20.5 Z" id="Path"></path>
            <path d="M18,24 C18,25.0717968 18.6670962,26.0621778 19.75,26.5980762 C20.8329038,27.1339746 22.1670962,27.1339746 23.25,26.5980762 C24.3329038,26.0621778 25,25.0717968 25,24 C25,22.9282032 24.3329038,21.9378222 23.25,21.4019238 C22.1670962,20.8660254 20.8329038,20.8660254 19.75,21.4019238 C18.6670962,21.9378222 18,22.9282032 18,24 L18,24 Z" id="Path"></path>
            <path d="M153,94 C153,95.6568542 154.567003,97 156.5,97 C158.432997,97 160,95.6568542 160,94 C160,92.3431458 158.432997,91 156.5,91 C154.567003,91 153,92.3431458 153,94 Z" id="Path"></path>
            <path d="M250.906947,41.8012834 C233.207142,41.8012834 218.813895,53.3120748 218.813895,67.4672371 C218.813895,81.6223994 233.207143,93.1331909 250.906947,93.1331909 C268.606752,93.1331909 283,81.6223995 283,67.4672371 C283,53.3120747 268.606752,41.8012834 250.906947,41.8012834 Z M250.906947,91.5776785 C234.282746,91.5776785 220.758928,80.7622011 220.758928,67.4672371 C220.758928,54.1722731 234.282746,43.3567957 250.906947,43.3567957 C267.531148,43.3567957 281.054967,54.1738286 281.054967,67.4672371 C281.054967,80.7606456 267.533094,91.5776785 250.906947,91.5776785 L250.906947,91.5776785 Z M148.726558,0 C135.305568,0.0128568105 124.429715,8.71066246 124.413639,19.4439043 C124.413639,30.1824762 135.298904,38.8878087 148.726558,38.8878087 C162.154212,38.8878087 173.039476,30.1824762 173.039476,19.4439043 C173.02447,8.71030755 162.147991,0.0120014133 148.726558,0 Z M148.726558,37.3322964 C136.373116,37.3322964 126.358673,29.3233906 126.358673,19.4439045 C126.358673,9.56441839 136.373116,1.55551244 148.726558,1.55551244 C161.079999,1.55551244 171.094443,9.56441823 171.094443,19.4439043 C171.080508,29.3187708 161.074223,37.3211524 148.726558,37.3322964 Z M22.5327846,77.5562902 C13.4019798,77.5562902 6,83.4759162 6,90.778145 C6,98.0803739 13.4019797,104 22.5327845,104 C31.6635893,104 39.0655693,98.080374 39.0655693,90.7781452 C39.0548513,83.4794698 31.6591463,77.5648618 22.5327846,77.5562902 L22.5327846,77.5562902 Z M22.5327846,102.444488 C14.4761921,102.444488 7.94503346,97.2212883 7.94503346,90.7781452 C7.94503346,84.3350021 14.4761921,79.1118026 22.5327846,79.1118026 C30.5893771,79.1118026 37.1205358,84.3350021 37.1205358,90.7781452 C37.11089,97.2180903 30.5853783,102.436774 22.5327846,102.444488 Z" id="Shape"></path>
        </g>
        <g id="Group" transform="translate(2980.000000, 903.000000)" fill="#4779C7" fill-opacity="0.152" fill-rule="nonzero">
            <path d="M84.7688889,125.925926 L100,135.685185 L0,199.759259 L0,180.085926 L84.7688889,125.925926 Z M84.7688889,89.0629629 L100,98.8222223 L0,162.896296 L0,143.223704 L84.7688889,89.0629629 L84.7688889,89.0629629 Z M0,0 L100,64.074074 L0,128.148148 L0,0 Z" id="Shape"></path>
        </g>
        <g id="Group" transform="translate(972.000000, 661.000000) scale(-1, 1) translate(-972.000000, -661.000000) translate(922.000000, 561.000000)" fill="#4779C7" fill-opacity="0.152" fill-rule="nonzero">
            <path d="M84.7688889,125.925926 L100,135.685185 L0,199.759259 L0,180.085926 L84.7688889,125.925926 Z M84.7688889,89.0629629 L100,98.8222223 L0,162.896296 L0,143.223704 L84.7688889,89.0629629 L84.7688889,89.0629629 Z M0,0 L100,64.074074 L0,128.148148 L0,0 Z" id="Shape"></path>
        </g>
        <g id="Group" opacity="0.248418899" transform="translate(972.000000, 1003.000000)" fill="#E6E6E6" fill-rule="nonzero">
            <path d="M276.478641,271.454966 C281.105304,271.454966 284.855956,274.710983 284.855956,278.727483 C284.855956,282.743983 281.105304,286 276.478641,286 C271.851977,286 268.101326,282.743983 268.101326,278.727483 C268.101326,274.710983 271.851977,271.454966 276.478641,271.454966 Z M231.793022,271.454966 C236.419685,271.454373 240.170892,274.709908 240.171576,278.726408 C240.17226,282.742908 236.422162,285.999406 231.795499,286 C227.168836,286 223.418184,282.743983 223.418184,278.727483 C223.418184,274.710983 227.168836,271.454966 231.795499,271.454966 L231.793022,271.454966 Z M187.109881,271.454966 C191.736544,271.454373 195.48775,274.709908 195.488434,278.726408 C195.489118,282.742908 191.739021,285.999406 187.112358,286 C182.485694,286 178.735043,282.743983 178.735043,278.727483 C178.735043,274.710983 182.485694,271.454966 187.112358,271.454966 L187.109881,271.454966 Z M142.426739,271.454966 C147.053403,271.454373 150.804609,274.709908 150.805293,278.726408 C150.805977,282.742908 147.05588,285.999406 142.429216,286 C137.802553,286.000594 134.051347,282.745058 134.050663,278.728558 C134.049979,274.712058 137.800076,271.45556 142.426739,271.454966 L142.426739,271.454966 Z M97.7411208,271.454966 C100.734047,271.454198 103.500097,272.839622 104.997327,275.089362 C106.494557,277.339103 106.495501,280.111371 104.999804,282.361879 C103.504107,284.612388 100.739001,285.999232 97.7460748,286 C94.7531484,286.000384 91.9873343,284.614605 90.4904879,282.364673 C88.9936415,280.11474 88.9931694,277.342472 90.4892494,275.092156 C91.9853294,272.841839 94.7506714,271.45535 97.7435978,271.454966 L97.7411208,271.454966 Z M53.0604562,271.454966 C57.6871195,271.454966 61.4377712,274.710983 61.4377712,278.727483 C61.4377712,282.743983 57.6871195,286 53.0604562,286 C48.4337929,286 44.6831412,282.743983 44.6831412,278.727483 C44.6831412,274.710983 48.4337929,271.454966 53.0604562,271.454966 Z M8.37483802,271.454966 C13.0015013,271.454373 16.7527075,274.709908 16.7533915,278.726408 C16.7540755,282.742908 13.0039783,285.999406 8.37731499,286 C3.75065168,286 1.77635684e-14,282.743983 1.77635684e-14,278.727483 C1.77635684e-14,274.710983 3.75065168,271.454966 8.37731499,271.454966 L8.37483802,271.454966 Z M276.478641,232.675378 C279.471567,232.675378 282.237145,234.061512 283.733609,236.311637 C285.230072,238.561761 285.230072,241.334029 283.733609,243.584154 C282.237145,245.834278 279.471567,247.220412 276.478641,247.220412 C271.851977,247.220412 268.101326,243.964395 268.101326,239.947895 C268.101326,235.931395 271.851977,232.675378 276.478641,232.675378 L276.478641,232.675378 Z M231.793022,232.675378 C234.785949,232.674994 237.551763,234.060773 239.048609,236.310706 C240.545456,238.560638 240.545928,241.332906 239.049848,243.583222 C237.553768,245.833539 234.788426,247.220028 231.795499,247.220412 C227.168836,247.220412 223.418185,243.964395 223.418185,239.947895 C223.418185,235.931395 227.168836,232.675378 231.795499,232.675378 L231.793022,232.675378 Z M187.109881,232.675378 C190.102807,232.674994 192.868621,234.060773 194.365468,236.310706 C195.862314,238.560638 195.862786,241.332906 194.366706,243.583222 C192.870626,245.833539 190.105284,247.220028 187.112358,247.220412 C182.485695,247.220412 178.735043,243.964395 178.735043,239.947895 C178.735043,235.931395 182.485695,232.675378 187.112358,232.675378 L187.109881,232.675378 Z M142.426739,232.675378 C145.419666,232.674994 148.18548,234.060773 149.682326,236.310706 C151.179173,238.560638 151.179645,241.332906 149.683565,243.583222 C148.187485,245.833539 145.422143,247.220028 142.429216,247.220412 C137.802553,247.221005 134.051347,243.96547 134.050663,239.94897 C134.049979,235.93247 137.800076,232.675972 142.426739,232.675378 L142.426739,232.675378 Z M97.7411208,232.675378 C100.734047,232.67461 103.500097,234.060034 104.997327,236.309775 C106.494557,238.559515 106.495501,241.331783 104.999804,243.582291 C103.504107,245.8328 100.739001,247.219644 97.7460748,247.220412 C93.1194117,247.221005 89.3682058,243.96547 89.3675218,239.94897 C89.3668378,235.93247 93.1169347,232.675972 97.7435978,232.675378 L97.7411208,232.675378 Z M53.0604562,232.675378 C56.0533827,232.675378 58.8189608,234.061512 60.3154241,236.311637 C61.8118874,238.561761 61.8118874,241.334029 60.3154241,243.584154 C58.8189608,245.834278 56.0533827,247.220412 53.0604562,247.220412 C48.433793,247.220412 44.6831414,243.964395 44.6831414,239.947895 C44.6831414,235.931395 48.433793,232.675378 53.0604562,232.675378 L53.0604562,232.675378 Z M8.37483802,232.675378 C11.3677644,232.674994 14.1335786,234.060773 15.630425,236.310706 C17.1272714,238.560638 17.1277436,241.332906 15.6316635,243.583222 C14.1355834,245.833539 11.3702414,247.220028 8.37731499,247.220412 C3.75065196,247.220412 6.60189905e-07,243.964395 6.60189905e-07,239.947895 C6.60189905e-07,235.931395 3.75065196,232.675378 8.37731499,232.675378 L8.37483802,232.675378 Z M276.478641,193.897941 C281.105304,193.897941 284.855956,197.153957 284.855956,201.170457 C284.855956,205.186958 281.105304,208.442974 276.478641,208.442974 C271.851977,208.442974 268.101326,205.186958 268.101326,201.170457 C268.101326,197.153957 271.851977,193.897941 276.478641,193.897941 Z M231.793022,193.897941 C236.419685,193.897347 240.170892,197.152882 240.171576,201.169382 C240.17226,205.185882 236.422162,208.44238 231.795499,208.442974 C227.168836,208.442974 223.418184,205.186958 223.418184,201.170457 C223.418184,197.153957 227.168836,193.897941 231.795499,193.897941 L231.793022,193.897941 Z M187.109881,193.897941 C191.736544,193.897347 195.48775,197.152882 195.488434,201.169382 C195.489118,205.185882 191.739021,208.44238 187.112358,208.442974 C182.485694,208.442974 178.735043,205.186958 178.735043,201.170457 C178.735043,197.153957 182.485694,193.897941 187.112358,193.897941 L187.109881,193.897941 Z M142.426739,193.897941 C147.053403,193.897347 150.804609,197.152882 150.805293,201.169382 C150.805977,205.185882 147.05588,208.44238 142.429216,208.442974 C137.802553,208.443568 134.051347,205.188033 134.050663,201.171533 C134.049979,197.155032 137.800076,193.898534 142.426739,193.897941 L142.426739,193.897941 Z M97.7411208,193.89794 C100.734047,193.897172 103.500097,195.282596 104.997327,197.532337 C106.494557,199.782077 106.495501,202.554345 104.999804,204.804854 C103.504107,207.055362 100.739001,208.442206 97.7460748,208.442974 C94.7531484,208.443358 91.9873343,207.057579 90.4904879,204.807647 C88.9936415,202.557714 88.9931694,199.785447 90.4892494,197.53513 C91.9853294,195.284814 94.7506714,193.898325 97.7435978,193.89794 L97.7411208,193.89794 Z M53.0604562,193.897941 C57.6871195,193.897941 61.4377712,197.153957 61.4377712,201.170457 C61.4377712,205.186958 57.6871195,208.442974 53.0604562,208.442974 C48.4337929,208.442974 44.6831412,205.186958 44.6831412,201.170457 C44.6831412,197.153957 48.4337929,193.897941 53.0604562,193.897941 Z M8.37483802,193.897941 C13.0015013,193.897347 16.7527075,197.152882 16.7533915,201.169382 C16.7540755,205.185882 13.0039783,208.44238 8.37731499,208.442974 C3.75065168,208.442974 1.77635684e-14,205.186958 1.77635684e-14,201.170457 C1.77635684e-14,197.153957 3.75065168,193.897941 8.37731499,193.897941 L8.37483802,193.897941 Z M276.478641,155.120503 C279.505456,155.075315 282.324892,156.451276 283.853525,158.719646 C285.382158,160.988016 285.382158,163.795873 283.853525,166.064243 C282.324892,168.332613 279.505456,169.708574 276.478641,169.663386 C271.908809,169.595162 268.24537,166.359694 268.24537,162.391945 C268.24537,158.424195 271.908809,155.188727 276.478641,155.120503 L276.478641,155.120503 Z M231.793022,155.120503 C234.819828,155.074928 237.639496,156.450528 239.168515,158.718701 C240.697533,160.986874 240.698012,163.79473 239.169766,166.063295 C237.64152,168.33186 234.822321,169.708184 231.795499,169.663386 C227.225668,169.595162 223.562229,166.359694 223.562229,162.391945 C223.562229,158.424195 227.225668,155.188727 231.795499,155.120503 L231.793022,155.120503 Z M187.109881,155.120503 C190.136687,155.074928 192.956355,156.450528 194.485373,158.718701 C196.014392,160.986874 196.01487,163.79473 194.486624,166.063295 C192.958379,168.33186 190.139179,169.708184 187.112358,169.663386 C182.542526,169.595162 178.879087,166.359694 178.879087,162.391945 C178.879087,158.424195 182.542526,155.188727 187.112358,155.120503 L187.109881,155.120503 Z M142.426739,155.120503 C145.453545,155.074928 148.273214,156.450528 149.802232,158.718701 C151.331251,160.986874 151.331729,163.79473 149.803483,166.063295 C148.275237,168.33186 145.456038,169.708184 142.429216,169.663386 C137.859371,169.595751 134.195378,166.360753 134.194702,162.393001 C134.194026,158.42525 137.856917,155.189311 142.426739,155.120503 L142.426739,155.120503 Z M97.7411208,155.120503 C100.767915,155.074545 103.587812,156.449784 105.117213,158.717758 C106.646614,160.985733 106.647571,163.793585 105.119715,166.062344 C103.591859,168.331104 100.7729,169.70779 97.7460748,169.663386 C93.1762295,169.595751 89.5122365,166.360753 89.5115607,162.393001 C89.5108849,158.42525 93.1737758,155.189311 97.7435978,155.120503 L97.7411208,155.120503 Z M53.0604562,155.120503 C56.0872713,155.075315 58.9067072,156.451276 60.4353405,158.719646 C61.9639739,160.988016 61.9639739,163.795873 60.4353405,166.064243 C58.9067072,168.332613 56.0872713,169.708574 53.0604562,169.663386 C48.4906247,169.595162 44.8271859,166.359694 44.8271859,162.391945 C44.8271859,158.424195 48.4906247,155.188727 53.0604562,155.120503 L53.0604562,155.120503 Z M8.37483802,155.120503 C11.4016441,155.074928 14.2213123,156.450528 15.7503308,158.718701 C17.2793493,160.986874 17.2798276,163.79473 15.7515818,166.063295 C14.223336,168.33186 11.4041364,169.708184 8.37731499,169.663386 C3.80748345,169.595162 0.144044641,166.359694 0.144044641,162.391945 C0.144044641,158.424195 3.80748345,155.188727 8.37731499,155.120503 L8.37483802,155.120503 Z M276.478641,116.340915 C279.505454,116.29573 282.324886,117.671692 283.853517,119.940061 C285.382148,122.208429 285.382148,125.016284 283.853517,127.284653 C282.324886,129.553021 279.505454,130.928983 276.478641,130.883798 C271.908805,130.815579 268.245361,127.58011 268.245361,123.612357 C268.245361,119.644604 271.908805,116.409134 276.478641,116.340915 L276.478641,116.340915 Z M231.793022,116.340915 C234.819826,116.295343 237.639491,117.670943 239.168507,119.939115 C240.697524,122.207287 240.698002,125.01514 239.169758,127.283705 C237.641514,129.552269 234.822318,130.928593 231.795499,130.883798 C227.225664,130.815579 223.562219,127.58011 223.562219,123.612357 C223.562219,119.644604 227.225664,116.409134 231.795499,116.340915 L231.793022,116.340915 Z M187.109881,116.340915 C190.136684,116.295343 192.956349,117.670943 194.485366,119.939115 C196.014382,122.207287 196.01486,125.01514 194.486617,127.283705 C192.958373,129.552269 190.139177,130.928593 187.112358,130.883798 C182.542522,130.815579 178.879078,127.58011 178.879078,123.612357 C178.879078,119.644604 182.542522,116.409134 187.112358,116.340915 L187.109881,116.340915 Z M142.426739,116.340915 C145.453543,116.295343 148.273208,117.670943 149.802224,119.939115 C151.331241,122.207287 151.331719,125.01514 149.803475,127.283705 C148.275232,129.552269 145.456036,130.928593 142.429216,130.883798 C137.859367,130.816168 134.195369,127.581168 134.194693,123.613413 C134.194017,119.645659 137.856914,116.409719 142.426739,116.340915 L142.426739,116.340915 Z M97.7411208,116.340915 C100.767913,116.29496 103.587806,117.670199 105.117205,119.938173 C106.646604,122.206146 106.647561,125.013996 105.119707,127.282754 C103.591854,129.551512 100.772898,130.928199 97.7460748,130.883798 C93.1762258,130.816168 89.5122271,127.581168 89.5115513,123.613413 C89.5108755,119.645659 93.1737721,116.409719 97.7435978,116.340915 L97.7411208,116.340915 Z M53.0604562,116.340915 C56.0872691,116.29573 58.9067015,117.671692 60.4353327,119.940061 C61.963964,122.208429 61.963964,125.016284 60.4353327,127.284653 C58.9067015,129.553021 56.0872691,130.928983 53.0604562,130.883798 C48.490621,130.815579 44.8271765,127.58011 44.8271765,123.612357 C44.8271765,119.644604 48.490621,116.409134 53.0604562,116.340915 L53.0604562,116.340915 Z M8.37483802,116.340915 C11.4016419,116.295343 14.2213067,117.670943 15.750323,119.939115 C17.2793394,122.207287 17.2798177,125.01514 15.751574,127.283705 C14.2233303,129.552269 11.4041343,130.928593 8.37731499,130.883798 C3.80747972,130.815579 0.144035287,127.58011 0.144035287,123.612357 C0.144035287,119.644604 3.80747972,116.409134 8.37731499,116.340915 L8.37483802,116.340915 Z M276.478641,77.5613269 C281.105304,77.5613269 284.855956,80.8173436 284.855956,84.8338437 C284.855956,88.8503438 281.105304,92.1063604 276.478641,92.1063604 C271.851977,92.1063604 268.101326,88.8503438 268.101326,84.8338437 C268.101326,80.8173436 271.851977,77.5613269 276.478641,77.5613269 Z M231.793022,77.5613269 C236.419685,77.5607331 240.170892,80.8162684 240.171576,84.8327685 C240.17226,88.8492686 236.422162,92.1057666 231.795499,92.1063604 C227.168836,92.1063604 223.418184,88.8503438 223.418184,84.8338437 C223.418184,80.8173436 227.168836,77.5613269 231.795499,77.5613269 L231.793022,77.5613269 Z M187.109881,77.5613269 C191.736544,77.5607331 195.48775,80.8162684 195.488434,84.8327685 C195.489118,88.8492686 191.739021,92.1057666 187.112358,92.1063604 C182.485694,92.1063604 178.735043,88.8503438 178.735043,84.8338437 C178.735043,80.8173436 182.485694,77.5613269 187.112358,77.5613269 L187.109881,77.5613269 Z M142.426739,77.5613269 C147.053403,77.5607331 150.804609,80.8162684 150.805293,84.8327685 C150.805977,88.8492686 147.05588,92.1057666 142.429216,92.1063604 C137.802553,92.1069542 134.051347,88.8514189 134.050663,84.8349188 C134.049979,80.8184187 137.800076,77.5619207 142.426739,77.5613269 L142.426739,77.5613269 Z M97.7411208,77.5613266 C100.734047,77.5605587 103.500097,78.9459827 104.997327,81.1957231 C106.494556,83.4454635 106.495501,86.2177312 104.999804,88.4682398 C103.504107,90.7187485 100.739001,92.1055922 97.7460748,92.1063605 C94.7531484,92.1067445 91.9873343,90.7209656 90.4904879,88.4710332 C88.9936415,86.2211007 88.9931694,83.448833 90.4892494,81.1985164 C91.9853294,78.9481998 94.7506714,77.561711 97.7435978,77.5613266 L97.7411208,77.5613266 Z M53.0604562,77.5613269 C57.6871195,77.5613269 61.4377712,80.8173436 61.4377712,84.8338437 C61.4377712,88.8503438 57.6871195,92.1063604 53.0604562,92.1063604 C48.4337929,92.1063604 44.6831412,88.8503438 44.6831412,84.8338437 C44.6831412,80.8173436 48.4337929,77.5613269 53.0604562,77.5613269 Z M8.37483802,77.5613269 C13.0015013,77.5607331 16.7527075,80.8162684 16.7533915,84.8327685 C16.7540755,88.8492686 13.0039783,92.1057666 8.37731499,92.1063604 C3.75065168,92.1063604 1.77635684e-14,88.8503438 1.77635684e-14,84.8338437 C1.77635684e-14,80.8173436 3.75065168,77.5613269 8.37731499,77.5613269 L8.37483802,77.5613269 Z M276.478641,38.7817391 C281.105304,38.7817391 284.855956,42.0377557 284.855956,46.0542558 C284.855956,50.0707559 281.105304,53.3267726 276.478641,53.3267726 C271.851977,53.3267726 268.101326,50.0707559 268.101326,46.0542558 C268.101326,42.0377557 271.851977,38.7817391 276.478641,38.7817391 L276.478641,38.7817391 Z M231.793022,38.7817391 C236.419685,38.7811453 240.170892,42.0366806 240.171576,46.0531807 C240.17226,50.0696808 236.422162,53.3261788 231.795499,53.3267726 C227.168836,53.3267726 223.418184,50.0707559 223.418184,46.0542558 C223.418184,42.0377557 227.168836,38.7817391 231.795499,38.7817391 L231.793022,38.7817391 Z M187.109881,38.7817391 C191.736544,38.7811453 195.48775,42.0366806 195.488434,46.0531807 C195.489118,50.0696808 191.739021,53.3261788 187.112358,53.3267726 C182.485694,53.3267726 178.735043,50.0707559 178.735043,46.0542558 C178.735043,42.0377557 182.485694,38.7817391 187.112358,38.7817391 L187.109881,38.7817391 Z M142.426739,38.7817391 C147.053403,38.7811453 150.804609,42.0366806 150.805293,46.0531807 C150.805977,50.0696808 147.05588,53.3261788 142.429216,53.3267726 C137.802553,53.3273663 134.051347,50.071831 134.050663,46.055331 C134.049979,42.038831 137.800076,38.782333 142.426739,38.7817391 L142.426739,38.7817391 Z M97.7411208,38.7817387 C100.734047,38.7809708 103.500097,40.1663948 104.997327,42.4161352 C106.494556,44.6658756 106.495501,47.4381434 104.999804,49.688652 C103.504107,51.9391606 100.739001,53.3260044 97.7460748,53.3267726 C93.1194114,53.3273664 89.3682053,50.0718311 89.3675213,46.055331 C89.3668373,42.0388309 93.1169345,38.7823329 97.7435978,38.7817387 L97.7411208,38.7817387 Z M53.0604562,38.7817391 C57.6871195,38.7817391 61.4377712,42.0377557 61.4377712,46.0542558 C61.4377712,50.0707559 57.6871195,53.3267726 53.0604562,53.3267726 C48.4337929,53.3267726 44.6831412,50.0707559 44.6831412,46.0542558 C44.6831412,42.0377557 48.4337929,38.7817391 53.0604562,38.7817391 L53.0604562,38.7817391 Z M8.37483802,38.781739 C11.3677644,38.7813549 14.1335785,40.1671339 15.6304249,42.4170663 C17.1272712,44.6669988 17.1277433,47.4392665 15.6316633,49.6895831 C14.1355833,51.9398997 11.3702414,53.3263885 8.37731499,53.3267726 C3.75065168,53.3267726 8.8817842e-15,50.0707559 8.8817842e-15,46.0542558 C8.8817842e-15,42.0377557 3.75065168,38.781739 8.37731499,38.781739 L8.37483802,38.781739 Z M276.478641,6.3845363e-07 C281.105304,6.3845363e-07 284.855956,3.2560173 284.855956,7.2725174 C284.855956,11.2890175 281.105304,14.5450342 276.478641,14.5450342 C271.851977,14.5450342 268.101326,11.2890175 268.101326,7.2725174 C268.101326,3.2560173 271.851977,6.3845363e-07 276.478641,6.3845363e-07 L276.478641,6.3845363e-07 Z M231.793022,6.3845363e-07 C236.419685,-0.000593152327 240.170892,3.25494215 240.171576,7.27144225 C240.17226,11.2879424 236.422162,14.5444404 231.795499,14.5450342 C227.168836,14.5450342 223.418184,11.2890175 223.418184,7.2725174 C223.418184,3.2560173 227.168836,6.3845363e-07 231.795499,6.3845363e-07 L231.793022,6.3845363e-07 Z M187.112358,5.58584672e-07 C190.105284,-0.000383565442 192.871098,1.38539531 194.367945,3.63532776 C195.864791,5.88526021 195.865263,8.65752797 194.369183,10.9078446 C192.873103,13.1581612 190.107761,14.54465 187.114835,14.5450342 C182.488172,14.5450342 178.73752,11.2890175 178.73752,7.2725174 C178.73752,3.2560173 182.488172,5.58584672e-07 187.114835,5.58584672e-07 L187.112358,5.58584672e-07 Z M142.426739,6.3845363e-07 C147.053403,-0.000593152327 150.804609,3.25494215 150.805293,7.27144225 C150.805977,11.2879424 147.05588,14.5444404 142.429216,14.5450342 C137.802553,14.545628 134.051347,11.2900927 134.050663,7.27359256 C134.049979,3.25709245 137.800076,0.000594429235 142.426739,6.3845363e-07 Z M97.7411208,3.19094122e-07 C100.734047,-0.000767630839 103.500097,1.38465635 104.997327,3.63439677 C106.494557,5.88413719 106.495501,8.65640495 104.999804,10.9069136 C103.504107,13.1574222 100.739001,14.544266 97.7460748,14.5450345 C93.1194114,14.5462218 89.3676508,11.2911678 89.3662824,7.27466771 C89.3649148,3.25816761 93.1144575,0.00118822002 97.7411208,3.19094122e-07 Z M53.0629335,6.3845363e-07 C57.6895968,6.3845363e-07 61.4402485,3.2560173 61.4402485,7.2725174 C61.4402485,11.2890175 57.6895968,14.5450342 53.0629335,14.5450342 C48.4362702,14.5450342 44.6856185,11.2890175 44.6856185,7.2725174 C44.6856185,3.2560173 48.4362702,6.3845363e-07 53.0629335,6.3845363e-07 L53.0629335,6.3845363e-07 Z M8.37483802,6.3845363e-07 C13.0015013,-0.000593152327 16.7527075,3.25494215 16.7533915,7.27144225 C16.7540755,11.2879424 13.0039783,14.5444404 8.37731499,14.5450342 C3.75065168,14.5450342 8.8817842e-15,11.2890175 8.8817842e-15,7.2725174 C8.8817842e-15,3.2560173 3.75065168,6.3845363e-07 8.37731499,6.3845363e-07 L8.37483802,6.3845363e-07 Z" id="Shape"></path>
        </g>
        <g id="Group" opacity="0.0798921131" transform="translate(1970.000000, 1003.000000)" fill="#E6E6E6" fill-rule="nonzero">
            <path d="M173.647988,154.710348 C176.553858,154.710348 178.90953,156.56605 178.90953,158.855174 C178.90953,161.144298 176.553858,163 173.647988,163 C170.742119,163 168.386447,161.144298 168.386447,158.855174 C168.386447,156.56605 170.742119,154.710348 173.647988,154.710348 Z M145.582284,154.710348 C148.488153,154.71001 150.844174,156.565437 150.844604,158.854561 C150.845033,161.143685 148.489709,162.999661 145.58384,163 C142.677971,163 140.322298,161.144298 140.322298,158.855174 C140.322298,156.56605 142.677971,154.710348 145.58384,154.710348 L145.582284,154.710348 Z M117.518136,154.710348 C120.424005,154.71001 122.780025,156.565437 122.780455,158.854561 C122.780885,161.143685 120.42556,162.999661 117.519691,163 C114.613822,163 112.25815,161.144298 112.25815,158.855174 C112.25815,156.56605 114.613822,154.710348 117.519691,154.710348 L117.518136,154.710348 Z M89.4539872,154.710348 C92.3598564,154.71001 94.7158771,156.565437 94.7163067,158.854561 C94.7167363,161.143685 92.3614121,162.999661 89.4555429,163 C86.5496736,163.000338 84.1936529,161.144911 84.1932233,158.855787 C84.1927937,156.566662 86.5481179,154.710686 89.4539872,154.710348 L89.4539872,154.710348 Z M61.3882829,154.710348 C63.2680507,154.70991 65.0053244,155.499505 65.9456896,156.7817 C66.8860549,158.063894 66.8866479,159.643893 65.9472454,160.926526 C65.0078428,162.209158 63.2711622,162.999562 61.3913943,163 C59.5116265,163.000219 57.7745012,162.210422 56.8343766,160.928118 C55.8942521,159.645813 55.8939555,158.065815 56.8335988,156.783292 C57.773242,155.500769 59.5100708,154.710567 61.3898386,154.710348 L61.3882829,154.710348 Z M33.3256901,154.710348 C36.2315593,154.710348 38.5872317,156.56605 38.5872317,158.855174 C38.5872317,161.144298 36.2315593,163 33.3256901,163 C30.4198208,163 28.0641484,161.144298 28.0641484,158.855174 C28.0641484,156.56605 30.4198208,154.710348 33.3256901,154.710348 Z M5.25998599,154.710348 C8.16585522,154.71001 10.5218759,156.565437 10.5223055,158.854561 C10.5227351,161.143685 8.16741093,162.999661 5.2615417,163 C2.35567246,163 1.15463195e-14,161.144298 1.15463195e-14,158.855174 C1.15463195e-14,156.56605 2.35567246,154.710348 5.2615417,154.710348 L5.25998599,154.710348 Z M173.647988,132.608695 C175.527756,132.608695 177.264733,133.398694 178.204617,134.681108 C179.144501,135.963521 179.144501,137.54352 178.204617,138.825934 C177.264733,140.108347 175.527756,140.898347 173.647988,140.898347 C170.742119,140.898347 168.386447,139.042645 168.386447,136.753521 C168.386447,134.464396 170.742119,132.608695 173.647988,132.608695 L173.647988,132.608695 Z M145.582284,132.608695 C147.462052,132.608476 149.199177,133.398273 150.139302,134.680577 C151.079426,135.962881 151.079723,137.54288 150.14008,138.825403 C149.200436,140.107926 147.463608,140.898128 145.58384,140.898347 C142.677971,140.898347 140.322299,139.042645 140.322299,136.753521 C140.322299,134.464397 142.677971,132.608695 145.58384,132.608695 L145.582284,132.608695 Z M117.518136,132.608695 C119.397903,132.608476 121.135029,133.398273 122.075153,134.680577 C123.015278,135.962881 123.015574,137.54288 122.075931,138.825403 C121.136288,140.107926 119.399459,140.898128 117.519691,140.898347 C114.613822,140.898347 112.25815,139.042645 112.25815,136.753521 C112.25815,134.464397 114.613822,132.608695 117.519691,132.608695 L117.518136,132.608695 Z M89.4539872,132.608695 C91.333755,132.608476 93.0708804,133.398273 94.011005,134.680577 C94.9511296,135.962881 94.9514261,137.54288 94.0117828,138.825403 C93.0721396,140.107926 91.3353107,140.898128 89.4555429,140.898347 C86.5496738,140.898685 84.1936533,139.043257 84.1932237,136.754133 C84.1927941,134.465009 86.5481181,132.609033 89.4539872,132.608695 L89.4539872,132.608695 Z M61.3882829,132.608695 C63.2680507,132.608257 65.0053243,133.397852 65.9456896,134.680046 C66.8860548,135.962241 66.8866479,137.54224 65.9472453,138.824872 C65.0078427,140.107505 63.2711621,140.897909 61.3913943,140.898347 C58.4855252,140.898685 56.1295047,139.043257 56.1290751,136.754133 C56.1286455,134.465009 58.4839695,132.609033 61.3898386,132.608695 L61.3882829,132.608695 Z M33.3256901,132.608695 C35.2054579,132.608695 36.942435,133.398694 37.882319,134.681108 C38.8222029,135.963521 38.8222029,137.54352 37.882319,138.825934 C36.942435,140.108347 35.2054579,140.898347 33.3256901,140.898347 C30.4198209,140.898347 28.0641485,139.042645 28.0641485,136.753521 C28.0641485,134.464396 30.4198209,132.608695 33.3256901,132.608695 L33.3256901,132.608695 Z M5.25998599,132.608695 C7.1397538,132.608476 8.87687918,133.398273 9.81700378,134.680577 C10.7571284,135.962881 10.7574249,137.54288 9.81778164,138.825403 C8.87813838,140.107926 7.14130951,140.898128 5.2615417,140.898347 C2.35567263,140.898347 4.14645589e-07,139.042645 4.14645589e-07,136.753521 C4.14645589e-07,134.464397 2.35567263,132.608695 5.2615417,132.608695 L5.25998599,132.608695 Z M173.647988,110.508267 C176.553858,110.508267 178.90953,112.363969 178.90953,114.653093 C178.90953,116.942217 176.553858,118.797919 173.647988,118.797919 C170.742119,118.797919 168.386447,116.942217 168.386447,114.653093 C168.386447,112.363969 170.742119,110.508267 173.647988,110.508267 Z M145.582284,110.508267 C148.488153,110.507928 150.844174,112.363356 150.844604,114.65248 C150.845033,116.941604 148.489709,118.79758 145.58384,118.797919 C142.677971,118.797919 140.322298,116.942217 140.322298,114.653093 C140.322298,112.363969 142.677971,110.508267 145.58384,110.508267 L145.582284,110.508267 Z M117.518136,110.508267 C120.424005,110.507928 122.780025,112.363356 122.780455,114.65248 C122.780885,116.941604 120.42556,118.79758 117.519691,118.797919 C114.613822,118.797919 112.25815,116.942217 112.25815,114.653093 C112.25815,112.363969 114.613822,110.508267 117.519691,110.508267 L117.518136,110.508267 Z M89.4539872,110.508267 C92.3598564,110.507928 94.7158771,112.363356 94.7163067,114.65248 C94.7167363,116.941604 92.3614121,118.79758 89.4555429,118.797919 C86.5496736,118.798257 84.1936529,116.94283 84.1932233,114.653706 C84.1927937,112.364581 86.5481179,110.508605 89.4539872,110.508267 L89.4539872,110.508267 Z M61.3882829,110.508267 C63.2680507,110.507829 65.0053244,111.297424 65.9456896,112.579619 C66.8860549,113.861813 66.8866479,115.441812 65.9472454,116.724445 C65.0078428,118.007077 63.2711622,118.797481 61.3913943,118.797919 C59.5116265,118.798138 57.7745012,118.008341 56.8343766,116.726037 C55.8942521,115.443732 55.8939555,113.863734 56.8335988,112.581211 C57.773242,111.298687 59.5100708,110.508486 61.3898386,110.508267 L61.3882829,110.508267 Z M33.3256901,110.508267 C36.2315593,110.508267 38.5872317,112.363969 38.5872317,114.653093 C38.5872317,116.942217 36.2315593,118.797919 33.3256901,118.797919 C30.4198208,118.797919 28.0641484,116.942217 28.0641484,114.653093 C28.0641484,112.363969 30.4198208,110.508267 33.3256901,110.508267 Z M5.25998599,110.508267 C8.16585522,110.507928 10.5218759,112.363356 10.5223055,114.65248 C10.5227351,116.941604 8.16741093,118.79758 5.2615417,118.797919 C2.35567246,118.797919 1.15463195e-14,116.942217 1.15463195e-14,114.653093 C1.15463195e-14,112.363969 2.35567246,110.508267 5.2615417,110.508267 L5.25998599,110.508267 Z M173.647988,88.4078392 C175.549041,88.3820853 177.319844,89.1662868 178.279933,90.4590991 C179.240022,91.7519113 179.240022,93.3521934 178.279933,94.6450056 C177.319844,95.9378179 175.549041,96.7220194 173.647988,96.6962655 C170.777813,96.6573827 168.476917,94.8133923 168.476917,92.5520523 C168.476917,90.2907124 170.777813,88.446722 173.647988,88.4078392 L173.647988,88.4078392 Z M145.582284,88.4078392 C147.483331,88.3818648 149.25428,89.1658603 150.214611,90.4585603 C151.174942,91.7512603 151.175242,93.3515417 150.215397,94.6444653 C149.255551,95.937389 147.484896,96.721797 145.58384,96.6962655 C142.713665,96.6573827 140.412768,94.8133923 140.412768,92.5520523 C140.412768,90.2907124 142.713665,88.446722 145.58384,88.4078392 L145.582284,88.4078392 Z M117.518136,88.4078392 C119.419182,88.3818648 121.190132,89.1658603 122.150463,90.4585603 C123.110794,91.7512603 123.111094,93.3515417 122.151248,94.6444653 C121.191403,95.937389 119.420748,96.721797 117.519691,96.6962655 C114.649516,96.6573827 112.34862,94.8133923 112.34862,92.5520523 C112.34862,90.2907124 114.649516,88.446722 117.519691,88.4078392 L117.518136,88.4078392 Z M89.4539872,88.4078392 C91.3550338,88.3818648 93.1259833,89.1658603 94.0863142,90.4585603 C95.0466451,91.7512603 95.0469455,93.3515417 94.0870999,94.6444653 C93.1272543,95.937389 91.3565992,96.721797 89.4555429,96.6962655 C86.5853594,96.6577184 84.2841146,94.8139956 84.2836902,92.5526547 C84.2832657,90.2913137 86.5838183,88.4470549 89.4539872,88.4078392 L89.4539872,88.4078392 Z M61.3882829,88.4078392 C63.2893223,88.3816463 65.0604152,89.1654362 66.0209865,90.4580232 C66.9815578,91.7506101 66.9821585,93.3508892 66.0225578,94.6439235 C65.0629572,95.9369578 63.292453,96.7215727 61.3913943,96.6962655 C58.5212108,96.6577184 56.2199661,94.8139956 56.2195416,92.5526547 C56.2191172,90.2913137 58.5196697,88.4470549 61.3898386,88.4078392 L61.3882829,88.4078392 Z M33.3256901,88.4078392 C35.2267423,88.3820853 36.9975459,89.1662868 37.9576349,90.4590991 C38.9177239,91.7519113 38.9177239,93.3521934 37.9576349,94.6450056 C36.9975459,95.9378179 35.2267423,96.7220194 33.3256901,96.6962655 C30.4555152,96.6573827 28.1546185,94.8133923 28.1546185,92.5520523 C28.1546185,90.2907124 30.4555152,88.446722 33.3256901,88.4078392 L33.3256901,88.4078392 Z M5.25998599,88.4078392 C7.1610326,88.3818648 8.93198213,89.1658603 9.89231304,90.4585603 C10.852644,91.7512603 10.8529443,93.3515417 9.89309872,94.6444653 C8.93325312,95.937389 7.16259797,96.721797 5.2615417,96.6962655 C2.3913668,96.6573827 0.0904701431,94.8133923 0.0904701431,92.5520523 C0.0904701431,90.2907124 2.3913668,88.446722 5.2615417,88.4078392 L5.25998599,88.4078392 Z M173.647988,66.3061858 C175.549039,66.2804336 177.319841,67.0646356 178.279928,68.3574471 C179.240016,69.6502587 179.240016,71.2505394 178.279928,72.543351 C177.319841,73.8361626 175.549039,74.6203645 173.647988,74.5946123 C170.777811,74.555732 168.476911,72.7117408 168.476911,70.4503991 C168.476911,68.1890573 170.777811,66.3450661 173.647988,66.3061858 L173.647988,66.3061858 Z M145.582284,66.3061858 C147.483329,66.2802131 149.254277,67.064209 150.214606,68.3569084 C151.174936,69.6496077 151.175236,71.2498877 150.215392,72.5428107 C149.255548,73.8357337 147.484895,74.6201421 145.58384,74.5946123 C142.713663,74.555732 140.412762,72.7117408 140.412762,70.4503991 C140.412762,68.1890573 142.713663,66.3450661 145.58384,66.3061858 L145.582284,66.3061858 Z M117.518136,66.3061858 C119.419181,66.2802131 121.190128,67.064209 122.150458,68.3569084 C123.110787,69.6496077 123.111088,71.2498877 122.151243,72.5428107 C121.191399,73.8357337 119.420746,74.6201421 117.519691,74.5946123 C114.649514,74.555732 112.348614,72.7117408 112.348614,70.4503991 C112.348614,68.1890573 114.649514,66.3450661 117.519691,66.3061858 L117.518136,66.3061858 Z M89.4539872,66.3061858 C91.3550324,66.2802131 93.1259798,67.064209 94.0863093,68.3569084 C95.0466389,69.6496077 95.0469393,71.2498877 94.087095,72.5428107 C93.1272507,73.8357337 91.3565978,74.6201421 89.4555429,74.5946123 C86.585357,74.5560677 84.2841088,72.7123441 84.2836843,70.4510014 C84.2832599,68.1896586 86.5838159,66.345399 89.4539872,66.3061858 L89.4539872,66.3061858 Z M61.3882829,66.3061858 C63.2893209,66.2799946 65.0604116,67.0637849 66.0209816,68.3563712 C66.9815516,69.6489575 66.9821523,71.2492352 66.022553,72.5422688 C65.0629536,73.8353025 63.2924517,74.6199178 61.3913943,74.5946123 C58.5212085,74.5560677 56.2199602,72.7123441 56.2195358,70.4510014 C56.2191113,68.1896586 58.5196674,66.345399 61.3898386,66.3061858 L61.3882829,66.3061858 Z M33.3256901,66.3061858 C35.2267409,66.2804336 36.9975423,67.0646356 37.95763,68.3574471 C38.9177177,69.6502587 38.9177177,71.2505394 37.95763,72.543351 C36.9975423,73.8361626 35.2267409,74.6203645 33.3256901,74.5946123 C30.4555128,74.555732 28.1546126,72.7117408 28.1546126,70.4503991 C28.1546126,68.1890573 30.4555128,66.3450661 33.3256901,66.3061858 L33.3256901,66.3061858 Z M5.25998599,66.3061858 C7.16103123,66.2802131 8.93197856,67.064209 9.89230816,68.3569084 C10.8526377,69.6496077 10.8529381,71.2498877 9.89309384,72.5428107 C8.93324956,73.8357337 7.16259661,74.6201421 5.2615417,74.5946123 C2.39136446,74.555732 0.0904642679,72.7117408 0.0904642679,70.4503991 C0.0904642679,68.1890573 2.39136446,66.3450661 5.2615417,66.3061858 L5.25998599,66.3061858 Z M173.647988,44.2045325 C176.553858,44.2045325 178.90953,46.0602343 178.90953,48.3493585 C178.90953,50.6384826 176.553858,52.4941844 173.647988,52.4941844 C170.742119,52.4941844 168.386447,50.6384826 168.386447,48.3493585 C168.386447,46.0602343 170.742119,44.2045325 173.647988,44.2045325 Z M145.582284,44.2045325 C148.488153,44.204194 150.844174,46.0596215 150.844604,48.3487457 C150.845033,50.6378699 148.489709,52.493846 145.58384,52.4941844 C142.677971,52.4941844 140.322298,50.6384826 140.322298,48.3493585 C140.322298,46.0602343 142.677971,44.2045325 145.58384,44.2045325 L145.582284,44.2045325 Z M117.518136,44.2045325 C120.424005,44.204194 122.780025,46.0596215 122.780455,48.3487457 C122.780885,50.6378699 120.42556,52.493846 117.519691,52.4941844 C114.613822,52.4941844 112.25815,50.6384826 112.25815,48.3493585 C112.25815,46.0602343 114.613822,44.2045325 117.519691,44.2045325 L117.518136,44.2045325 Z M89.4539872,44.2045325 C92.3598564,44.204194 94.7158771,46.0596215 94.7163067,48.3487457 C94.7167363,50.6378699 92.3614121,52.493846 89.4555429,52.4941844 C86.5496736,52.4945229 84.1936529,50.6390954 84.1932233,48.3499712 C84.1927937,46.060847 86.5481179,44.2048709 89.4539872,44.2045325 L89.4539872,44.2045325 Z M61.3882829,44.2045323 C63.2680507,44.2040946 65.0053243,44.9936894 65.9456895,46.2758841 C66.8860548,47.5580788 66.8866478,49.1380776 65.9472452,50.4207101 C65.0078427,51.7033427 63.2711621,52.4937466 61.3913943,52.4941845 C59.5116265,52.4944034 57.7745012,51.7046063 56.8343766,50.4223021 C55.8942521,49.1399979 55.8939555,47.5599992 56.8335988,46.2774761 C57.773242,44.994953 59.5100708,44.2047514 61.3898386,44.2045323 L61.3882829,44.2045323 Z M33.3256901,44.2045325 C36.2315593,44.2045325 38.5872317,46.0602343 38.5872317,48.3493585 C38.5872317,50.6384826 36.2315593,52.4941844 33.3256901,52.4941844 C30.4198208,52.4941844 28.0641484,50.6384826 28.0641484,48.3493585 C28.0641484,46.0602343 30.4198208,44.2045325 33.3256901,44.2045325 Z M5.25998599,44.2045325 C8.16585522,44.204194 10.5218759,46.0596215 10.5223055,48.3487457 C10.5227351,50.6378699 8.16741093,52.493846 5.2615417,52.4941844 C2.35567246,52.4941844 1.15463195e-14,50.6384826 1.15463195e-14,48.3493585 C1.15463195e-14,46.0602343 2.35567246,44.2045325 5.2615417,44.2045325 L5.25998599,44.2045325 Z M173.647988,22.1028793 C176.553858,22.1028793 178.90953,23.9585811 178.90953,26.2477052 C178.90953,28.5368294 176.553858,30.3925312 173.647988,30.3925312 C170.742119,30.3925312 168.386447,28.5368294 168.386447,26.2477052 C168.386447,23.9585811 170.742119,22.1028793 173.647988,22.1028793 L173.647988,22.1028793 Z M145.582284,22.1028793 C148.488153,22.1025408 150.844174,23.9579683 150.844604,26.2470925 C150.845033,28.5362167 148.489709,30.3921928 145.58384,30.3925312 C142.677971,30.3925312 140.322298,28.5368294 140.322298,26.2477052 C140.322298,23.9585811 142.677971,22.1028793 145.58384,22.1028793 L145.582284,22.1028793 Z M117.518136,22.1028793 C120.424005,22.1025408 122.780025,23.9579683 122.780455,26.2470925 C122.780885,28.5362167 120.42556,30.3921928 117.519691,30.3925312 C114.613822,30.3925312 112.25815,28.5368294 112.25815,26.2477052 C112.25815,23.9585811 114.613822,22.1028793 117.519691,22.1028793 L117.518136,22.1028793 Z M89.4539872,22.1028793 C92.3598564,22.1025408 94.7158771,23.9579683 94.7163067,26.2470925 C94.7167363,28.5362167 92.3614121,30.3921928 89.4555429,30.3925312 C86.5496737,30.3928696 84.1936531,28.5374421 84.1932235,26.248318 C84.1927939,23.9591939 86.548118,22.1032177 89.4539872,22.1028793 L89.4539872,22.1028793 Z M61.3882829,22.1028791 C63.2680507,22.1024414 65.0053243,22.8920362 65.9456895,24.1742309 C66.8860548,25.4564256 66.8866478,27.0364244 65.9472452,28.3190569 C65.0078427,29.6016894 63.2711621,30.3920934 61.3913943,30.3925312 C58.4855251,30.3928697 56.1295044,28.5374422 56.1290748,26.248318 C56.1286452,23.9591938 58.4839694,22.1032177 61.3898386,22.1028791 L61.3882829,22.1028791 Z M33.3256901,22.1028793 C36.2315593,22.1028793 38.5872317,23.9585811 38.5872317,26.2477052 C38.5872317,28.5368294 36.2315593,30.3925312 33.3256901,30.3925312 C30.4198208,30.3925312 28.0641484,28.5368294 28.0641484,26.2477052 C28.0641484,23.9585811 30.4198208,22.1028793 33.3256901,22.1028793 L33.3256901,22.1028793 Z M5.25998599,22.1028792 C7.13975378,22.1026603 8.87687912,22.8924574 9.81700368,24.1747616 C10.7571283,25.4570657 10.7574248,27.0370645 9.81778154,28.3195876 C8.87813831,29.6021107 7.14130949,30.3923123 5.2615417,30.3925312 C2.35567246,30.3925312 5.32907052e-15,28.5368294 5.32907052e-15,26.2477052 C5.32907052e-15,23.9585811 2.35567246,22.1028792 5.2615417,22.1028792 L5.25998599,22.1028792 Z M173.647988,3.63873922e-07 C176.553858,3.63873922e-07 178.90953,1.85570217 178.90953,4.14482635 C178.90953,6.43395054 176.553858,8.28965234 173.647988,8.28965234 C170.742119,8.28965234 168.386447,6.43395054 168.386447,4.14482635 C168.386447,1.85570217 170.742119,3.63873922e-07 173.647988,3.63873922e-07 L173.647988,3.63873922e-07 Z M145.582284,3.63873922e-07 C148.488153,-0.000338055347 150.844174,1.85508941 150.844604,4.14421359 C150.845033,6.43333777 148.489709,8.28931392 145.58384,8.28965234 C142.677971,8.28965234 140.322298,6.43395054 140.322298,4.14482635 C140.322298,1.85570217 142.677971,3.63873922e-07 145.58384,3.63873922e-07 L145.582284,3.63873922e-07 Z M117.519691,3.18354201e-07 C119.399459,-0.000218605479 121.136584,0.789578445 122.076709,2.0718826 C123.016834,3.35418676 123.01713,4.93418552 122.077487,6.21670863 C121.137844,7.49923174 119.401015,8.28943342 117.521247,8.28965234 C114.615378,8.28965234 112.259705,6.43395054 112.259705,4.14482635 C112.259705,1.85570217 114.615378,3.18354201e-07 117.521247,3.18354201e-07 L117.519691,3.18354201e-07 Z M89.4539872,3.63873922e-07 C92.3598564,-0.000338055347 94.7158771,1.85508941 94.7163067,4.14421359 C94.7167363,6.43333777 92.3614121,8.28931392 89.4555429,8.28965234 C86.5496736,8.28999076 84.1936529,6.4345633 84.1932233,4.14543912 C84.1927937,1.85631493 86.5481179,0.000338783095 89.4539872,3.63873922e-07 Z M61.3882829,1.81861336e-07 C63.2680507,-0.000437495898 65.0053243,0.789157291 65.9456896,2.07135201 C66.8860549,3.35354672 66.8866479,4.93354548 65.9472453,6.21617803 C65.0078427,7.49881058 63.2711621,8.28921453 61.3913943,8.28965253 C58.4855251,8.29032918 56.1291561,6.43517606 56.1282967,4.14605188 C56.1274377,1.85692769 58.4824137,0.000677202316 61.3882829,1.81861336e-07 Z M33.327246,3.63873922e-07 C36.2331152,3.63873922e-07 38.5887877,1.85570217 38.5887877,4.14482635 C38.5887877,6.43395054 36.2331152,8.28965234 33.327246,8.28965234 C30.4213767,8.28965234 28.0657043,6.43395054 28.0657043,4.14482635 C28.0657043,1.85570217 30.4213767,3.63873922e-07 33.327246,3.63873922e-07 L33.327246,3.63873922e-07 Z M5.25998599,3.63873922e-07 C8.16585522,-0.000338055347 10.5218759,1.85508941 10.5223055,4.14421359 C10.5227351,6.43333777 8.16741093,8.28931392 5.2615417,8.28965234 C2.35567246,8.28965234 5.32907052e-15,6.43395054 5.32907052e-15,4.14482635 C5.32907052e-15,1.85570217 2.35567246,3.63873922e-07 5.2615417,3.63873922e-07 L5.25998599,3.63873922e-07 Z" id="Shape"></path>
        </g>
    </g>
</svg>