<?xml version="1.0" encoding="UTF-8"?>
<svg width="122px" height="43px" viewBox="0 0 122 43" version="1.1" xmlns="http://www.w3.org/2000/svg" xmlns:xlink="http://www.w3.org/1999/xlink">
    <title>Artboard</title>
    <g id="Artboard" stroke="none" stroke-width="1" fill="none" fill-rule="evenodd">
        <g id="abstraction-data-story" transform="translate(-127.000000, -368.000000)">
            <circle id="Oval" fill="#FFF7BC" fill-rule="nonzero" cx="242.507" cy="309.736" r="189.684"></circle>
            <path d="M88.05,2.09300025 C88.0499999,0.988821157 88.944821,0.0935523399 90.049,0.0930002504 L394.174,0 C394.704606,0 395.213571,0.210331501 395.58886,0.585433017 C395.964149,0.960534533 396.175,1.46939396 396.175,2 L396.164,471.714 C396.164,472.818179 395.269179,473.713448 394.165,473.714 L90.04,473.808001 C89.5093938,473.808001 89.000429,473.597669 88.6251399,473.222567 C88.2498509,472.847466 88.039,472.338607 88.039,471.808 L88.05,2.09300025 L88.05,2.09300025 Z" id="Path" fill="#007CAC"></path>
            <path d="M262.472,334.884 L263.052,334.884 L263.052,436.916 L262.472,436.916 L262.472,334.884 Z M206.9,399.821 L210.099,399.821 L210.099,412.934 L206.9,412.934 L206.9,399.821 Z M203.564,405.584 L206.763,405.584 L206.763,413.233 L203.564,413.233 L203.564,405.584 Z M213.578,405.584 L216.777,405.584 L216.777,413.233 L213.578,413.233 L213.578,405.584 Z M216.917,401.595 L220.116,401.595 L220.116,413.178 L216.917,413.178 L216.917,401.595 Z M220.259,396.274 L223.458,396.274 L223.458,413.102 L220.259,413.102 L220.259,396.274 Z M223.589,393.169 L226.788,393.169 L226.788,413.056 L223.589,413.056 L223.589,393.169 Z M226.929,402.481 L230.128,402.481 L230.128,412.971 L226.929,412.971 L226.929,402.481 Z M230.271,406.028 L233.47,406.028 L233.47,413.021 L230.271,413.021 L230.271,406.028 Z M233.603,409.132 L236.802,409.132 L236.802,413.284 L233.603,413.284 L233.603,409.132 Z M236.941,401.595 L240.14,401.595 L240.14,413.178 L236.941,413.178 L236.941,401.595 Z M240.281,396.716 L243.48,396.716 L243.48,413.107 L240.281,413.107 L240.281,396.716 Z M243.619,393.17 L246.818,393.17 L246.818,413.057 L243.619,413.057 L243.619,393.17 Z M246.962,403.811 L250.3,403.811 L250.3,413.123 L246.962,413.123 L246.962,403.811 Z M210.236,396.716 L213.435,396.716 L213.435,413.107 L210.236,413.107 L210.236,396.716 Z M153.489,384.298 L156.688,384.298 L156.688,413.053 L153.489,413.053 L153.489,384.298 Z M150.148,396.274 L153.347,396.274 L153.347,413.048 L150.148,413.048 L150.148,396.274 Z M160.161,396.274 L163.36,396.274 L163.36,413.048 L160.161,413.048 L160.161,396.274 Z M163.501,387.847 L166.7,387.847 L166.7,413.247 L163.501,413.247 L163.501,387.847 Z M166.842,376.32 L170.041,376.32 L170.041,413.222 L166.842,413.222 L166.842,376.32 Z M170.182,369.667 L173.381,369.667 L173.381,413.279 L170.182,413.279 L170.182,369.667 Z M173.514,390.065 L176.713,390.065 L176.713,413.069 L173.514,413.069 L173.514,390.065 Z M176.854,397.605 L180.053,397.605 L180.053,412.941 L176.854,412.941 L176.854,397.605 Z M180.195,403.811 L183.394,403.811 L183.394,412.917 L180.195,412.917 L180.195,403.811 Z M183.527,387.847 L186.726,387.847 L186.726,413.247 L183.527,413.247 L183.527,387.847 Z M186.866,377.203 L190.065,377.203 L190.065,413.147 L186.866,413.147 L186.866,377.203 Z M190.202,394.5 L193.54,394.5 L193.54,413.117 L190.202,413.117 L190.202,394.5 Z M193.544,388.735 L196.882,388.735 L196.882,413.169 L193.544,413.169 L193.544,388.735 Z M196.89,390.065 L200.089,390.065 L200.089,413.069 L196.89,413.069 L196.89,390.065 Z M200.229,400.263 L203.428,400.263 L203.428,413.203 L200.229,413.203 L200.229,400.263 Z M156.831,377.204 L160.03,377.204 L160.03,413.148 L156.831,413.148 L156.831,377.204 Z" id="Shape" fill="#E4E7ED" fill-rule="nonzero"></path>
            <path d="M152.37,394.5 L149.032,394.5 L149.032,413.124 L152.37,413.124 L152.37,394.5 Z M145.691,402.481 L142.353,402.481 L142.353,413.123 L145.691,413.123 L145.691,402.481 Z" id="Shape" fill="#E4E7ED" fill-rule="nonzero"></path>
            <path d="M142.359,396.716 L139.021,396.716 L139.021,413.123 L142.359,413.123 L142.359,396.716 Z M139.015,386.071 L135.677,386.071 L135.677,413.12 L139.015,413.12 L139.015,386.071 Z" id="Shape" fill="#E4E7ED" fill-rule="nonzero"></path>
            <polygon id="Path" fill="#E4E7ED" fill-rule="nonzero" points="135.679 390.953 132.341 390.953 132.341 413.125 135.679 413.125"></polygon>
            <path d="M132.343,398.047 L129.005,398.047 L129.005,413.124 L132.343,413.124 L132.343,398.047 Z M149.027,390.065 L145.689,390.065 L145.689,413.124 L149.027,413.124 L149.027,390.065 Z M128.993,388.291 L125.655,388.291 L125.655,413.123 L128.993,413.123 L128.993,388.291 Z" id="Shape" fill="#E4E7ED" fill-rule="nonzero"></path>
            <path d="M275.225,340.547 L310.588,340.543 L310.588,342.858 L275.225,342.862 L275.225,340.547 Z M275.226,431.704 L339.576,431.7 L339.575,434.015 L275.226,434.019 L275.226,431.704 L275.226,431.704 Z M275.226,426.485 L362.765,426.481 L362.764,428.796 L275.226,428.8 L275.226,426.485 Z M125.656,340.547 L206.238,340.543 L206.237,342.858 L125.655,342.862 L125.656,340.547 Z M125.656,431.704 L206.238,431.7 L206.237,434.015 L125.655,434.019 L125.656,431.704 Z M125.655,426.485 L165.657,426.481 L165.656,428.796 L125.655,428.8 L125.655,426.485 Z M275.225,436.921 L316.385,436.916 L316.385,439.231 L275.225,439.235 L275.225,436.921 Z" id="Shape" fill="#E4E7ED"></path>
            <path d="M290.529,133.414 L358.402,133.411 L358.402,135.479 L290.528,135.483 L290.529,133.414 L290.529,133.414 Z M125.656,436.921 L217.832,436.917 L217.832,439.232 L125.655,439.236 L125.656,436.921 L125.656,436.921 Z" id="Shape" fill="#E4E7ED"></path>
        </g>
    </g>
</svg>