<?xml version="1.0" encoding="UTF-8"?>
<svg width="794px" height="663px" viewBox="0 0 794 663" version="1.1" xmlns="http://www.w3.org/2000/svg" xmlns:xlink="http://www.w3.org/1999/xlink">
    <title>main-ground</title>
    <g id="Page-1" stroke="none" stroke-width="1" fill="none" fill-rule="evenodd">
        <g id="main-ground" fill-rule="nonzero">
            <rect id="Rectangle" fill="#CCCCCC" transform="translate(279.219035, 174.381034) rotate(-30.649320) translate(-279.219035, -174.381034) " x="-35.8638147" y="158.389614" width="630.1657" height="31.98284"></rect>
            <rect id="Rectangle" fill="#CCCCCC" transform="translate(397.050479, 201.313906) rotate(-30.649320) translate(-397.050479, -201.313906) " x="81.9676188" y="185.322486" width="630.16572" height="31.98284"></rect>
            <rect id="Rectangle" fill="#CCCCCC" transform="translate(501.415455, 230.771727) rotate(-30.649320) translate(-501.415455, -230.771727) " x="186.332595" y="214.780307" width="630.16572" height="31.98284"></rect>
            <circle id="Oval" fill="#FFFFFF" cx="353.12035" cy="206.84364" r="169.73576"></circle>
            <path d="M182.12218,206.84367 C182.12218,112.55505 258.83155,35.84548 353.12037,35.84548 C447.40919,35.84548 524.11856,112.55505 524.11856,206.84367 C524.11856,301.13229 447.40919,377.84184 353.12037,377.84184 C258.83155,377.84184 182.12218,301.13228 182.12218,206.84367 Z M184.64715,206.84367 C184.64715,299.73993 260.22393,375.31688 353.1204,375.31688 C446.01687,375.31688 521.59362,299.73988 521.59362,206.84367 C521.59362,113.94746 446.01684,38.37045 353.12037,38.37045 C260.2239,38.37045 184.64715,113.9474 184.64715,206.84367 L184.64715,206.84367 Z" id="Shape" stroke="#FA6400" stroke-width="2" fill="#FA6400"></path>
            <path d="M322.86311,207.58163 L322.86311,207.58163 C322.86311,195.343703 330.235025,184.310791 341.54139,179.627528 C352.847755,174.944265 365.861953,177.532941 374.515477,186.186459 C383.169,194.839977 385.757685,207.854173 381.074429,219.160541 C376.391174,230.46691 365.358267,237.83884 353.12034,237.83884 C336.409736,237.83884 322.86311,224.292204 322.86311,207.5816 L322.86311,207.58163 Z M353.12034,178.80033 C337.232259,178.81818 324.356879,191.693569 324.33904,207.58165 L324.33904,207.58165 C324.33904,223.47712 337.224883,236.36293 353.120353,236.36293 C369.015824,236.36293 381.90164,223.477094 381.90164,207.581623 C381.90164,191.686153 369.01581,178.80033 353.12034,178.80033 L353.12034,178.80033 Z" id="Shape" fill="#6DD400"></path>
            <path d="M295.5578,207.58163 L295.5578,207.58163 C295.5578,175.790707 321.329464,150.0191 353.120387,150.0191 C384.911309,150.0191 410.68292,175.790761 410.68292,207.581683 C410.68292,239.372606 384.911263,265.14422 353.12034,265.14422 C337.853791,265.14422 323.212522,259.079602 312.417449,248.284514 C301.622377,237.489427 295.5578,222.848149 295.5578,207.5816 L295.5578,207.58163 Z M353.12034,151.49502 C322.144563,151.49502 297.03373,176.605847 297.03373,207.581623 C297.03373,238.5574 322.14455,263.66824 353.120327,263.66824 C384.096103,263.66824 409.20695,238.557427 409.20695,207.58165 C409.172055,176.620333 384.081657,151.529926 353.12034,151.49502 L353.12034,151.49502 Z" id="Shape" fill="#CCCCCC"></path>
            <path d="M240.94712,207.5816 C240.94712,145.630044 291.168797,95.4084 353.120353,95.4084 C415.071909,95.4084 465.29356,145.630071 465.29356,207.581627 C465.29356,269.533183 415.071896,319.75484 353.12034,319.75484 C291.197766,319.684901 241.017048,269.504174 240.94712,207.5816 Z M353.12034,96.88439 C291.983942,96.88439 242.42312,146.445259 242.42312,207.581657 C242.42312,268.718054 291.983976,318.27889 353.120373,318.27889 C414.256771,318.27889 463.81762,268.718048 463.81762,207.58165 C463.748458,146.473904 414.228086,96.9535407 353.12034,96.88439 L353.12034,96.88439 Z" id="Shape" stroke="#F7B500" stroke-width="3" fill="#F7B500"></path>
            <circle id="Oval" fill="#6C63FF" cx="353.12035" cy="206.84365" r="14.02164"></circle>
            <circle id="Oval" fill="#6C63FF" cx="316.95924" cy="247.43264" r="14.02164"></circle>
            <circle id="Oval" fill="#6C63FF" cx="458.0353" cy="241.52879" r="14.02164"></circle>
            <circle id="Oval" fill="#2F2E41" cx="353.12035" cy="206.84365" r="6.64182"></circle>
            <circle id="Oval" fill="#2F2E41" cx="458.0353" cy="241.52879" r="6.64184"></circle>
            <circle id="Oval" fill="#2F2E41" cx="316.95924" cy="248.17061" r="6.64183"></circle>
            <circle id="Oval" fill="#6C63FF" cx="43.16807" cy="132.3075" r="6.64182"></circle>
            <polygon id="Path" fill="#2F2E41" points="352.751 132.677 61.248 132.677 61.248 131.201 354.228 131.201 354.228 207.212 352.751 207.212"></polygon>
            <path d="M23.98044,132.3075 C23.98044,121.710514 32.5709743,113.11994 43.16796,113.11994 C53.7649457,113.11994 62.35552,121.710474 62.35552,132.30746 C62.35552,142.904446 53.7649857,151.49502 43.168,151.49502 C38.0791456,151.49502 33.1987129,149.473502 29.6003457,145.875143 C26.0019785,142.276783 23.98044,137.396354 23.98044,132.3075 Z M43.168,114.59595 C36.004339,114.59595 29.5460517,118.911214 26.8046299,125.529571 C24.063208,132.147928 25.5785284,139.765991 30.6439987,144.831467 C35.7094691,149.896943 43.3275308,151.412272 49.9458906,148.670858 C56.5642503,145.929443 60.87953,139.471161 60.87953,132.3075 C60.8683377,122.530329 52.9451714,114.607153 43.168,114.59595 L43.168,114.59595 Z" id="Shape" fill="#2F2E41"></path>
            <circle id="Oval" fill="#6C63FF" cx="87.44698" cy="323.44473" r="6.64183"></circle>
            <path d="M68.25944,323.44472 L68.25944,323.44472 C68.25944,315.684097 72.9343267,308.687634 80.1042078,305.717772 C87.2740889,302.74791 95.526979,304.389512 101.014568,309.877102 C106.502158,315.364691 108.14376,323.617581 105.173898,330.787462 C102.204036,337.957343 95.2075734,342.63223 87.44695,342.63223 C76.8499854,342.63223 68.25944,334.041685 68.25944,323.44472 L68.25944,323.44472 Z M87.44695,305.73316 C80.2832958,305.73316 73.8250165,310.048426 71.0835982,316.666777 C68.3421799,323.285128 69.8574981,330.903184 74.9229623,335.968657 C79.9884264,341.034129 87.6064798,342.54946 94.2248352,339.808053 C100.843191,337.066646 105.15848,330.608374 105.15848,323.44472 C105.147282,313.667549 97.2241207,305.744374 87.44695,305.73316 L87.44695,305.73316 Z" id="Shape" fill="#2F2E41"></path>
            <circle id="Oval" fill="#6C63FF" cx="663.93217" cy="163.30273" r="6.64183"></circle>
            <path d="M644.74463,163.30272 C644.74463,152.705742 653.335186,144.1152 663.932163,144.1152 C674.529141,144.1152 683.11969,152.705749 683.11969,163.302727 C683.11969,173.899704 674.529148,182.49026 663.93217,182.49026 C658.843316,182.49026 653.962885,180.468732 650.364522,176.870368 C646.766158,173.272005 644.74463,168.391574 644.74463,163.30272 L644.74463,163.30272 Z M663.93217,145.59114 C654.155001,145.60239 646.231818,153.525551 646.22062,163.30272 L646.22062,163.30272 C646.22062,170.466382 650.535914,176.924662 657.154277,179.666072 C663.77264,182.407482 671.390702,180.892149 676.456172,175.826671 C681.521642,170.761192 683.036962,163.143128 680.29554,156.524769 C677.554119,149.906411 671.095832,145.59114 663.93217,145.59114 L663.93217,145.59114 Z" id="Shape" fill="#2F2E41"></path>
            <polygon id="Path" fill="#2F2E41" points="457.297 165.528 645.471 162.565 645.494 164.04 458.773 166.981 458.773 241.529 457.297 241.529"></polygon>
            <polygon id="Path" fill="#2F2E41" points="105.897 322.707 316.221 322.707 316.221 248.171 317.697 248.171 317.697 324.182 105.897 324.182"></polygon>
            <rect id="Rectangle" fill="#CCCCCC" x="2.57907" y="166.99264" width="81.178" height="5.16587"></rect>
            <rect id="Rectangle" fill="#CCCCCC" x="2.57907" y="181.75227" width="81.178" height="5.16587"></rect>
            <rect id="Rectangle" fill="#CCCCCC" x="2.57907" y="196.51191" width="81.178" height="5.16587"></rect>
            <rect id="Rectangle" fill="#CCCCCC" x="46.85793" y="358.12988" width="81.178" height="5.16586"></rect>
            <rect id="Rectangle" fill="#CCCCCC" x="46.85793" y="372.8895" width="81.178" height="5.16586"></rect>
            <rect id="Rectangle" fill="#CCCCCC" x="46.85793" y="387.64914" width="81.178" height="5.16586"></rect>
            <rect id="Rectangle" fill="#CCCCCC" x="623.34318" y="198.72585" width="81.17797" height="5.16587"></rect>
            <rect id="Rectangle" fill="#CCCCCC" x="623.34318" y="213.48548" width="81.17797" height="5.16587"></rect>
            <rect id="Rectangle" fill="#CCCCCC" x="623.34318" y="228.24511" width="81.17797" height="5.16586"></rect>
            <polygon id="Path" fill="#FFB8B8" points="743.166 638.861 731.622 642.987 710.214 600.421 727.253 594.332"></polygon>
            <path d="M712.88549,662.30303 L712.71703,661.83233 C709.867951,653.8306 714.033244,645.032579 722.02831,642.16485 L744.7639,634.03936 L750.11058,648.99981 L712.88549,662.30303 Z" id="Path" fill="#2F2E41"></path>
            <polygon id="Path" fill="#FFB8B8" points="668.095 650.28 655.835 650.279 650.003 602.991 668.097 602.992"></polygon>
            <path d="M671.22118,662.16384 L631.69042,662.16238 L631.69042,661.66238 C631.69042,657.581632 633.311612,653.668045 636.197183,650.782567 C639.082754,647.897088 642.996392,646.27615 647.07714,646.27615 L647.07814,646.27615 L671.22194,646.27715 L671.22118,662.16384 Z" id="Path" fill="#2F2E41"></path>
            <path d="M696.03494,348.17018 L690.70318,337.63475 C690.70318,337.63475 670.84062,342.61113 669.03494,354.12294 L696.03494,348.17018 Z" id="Path" fill="#6C63FF"></path>
            <polygon id="Path" fill="#2F2E41" points="718.035 468.635 703.535 549.548 742.035 617.635 719.035 626.635 680.035 560.635 675.035 542.635 672.035 636.635 651.292 636.005 641.781 548.232 657.035 466.635"></polygon>
            <path d="M648.78144,483.23184 C648.33149,481.22793 647.04079,420.05858 647.04079,420.05858 C647.04079,420.05858 668.36623,350.04979 668.5613,349.47458 L668.63747,349.24997 L684.82815,343.17965 C685.0552,343.07614 690.44949,340.67282 694.86379,342.67575 C697.155415,343.79079 698.838766,345.859582 699.46462,348.33004 C701.30105,349.69821 714.53494,364.52243 714.53494,384.62985 L715.03445,432.07907 L726.12945,483.5195 L725.63897,483.62399 C725.33597,483.68844 711.81158,487.76266 690.51055,487.76266 C678.67507,487.76266 648.78144,483.23184 648.78144,483.23184 Z" id="Path" fill="#3F3D56"></path>
            <circle id="Oval" fill="#FFB8B8" cx="674.14281" cy="312.43466" r="21.88287"></circle>
            <polygon id="Path" fill="#000000" opacity="0.2" points="705.318 408.841 667.035 462.257 661.381 437.312"></polygon>
            <path d="M637.37105,463.40875 C640.148004,463.298494 642.733491,461.963878 644.431804,459.764023 C646.130117,457.564169 646.766799,454.725053 646.17053,452.01063 L674.6167,434.56139 L658.90904,427.21284 L634.30423,444.90955 C629.709706,446.242758 626.83847,450.801698 627.620897,455.521328 C628.403323,460.240957 632.592099,463.629479 637.37105,463.40874 L637.37105,463.40875 Z" id="Path" fill="#FFB8B8"></path>
            <polygon id="Path" fill="#6C63FF" points="657.035 427.635 647.292 434.462 655.555 449.135 667.035 439.635"></polygon>
            <path d="M651.93435,428.06542 L674.85135,401.50194 L666.07108,364.86327 C664.193601,357.030544 668.419558,349.020873 675.944808,346.149091 C683.470059,343.277309 691.957773,346.435196 695.77591,353.52733 L695.97538,353.89842 L704.06595,408.30663 L663.41165,449.97752 L651.93435,428.06542 Z" id="Path" fill="#3F3D56"></path>
            <path d="M692.78219,331.43402 L674.61927,332.086059 C673.51215,332.1257 670.50738,320.17741 670.11405,317.69875 C669.470996,314.36056 666.450429,312.018117 663.05724,312.22621 C661.69763,312.35464 658.26918,309.81455 654.73136,306.80681 C648.01477,301.09659 648.36419,290.37193 655.74236,285.54681 C655.944007,285.41493 656.14192,285.294513 656.3361,285.18556 C660.99064,282.58036 666.43561,281.7055 671.76922,281.63878 C676.60429,281.57831 681.57642,282.18687 685.83602,284.4754 C693.47256,288.57824 697.53671,297.54409 697.8937,306.20565 C698.25069,314.86721 695.47395,323.33665 692.32298,331.41265" id="Path" fill="#2F2E41"></path>
            <path d="M792.56288,662.46368 L571.56288,662.46368 C571.010595,662.46368 570.56288,662.015965 570.56288,661.46368 C570.56288,660.911395 571.010595,660.46368 571.56288,660.46368 L792.56288,660.46368 C793.115165,660.46368 793.56288,660.911395 793.56288,661.46368 C793.56288,662.015965 793.115165,662.46368 792.56288,662.46368 Z" id="Path" fill="#3F3D56"></path>
        </g>
    </g>
</svg>