<?xml version="1.0" standalone="no"?><!DOCTYPE svg PUBLIC "-//W3C//DTD SVG 1.1//EN"
        "http://www.w3.org/Graphics/SVG/1.1/DTD/svg11.dtd">
<svg class="icon" width="200px" height="200.00px" viewBox="0 0 1024 1024" version="1.1"
     xmlns="http://www.w3.org/2000/svg">
    <path fill="#007cac"
          d="M667.136 146.432c-152.576-62.976-328.192-28.16-444.928 88.576S70.656 527.36 133.632 679.936C197.12 832.512 345.6 931.84 510.976 931.84c225.28 0 408.064-182.784 408.064-408.064 0-165.376-99.328-313.856-251.904-377.344zM510.976 880.64C313.344 880.64 153.6 720.896 153.6 523.776s159.744-357.376 357.376-357.376c94.72 0 185.344 37.376 252.416 104.448s104.448 157.696 104.448 252.416c0 197.632-159.744 357.376-356.864 357.376z m75.776-556.032c8.704 3.072 17.92 1.536 25.088-4.096s10.752-14.848 9.216-24.064c-1.536-9.216-7.68-16.384-15.872-19.968-81.408-30.72-172.544-19.968-244.224 29.184s-114.176 130.56-114.176 217.6c0 14.336 11.264 25.6 25.6 25.6s25.6-11.264 25.6-25.6c0-70.144 34.304-135.68 92.16-175.616 57.344-38.912 131.072-48.128 196.608-23.04z m160.256 81.408c-3.072-9.216-11.776-15.872-21.504-16.896-9.728-1.024-19.456 4.096-24.576 12.288-5.12 8.704-4.608 18.944 1.024 27.136 14.848 29.696 22.528 61.952 22.016 94.72 0 14.336 11.264 25.6 25.6 25.6s25.6-11.264 25.6-25.6c-0.512-40.448-9.728-80.896-28.16-117.248zM675.84 326.144c-9.728-2.048-19.456 2.048-25.088 9.728l-91.136 97.792c-3.072-1.536-6.144-3.072-9.728-4.608-37.888-15.872-81.92-7.168-111.104 22.016-29.184 29.184-37.888 73.216-22.016 111.104s53.248 62.976 94.208 62.976c56.32 0 101.888-45.568 101.888-101.888 0-19.968-5.632-38.912-16.384-55.296l91.136-97.792c7.168-6.656 10.24-16.384 7.68-26.112-2.048-8.704-9.728-15.872-19.456-17.92z m-164.864 248.832c-28.16 0-51.2-23.04-51.2-51.2s23.04-51.2 51.2-51.2c13.312 0 26.624 5.632 35.84 14.848 9.728 9.728 14.848 22.528 14.848 35.84 0 28.672-22.528 51.712-50.688 51.712z"/>
</svg>