<?xml version="1.0" standalone="no"?><!DOCTYPE svg PUBLIC "-//W3C//DTD SVG 1.1//EN"
        "http://www.w3.org/Graphics/SVG/1.1/DTD/svg11.dtd">
<svg class="icon" width="200px" height="200.00px" viewBox="0 0 1024 1024" version="1.1"
     xmlns="http://www.w3.org/2000/svg">
    <path fill="#007cac"
          d="M129.365333 655.146667l-0.597333 1.152a21.333333 21.333333 0 0 0 8.704 26.986666l2.218667 1.130667 346.922666 152.874667c10.474667 4.629333 14.314667 5.824 18.773334 6.613333 4.48 0.768 8.746667 0.768 13.226666 0l2.944-0.64c2.538667-0.597333 5.376-1.557333 9.749334-3.370667l6.08-2.602666 346.922666-152.874667a21.333333 21.333333 0 0 0 10.389334-29.248l60.949333 27.328a10.666667 10.666667 0 0 1 0 19.477333l-418.005333 187.114667c-10.56 4.736-14.442667 5.973333-18.965334 6.762667a37.312 37.312 0 0 1-13.354666 0c-4.522667-0.810667-8.405333-2.026667-18.965334-6.762667L68.352 701.973333a10.666667 10.666667 0 0 1 0-19.477333l61.013333-27.349333z m0-180.224l-0.597333 1.152a21.333333 21.333333 0 0 0 8.704 26.986666l2.218667 1.130667L486.613333 657.066667c10.474667 4.629333 14.314667 5.802667 18.773334 6.613333 4.48 0.768 8.746667 0.768 13.226666 0l2.944-0.64c3.050667-0.746667 6.506667-1.962667 12.586667-4.565333l350.165333-154.282667a21.333333 21.333333 0 0 0 10.389334-29.248l60.949333 27.306667a10.666667 10.666667 0 0 1 0 19.477333l-418.005333 187.136-8.597334 3.669333c-4.629333 1.813333-7.36 2.56-10.368 3.072a37.312 37.312 0 0 1-13.354666 0l-2.986667-0.64c-3.584-0.853333-7.765333-2.432-15.978667-6.101333L68.352 521.728a10.666667 10.666667 0 0 1 0-19.456l61.013333-27.349333z m389.333334-346.773334c4.501333 0.810667 8.384 2.026667 18.944 6.762667l418.005333 187.114667a10.666667 10.666667 0 0 1 0 19.477333L537.642667 528.64c-10.56 4.714667-14.442667 5.930667-18.965334 6.741333a37.312 37.312 0 0 1-13.354666 0l-2.986667-0.64c-3.584-0.874667-7.765333-2.432-15.978667-6.101333L68.352 341.504a10.666667 10.666667 0 0 1 0-19.477333l418.005333-187.114667c10.56-4.736 14.442667-5.973333 18.965334-6.762667 4.522667-0.789333 8.832-0.789333 13.354666 0z"/>
</svg>