<?xml version="1.0" standalone="no"?><!DOCTYPE svg PUBLIC "-//W3C//DTD SVG 1.1//EN"
        "http://www.w3.org/Graphics/SVG/1.1/DTD/svg11.dtd">
<svg class="icon" width="200px" height="200.00px" viewBox="0 0 1024 1024" version="1.1"
     xmlns="http://www.w3.org/2000/svg">
    <path fill="#007cac"
          d="M512 912c-116.6 0-333.5-178.5-333.5-347.4V228.3l33.2-0.5c0.7 0 74.7-1.6 151.1-32.6 78.3-31.8 128.9-68.4 129.3-68.8l19.8-14.4 20 14.4c0.5 0.3 51 36.9 129.3 68.8 76.4 31 150.4 32.6 151.2 32.6l33 0.5 0.2 336.3C845.5 733.5 628.6 912 512 912z m147.3-514.3L486.9 596.4 396.1 519l-43.5 51.3L494.1 691l216.1-249.1-50.9-44.2z"/>
</svg>